<svg width="600" height="484" viewBox="0 0 600 484" fill="none" xmlns="http://www.w3.org/2000/svg">
<rect x="129.167" width="374.167" height="409.506" rx="41.8966" fill="#EBF1F7"/>
<path d="M284.065 238.237L319.668 42.4858C321.391 32.9453 330.464 26.7383 339.997 28.4625L369.858 33.8649C379.965 35.704 389.727 29.0372 391.565 18.8071C393.402 8.69191 403.164 1.91013 413.271 3.74926L452.895 10.9908C463.001 12.8299 469.777 22.6003 467.94 32.7155C466.102 42.8306 472.764 52.601 482.985 54.4401L535.701 63.9806C545.234 65.7047 551.436 74.7854 549.713 84.3258L514.11 280.078C512.387 289.618 503.314 295.825 493.781 294.101L298.192 258.468C288.544 256.859 282.227 247.663 284.065 238.237Z" fill="#6AC7B7"/>
<path d="M266.263 323.987H67.4572C57.8098 323.987 50 316.171 50 306.515V280.997C50 267.894 60.5662 257.319 73.6591 257.319C86.752 257.319 97.3182 246.744 97.3182 233.64V203.294C97.3182 190.191 86.752 179.616 73.6591 179.616C60.5662 179.616 50 169.041 50 155.937V107.315C50 97.6598 57.8098 89.8435 67.4572 89.8435H266.263C275.91 89.8435 283.72 97.6598 283.72 107.315V306.285C283.72 316.056 275.91 323.987 266.263 323.987Z" fill="#3843D0"/>
<path d="M232.038 153.408L257.305 170.19L254.434 203.524L268.101 205.363L281.079 183.064L342.868 220.421L304.164 273.871C302.326 276.285 295.091 286.745 292.564 285.48L197.009 246.054L131.315 222.72C128.329 222.03 125.802 220.076 124.194 217.433C122.586 214.789 122.127 211.685 122.816 208.697L124.998 147.661C125.342 146.052 126.032 144.557 126.95 143.178C127.869 141.799 129.132 140.764 130.626 139.845C132.004 139.04 133.612 138.465 135.334 138.35C136.942 138.235 138.665 138.35 140.158 138.925L207.69 161.454L223.31 153.293C224.688 152.604 226.181 152.144 227.789 152.259C229.167 152.144 230.66 152.604 232.038 153.408Z" fill="#EBF1F7"/>
<path d="M186.902 256.284L203.555 234.904L216.304 240.766L232.612 226.973L278.667 256.169L261.784 293.066C258.454 300.653 253.171 304.676 243.179 298.354L188.51 264.445C187.247 263.525 186.328 262.261 186.098 260.652C185.639 259.043 185.983 257.548 186.902 256.284Z" fill="#6AC7B7"/>
<path d="M329.43 163.753L282.801 143.982L250.184 166.971L245.819 209.846L261.094 212.72L272.809 198.122L284.294 171.224L309.331 184.788L329.43 163.753Z" fill="#6AC7B7"/>
<path d="M284.295 171.224L338.045 205.708C339.653 206.742 341.146 208.122 342.179 209.846C343.213 211.455 344.017 213.294 344.361 215.248C344.706 217.202 344.591 219.157 344.132 221.111C343.672 223.065 342.754 224.789 341.605 226.398L300.833 279.503C299.111 281.802 296.584 283.411 293.827 284.215C291.071 284.905 288.085 284.675 285.443 283.526L278.438 280.422" stroke="#040038" stroke-width="1.67586" stroke-linecap="round" stroke-linejoin="round"/>
<path d="M150.379 148.925L211.25 172.258L240.077 156.281C243.523 154.442 247.313 153.522 251.218 153.637C255.123 153.752 258.913 154.902 262.128 156.971" stroke="#040038" stroke-width="1.67586" stroke-linecap="round" stroke-linejoin="round"/>
<path d="M167.492 236.398L140.961 227.892" stroke="#040038" stroke-width="1.67586" stroke-linecap="round" stroke-linejoin="round"/>
<path d="M185.064 242.031L167.492 236.399" stroke="#040038" stroke-width="1.67586" stroke-linecap="round" stroke-linejoin="round"/>
<path d="M451.746 112.603L325.985 159.27L281.653 144.212L249.036 167.202L244.786 210.076L255.927 211.915C262.818 213.065 266.723 208.697 270.283 201.34L284.295 171.454" stroke="#040038" stroke-width="1.67586" stroke-linecap="round" stroke-linejoin="round"/>
<path d="M187.82 252.031L202.751 233.984L217.451 240.536L231.808 225.594L280.963 255.824L267.181 282.147C266.263 283.986 264.884 285.595 263.277 286.859C261.669 288.124 259.831 289.158 257.764 289.618C255.811 290.193 253.629 290.308 251.677 289.963C249.609 289.618 247.657 288.928 245.934 287.894L187.82 252.031Z" stroke="#040038" stroke-width="1.67586" stroke-linecap="round" stroke-linejoin="round"/>
<path d="M217.452 240.652L200.799 259.963" stroke="#040038" stroke-width="1.67586" stroke-linecap="round" stroke-linejoin="round"/>
<path d="M245.591 234.559L219.749 271.341" stroke="#040038" stroke-width="1.67586" stroke-linecap="round" stroke-linejoin="round"/>
<path d="M264.54 246.053L240.307 284.675" stroke="#040038" stroke-width="1.67586" stroke-linecap="round" stroke-linejoin="round"/>
<path d="M334.599 234.904L306.116 219.501" stroke="#040038" stroke-width="1.67586" stroke-linecap="round" stroke-linejoin="round"/>
<path d="M322.08 252.261L294.057 237.663" stroke="#040038" stroke-width="1.67586" stroke-linecap="round" stroke-linejoin="round"/>
<path d="M309.332 267.548L287.625 256.973" stroke="#040038" stroke-width="1.67586" stroke-linecap="round" stroke-linejoin="round"/>
<path d="M274.417 37.1987H157.844C129.706 37.1987 106.851 60.0728 106.851 88.2344M461.7 268.397V376.632C461.7 404.793 438.845 427.668 410.706 427.668H157.844C129.706 427.668 106.851 404.793 106.851 376.632V325.295" stroke="#040237" stroke-width="1.67586" stroke-miterlimit="10" stroke-linecap="round" stroke-linejoin="round"/>
<path d="M193.563 36.7824C193.563 43.1486 198.687 48.2769 205.048 48.2769C211.409 48.2769 216.533 43.1486 216.533 36.7824C216.533 30.4162 211.409 25.2878 205.048 25.2878C198.775 25.2878 193.563 30.4162 193.563 36.7824Z" fill="#FEC14C"/>
<path d="M176.335 428.745C176.335 435.112 181.459 440.24 187.82 440.24C194.181 440.24 199.305 435.112 199.305 428.745C199.305 422.379 194.181 417.251 187.82 417.251C181.459 417.251 176.335 422.379 176.335 428.745Z" fill="#3843D0"/>
<path d="M462.63 335.755L474.925 356.645C475.02 356.836 475.116 357.027 475.116 357.217C475.116 357.408 475.02 357.599 474.925 357.79C474.83 357.98 474.734 358.076 474.544 358.171C474.353 358.267 474.163 358.267 473.972 358.267H449.477C449.286 358.267 449.096 358.267 448.905 358.171C448.715 358.076 448.619 357.98 448.524 357.79C448.429 357.599 448.333 357.408 448.333 357.217C448.333 357.027 448.429 356.836 448.524 356.645L460.819 335.755C460.914 335.564 461.01 335.468 461.2 335.373C461.391 335.278 461.582 335.278 461.677 335.278C461.867 335.278 462.058 335.278 462.153 335.373C462.439 335.468 462.535 335.564 462.63 335.755Z" fill="#3843D0"/>
<path d="M248.013 24.1382H226.812C225.575 24.1382 224.572 25.1417 224.572 26.3796V47.5985C224.572 48.8364 225.575 49.8399 226.812 49.8399H248.013C249.25 49.8399 250.252 48.8364 250.252 47.5985V26.3796C250.252 25.1417 249.25 24.1382 248.013 24.1382Z" fill="#6AC7B7"/>
<path d="M461.654 306.087C469.895 306.089 477.952 303.646 484.806 299.065C491.66 294.485 497.002 287.973 500.158 280.353C503.314 272.733 504.141 264.348 502.534 256.258C500.928 248.168 496.961 240.736 491.134 234.903C485.307 229.069 477.883 225.096 469.8 223.486C461.717 221.876 453.339 222.702 445.725 225.857C438.11 229.013 431.602 234.358 427.023 241.216C422.444 248.074 420 256.137 420 264.385C419.998 269.861 421.074 275.283 423.167 280.343C425.26 285.402 428.327 289.999 432.196 293.871C436.064 297.744 440.656 300.816 445.711 302.912C450.765 305.008 456.183 306.087 461.654 306.087V306.087Z" fill="white" stroke="#040237" stroke-width="1.67586" stroke-linecap="round" stroke-linejoin="round"/>
<path d="M461.641 284.836V243.948" stroke="#040237" stroke-width="1.67586" stroke-linecap="round" stroke-linejoin="round"/>
<path d="M441.22 264.386H482.075" stroke="#040237" stroke-width="1.67586" stroke-linecap="round" stroke-linejoin="round"/>
<path d="M353.217 483.525C383.712 483.525 408.433 458.783 408.433 428.262C408.433 397.742 383.712 373 353.217 373C322.721 373 298 397.742 298 428.262C298 458.783 322.721 483.525 353.217 483.525Z" fill="#6AC7B7"/>
<path d="M361.668 455.128C373.381 455.128 382.877 445.468 382.877 433.551C382.877 421.635 373.381 411.974 361.668 411.974C349.956 411.974 340.46 421.635 340.46 433.551C340.46 445.468 349.956 455.128 361.668 455.128Z" fill="white"/>
<path fill-rule="evenodd" clip-rule="evenodd" d="M345.144 395.057C333.564 394.11 319.512 405.246 325.378 414.429C329.19 420.404 333.966 424.082 340.243 424.87C346.946 425.708 363.194 417.806 368.297 413.692C368.095 420.161 375.838 431.532 382.608 434.49C382.96 426.043 381.77 413.7 373.668 406.838C365.709 399.889 355.687 395.749 345.144 395.057Z" fill="#FEC14D"/>
<path fill-rule="evenodd" clip-rule="evenodd" d="M345.144 395.057C333.564 394.11 319.512 405.246 325.378 414.429C329.19 420.404 333.966 424.082 340.243 424.87C346.946 425.708 363.194 417.806 368.297 413.692C368.095 420.161 375.838 431.532 382.608 434.49C382.96 426.043 381.77 413.7 373.668 406.838C365.709 399.889 355.687 395.749 345.144 395.057Z" fill="#FEC14D"/>
<path d="M380.514 425.373C382.556 430.044 383.037 435.249 381.883 440.215C380.73 445.181 378.004 449.641 374.111 452.933C370.218 456.225 365.367 458.172 360.279 458.485M345.87 454.67C341.604 451.88 338.352 447.787 336.598 443C334.845 438.213 334.684 432.988 336.139 428.102C337.594 423.216 340.587 418.931 344.674 415.883C348.76 412.835 353.722 411.188 358.82 411.187" stroke="#040237" stroke-width="2.34621" stroke-linecap="round" stroke-linejoin="round"/>
<path d="M350.44 428.205L347.499 443.112L355.744 442.919" stroke="#040237" stroke-width="2.34621" stroke-linecap="round" stroke-linejoin="round"/>
<path d="M338.659 438.705C343.874 438.705 348.102 434.477 348.102 429.261C348.102 424.046 343.874 419.818 338.659 419.818C333.443 419.818 329.215 424.046 329.215 429.261C329.215 434.477 333.443 438.705 338.659 438.705Z" stroke="#040237" stroke-width="2.34621" stroke-linecap="round" stroke-linejoin="round"/>
<path d="M360.137 454.803H353.978C352.108 454.803 350.593 456.319 350.593 458.188C350.593 460.058 352.108 461.574 353.978 461.574H360.137C362.006 461.574 363.522 460.058 363.522 458.188C363.522 456.319 362.006 454.803 360.137 454.803Z" fill="#040237"/>
<path d="M361.526 438.705C366.741 438.705 370.969 434.477 370.969 429.261C370.969 424.046 366.741 419.818 361.526 419.818C356.311 419.818 352.083 424.046 352.083 429.261C352.083 434.477 356.311 438.705 361.526 438.705Z" stroke="#040237" stroke-width="2.34621" stroke-linecap="round" stroke-linejoin="round"/>
</svg>
