<svg width="412" height="350" viewBox="0 0 412 350" fill="none" xmlns="http://www.w3.org/2000/svg">
<path d="M31.1505 175C31.1505 221.373 49.572 265.847 82.3627 298.637C115.153 331.428 159.627 349.85 206 349.85C252.373 349.85 296.847 331.428 329.637 298.637C362.428 265.847 380.85 221.373 380.85 175C380.85 128.627 362.428 84.1534 329.637 51.3627C296.847 18.572 252.373 0.150452 206 0.150452C159.627 0.150452 115.153 18.572 82.3627 51.3627C49.572 84.1534 31.1505 128.627 31.1505 175V175Z" fill="#F0F1F2"/>
<g filter="url(#filter0_d_308_28)">
<path d="M177.646 50.715C177.646 46.6982 174.338 43.6265 170.085 43.6265H12.7204C8.46727 43.6265 5.1593 46.6982 5.1593 50.715V301.175C5.1593 305.192 8.46727 308.264 12.7204 308.264H170.085C174.338 308.264 177.646 305.192 177.646 301.175V50.715V50.715Z" fill="white"/>
</g>
<path d="M38.239 120.655H144.566V226.982H38.239V120.655Z" fill="#E8E9EB"/>
<path fill-rule="evenodd" clip-rule="evenodd" d="M72.5 170.983C74.5634 170.983 76.6067 170.577 78.513 169.787C80.4194 168.997 82.1516 167.84 83.6106 166.381C85.0697 164.922 86.2271 163.19 87.0168 161.283C87.8064 159.377 88.2128 157.334 88.2128 155.27C88.2128 153.207 87.8064 151.164 87.0168 149.257C86.2271 147.351 85.0697 145.619 83.6106 144.16C82.1516 142.701 80.4194 141.543 78.513 140.754C76.6067 139.964 74.5634 139.557 72.5 139.557C68.3327 139.557 64.3361 141.213 61.3894 144.16C58.4426 147.106 56.7872 151.103 56.7872 155.27C56.7872 159.438 58.4426 163.434 61.3894 166.381C64.3361 169.328 68.3327 170.983 72.5 170.983V170.983ZM72.5 178.072C78.5473 178.072 84.3469 175.669 88.623 171.393C92.8991 167.117 95.3013 161.318 95.3013 155.27C95.3013 149.223 92.8991 143.423 88.623 139.147C84.3469 134.871 78.5473 132.469 72.5 132.469C66.4527 132.469 60.6531 134.871 56.377 139.147C52.1009 143.423 49.6987 149.223 49.6987 155.27C49.6987 161.318 52.1009 167.117 56.377 171.393C60.6531 175.669 66.4527 178.072 72.5 178.072V178.072Z" fill="#9FA5AB"/>
<path d="M130.389 132.469H71.3186L66.593 226.982H128.027L118.575 156.097L130.389 137.195V132.469Z" fill="#B6BABF"/>
<path d="M71.0823 132.469H83.1328V226.982H66.593L70.8461 132.469H71.0823Z" fill="#9FA5AB"/>
<path d="M64.2301 250.611C64.2301 248.731 64.9769 246.928 66.3063 245.598C67.6356 244.269 69.4386 243.522 71.3186 243.522H109.124C111.004 243.522 112.807 244.269 114.136 245.598C115.466 246.928 116.212 248.731 116.212 250.611V278.965C116.212 280.845 115.466 282.648 114.136 283.977C112.807 285.306 111.004 286.053 109.124 286.053H71.3186C69.4386 286.053 67.6356 285.306 66.3063 283.977C64.9769 282.648 64.2301 280.845 64.2301 278.965V250.611Z" fill="#F0F1F2"/>
<path d="M97.3097 268.332V267.623C97.3097 264.079 94.9469 262.188 91.6389 262.188C90.8658 262.15 90.0951 262.303 89.3947 262.633C88.6943 262.962 88.0856 263.459 87.6221 264.079V263.606C87.6221 260.535 88.5673 259.117 89.985 259.117C91.1664 259.117 91.6389 259.826 91.8752 260.771L96.6009 260.298C96.3646 257.463 94.0018 255.573 90.2212 255.573C85.7319 255.573 82.4239 258.408 82.4239 264.079V266.442C82.4239 271.167 84.7867 274.475 90.2212 274.475C94.4743 274.475 97.3097 272.112 97.3097 268.332V268.332ZM90.2212 270.695C88.5673 270.695 87.8584 269.75 87.8584 268.332V267.859C87.8584 266.442 88.5673 265.496 90.2212 265.496C91.4026 265.496 92.3478 266.442 92.3478 267.859V268.332C92.3478 269.986 91.4027 270.695 89.985 270.695H90.2212Z" fill="#6B7177"/>
<path d="M144.566 81.4319C145.82 81.4319 147.022 80.934 147.908 80.0477C148.794 79.1615 149.292 77.9595 149.292 76.7062C149.292 75.4529 148.794 74.2509 147.908 73.3646C147.022 72.4784 145.82 71.9805 144.566 71.9805C143.313 71.9805 142.111 72.4784 141.225 73.3646C140.339 74.2509 139.841 75.4529 139.841 76.7062C139.841 79.3053 141.967 81.4319 144.566 81.4319ZM144.566 62.5292C152.364 62.5292 158.743 69.3814 158.743 77.6513C158.743 91.8283 145.984 99.6257 145.512 100.098L144.566 100.335L143.621 100.098C143.149 99.6257 130.389 91.8283 130.389 77.6513C130.389 69.3814 136.769 62.5292 144.566 62.5292Z" fill="#5BA7B1"/>
<g filter="url(#filter1_d_308_28)">
<path d="M406.841 50.715C406.841 48.835 406.094 47.032 404.765 45.7027C403.435 44.3733 401.632 43.6265 399.752 43.6265H241.442C239.563 43.6265 237.76 44.3733 236.43 45.7027C235.101 47.032 234.354 48.835 234.354 50.715V301.175C234.354 303.055 235.101 304.858 236.43 306.188C237.76 307.517 239.563 308.264 241.442 308.264H399.752C401.632 308.264 403.435 307.517 404.765 306.188C406.094 304.858 406.841 303.055 406.841 301.175V50.715V50.715Z" fill="white"/>
</g>
<path d="M338.319 81.4318C338.319 79.5519 337.572 77.7489 336.242 76.4195C334.913 75.0902 333.11 74.3434 331.23 74.3434H274.522C272.642 74.3434 270.839 75.0902 269.51 76.4195C268.18 77.7489 267.434 79.5519 267.434 81.4318C267.434 83.3118 268.18 85.1148 269.51 86.4442C270.839 87.7735 272.642 88.5203 274.522 88.5203H331.23C333.11 88.5203 334.913 87.7735 336.242 86.4442C337.572 85.1148 338.319 83.3118 338.319 81.4318Z" fill="#B6BABF"/>
<path d="M373.761 81.4319C375.014 81.4319 376.216 80.934 377.103 80.0477C377.989 79.1615 378.487 77.9595 378.487 76.7062C378.487 75.4529 377.989 74.2509 377.103 73.3646C376.216 72.4784 375.014 71.9805 373.761 71.9805C372.508 71.9805 371.306 72.4784 370.42 73.3646C369.533 74.2509 369.035 75.4529 369.035 76.7062C369.035 79.3053 371.398 81.4319 373.761 81.4319ZM373.761 62.5292C381.795 62.5292 387.938 69.3814 387.938 77.6513C387.938 91.8283 375.415 99.6257 374.706 100.098L373.997 100.335L373.052 100.098C372.58 99.6257 359.82 91.8283 359.82 77.6513C359.82 69.3814 366.2 62.5292 373.997 62.5292H373.761Z" fill="#108060"/>
<path d="M267.434 123.018H373.761V229.345H267.434V123.018Z" fill="#E8E9EB"/>
<path fill-rule="evenodd" clip-rule="evenodd" d="M301.458 173.346C303.522 173.346 305.565 172.94 307.471 172.15C309.378 171.36 311.11 170.203 312.569 168.744C314.028 167.285 315.186 165.553 315.975 163.646C316.765 161.74 317.171 159.697 317.171 157.633C317.171 155.57 316.765 153.527 315.975 151.62C315.186 149.714 314.028 147.982 312.569 146.523C311.11 145.063 309.378 143.906 307.471 143.116C305.565 142.327 303.522 141.92 301.458 141.92C297.291 141.92 293.294 143.576 290.348 146.523C287.401 149.469 285.746 153.466 285.746 157.633C285.746 161.801 287.401 165.797 290.348 168.744C293.294 171.691 297.291 173.346 301.458 173.346V173.346ZM301.458 180.435C307.506 180.435 313.305 178.032 317.581 173.756C321.857 169.48 324.26 163.68 324.26 157.633C324.26 151.586 321.857 145.786 317.581 141.51C313.305 137.234 307.506 134.832 301.458 134.832C295.411 134.832 289.611 137.234 285.335 141.51C281.059 145.786 278.657 151.586 278.657 157.633C278.657 163.68 281.059 169.48 285.335 173.756C289.611 178.032 295.411 180.435 301.458 180.435Z" fill="#3C8B96"/>
<path d="M359.584 134.832H300.041L295.788 229.345H357.221L347.77 158.46L359.584 139.558V134.832Z" fill="#5BA7B1"/>
<path d="M300.041 134.832H312.327V229.345H295.788L300.041 134.832Z" fill="#3C8B96"/>
<path d="M293.425 250.611C293.425 248.731 294.172 246.928 295.501 245.598C296.83 244.269 298.633 243.522 300.513 243.522H338.319C340.199 243.522 342.002 244.269 343.331 245.598C344.66 246.928 345.407 248.731 345.407 250.611V278.965C345.407 280.845 344.66 282.648 343.331 283.977C342.002 285.306 340.199 286.053 338.319 286.053H300.513C298.633 286.053 296.83 285.306 295.501 283.977C294.172 282.648 293.425 280.845 293.425 278.965V250.611Z" fill="#F0F1F2"/>
<path d="M319.652 274.239H324.614V270.458H326.977V267.15H324.614V255.336H318.235L311.146 267.15V270.222H319.652V274.003V274.239ZM319.652 267.15H315.635L319.888 260.062V267.15H319.652Z" fill="#6B7177"/>
<path d="M149.292 175C149.292 190.04 155.267 204.464 165.901 215.099C176.536 225.733 190.96 231.708 206 231.708C221.04 231.708 235.464 225.733 246.099 215.099C256.733 204.464 262.708 190.04 262.708 175C262.708 159.96 256.733 145.536 246.099 134.901C235.464 124.267 221.04 118.292 206 118.292C190.96 118.292 176.536 124.267 165.901 134.901C155.267 145.536 149.292 159.96 149.292 175Z" fill="#108060"/>
<path fill-rule="evenodd" clip-rule="evenodd" d="M170.321 175C170.321 177.599 172.448 179.726 175.047 179.726H233.645C234.898 179.726 236.1 179.228 236.987 178.342C237.873 177.455 238.371 176.253 238.371 175C238.371 173.747 237.873 172.545 236.987 171.658C236.1 170.772 234.898 170.274 233.645 170.274H175.047C173.794 170.274 172.592 170.772 171.705 171.658C170.819 172.545 170.321 173.747 170.321 175Z" fill="white"/>
<path fill-rule="evenodd" clip-rule="evenodd" d="M214.506 197.211C216.396 199.101 219.232 199.101 221.122 197.211L240.025 178.308C241.915 176.418 241.915 173.582 240.025 171.692L221.122 152.789C220.716 152.248 220.198 151.8 219.604 151.476C219.009 151.152 218.352 150.959 217.677 150.911C217.001 150.863 216.323 150.961 215.689 151.197C215.055 151.434 214.479 151.804 214 152.283C213.521 152.762 213.151 153.338 212.914 153.972C212.677 154.607 212.58 155.284 212.628 155.96C212.676 156.635 212.868 157.292 213.192 157.887C213.516 158.481 213.965 158.999 214.506 159.405L230.101 175L214.506 190.595C213.64 191.478 213.155 192.666 213.155 193.903C213.155 195.14 213.64 196.327 214.506 197.211V197.211Z" fill="white"/>
<path d="M54.0699 88.5203H102.035C103.915 88.5203 105.718 87.7735 107.048 86.4442C108.377 85.1148 109.124 83.3118 109.124 81.4318C109.124 79.5519 108.377 77.7489 107.048 76.4195C105.718 75.0902 103.915 74.3434 102.035 74.3434H63.0487C59.8306 78.9226 56.8342 83.6537 54.0699 88.5203V88.5203Z" fill="#B6BABF"/>
<defs>
<filter id="filter0_d_308_28" x="0.159302" y="39.6265" width="182.487" height="274.637" filterUnits="userSpaceOnUse" color-interpolation-filters="sRGB">
<feFlood flood-opacity="0" result="BackgroundImageFix"/>
<feColorMatrix in="SourceAlpha" type="matrix" values="0 0 0 0 0 0 0 0 0 0 0 0 0 0 0 0 0 0 127 0" result="hardAlpha"/>
<feOffset dy="1"/>
<feGaussianBlur stdDeviation="2.5"/>
<feColorMatrix type="matrix" values="0 0 0 0 0 0 0 0 0 0 0 0 0 0 0 0 0 0 0.3 0"/>
<feBlend mode="normal" in2="BackgroundImageFix" result="effect1_dropShadow_308_28"/>
<feBlend mode="normal" in="SourceGraphic" in2="effect1_dropShadow_308_28" result="shape"/>
</filter>
<filter id="filter1_d_308_28" x="229.354" y="39.6265" width="182.487" height="274.637" filterUnits="userSpaceOnUse" color-interpolation-filters="sRGB">
<feFlood flood-opacity="0" result="BackgroundImageFix"/>
<feColorMatrix in="SourceAlpha" type="matrix" values="0 0 0 0 0 0 0 0 0 0 0 0 0 0 0 0 0 0 127 0" result="hardAlpha"/>
<feOffset dy="1"/>
<feGaussianBlur stdDeviation="2.5"/>
<feColorMatrix type="matrix" values="0 0 0 0 0 0 0 0 0 0 0 0 0 0 0 0 0 0 0.3 0"/>
<feBlend mode="normal" in2="BackgroundImageFix" result="effect1_dropShadow_308_28"/>
<feBlend mode="normal" in="SourceGraphic" in2="effect1_dropShadow_308_28" result="shape"/>
</filter>
</defs>
</svg>
