<?xml version="1.0" standalone="no"?>
<!DOCTYPE svg PUBLIC "-//W3C//DTD SVG 20010904//EN"
 "http://www.w3.org/TR/2001/REC-SVG-20010904/DTD/svg10.dtd">
<svg version="1.0" xmlns="http://www.w3.org/2000/svg"
 width="512.000000pt" height="512.000000pt" viewBox="0 0 512.000000 512.000000"
 preserveAspectRatio="xMidYMid meet">
<metadata>
Created by potrace 1.16, written by Peter Selinger 2001-2019
</metadata>
<g transform="translate(0.000000,512.000000) scale(0.100000,-0.100000)"
fill="#cb2026" stroke="none">
<path d="M282 4193 c-60 -21 -144 -102 -173 -165 l-24 -53 0 -795 0 -795 26
-55 c37 -80 72 -115 147 -152 l67 -33 2235 0 2235 0 67 33 c72 35 113 77 150
152 l23 45 0 800 0 800 -24 53 c-30 66 -113 144 -177 166 -43 15 -255 16
-2278 15 -1963 0 -2236 -2 -2274 -16z m4509 -231 l29 -32 0 -746 c0 -809 2
-786 -55 -812 -17 -8 -83 -12 -185 -12 l-160 0 0 268 c0 295 -2 305 -60 334
-33 17 -140 18 -1800 18 -1660 0 -1767 -1 -1800 -18 -58 -29 -60 -39 -60 -334
l0 -268 -160 0 c-176 0 -206 7 -228 55 -9 19 -12 214 -12 769 l0 743 21 27
c12 15 31 32 43 36 11 5 1006 8 2209 7 l2189 -2 29 -33z m-591 -1402 l0 -200
-1640 0 -1640 0 0 200 0 200 1640 0 1640 0 0 -200z"/>
<path d="M1461 3774 c-36 -30 -49 -81 -31 -125 26 -63 -49 -59 1130 -59 1179
0 1104 -4 1130 59 18 44 5 95 -31 125 l-31 26 -1068 0 -1068 0 -31 -26z"/>
<path d="M4147 3789 c-24 -14 -47 -62 -47 -100 0 -48 56 -99 108 -99 48 0 86
28 102 74 24 73 -23 136 -99 136 -25 0 -54 -5 -64 -11z"/>
<path d="M1485 3381 c-83 -35 -83 -162 0 -197 52 -21 2099 -21 2150 0 69 29
84 125 29 177 l-26 24 -1066 2 c-587 1 -1076 -2 -1087 -6z"/>
<path d="M4134 3356 c-38 -38 -44 -77 -19 -126 19 -37 43 -50 94 -50 46 0 95
35 105 76 9 36 -10 90 -41 114 -42 33 -98 27 -139 -14z"/>
<path d="M1703 1943 c-12 -2 -34 -18 -48 -34 l-25 -31 0 -311 c0 -283 -2 -316
-19 -353 -26 -56 -72 -87 -132 -88 -78 -1 -136 55 -150 145 -12 74 -43 104
-109 104 -41 0 -54 -5 -77 -28 -25 -25 -28 -34 -27 -95 1 -136 100 -273 231
-322 83 -31 215 -25 291 14 74 38 124 86 163 158 l34 63 3 357 3 357 -28 30
c-28 30 -69 42 -110 34z"/>
<path d="M2100 1933 c-58 -30 -60 -39 -60 -351 0 -233 3 -288 15 -312 20 -38
43 -50 98 -50 52 0 91 31 101 81 10 53 7 531 -5 572 -17 63 -87 92 -149 60z"/>
<path d="M2513 1935 c-63 -27 -64 -32 -61 -471 l3 -396 33 -29 c45 -40 99 -40
144 0 l33 29 3 396 c3 441 3 444 -63 472 -42 17 -51 17 -92 -1z"/>
<path d="M2920 1933 c-57 -29 -62 -57 -58 -375 l3 -277 29 -30 c24 -25 38 -31
74 -31 54 0 77 12 97 50 12 24 15 79 15 309 0 154 -4 291 -10 305 -20 53 -94
77 -150 49z"/>
<path d="M3353 1943 c-12 -2 -34 -18 -48 -35 l-26 -31 3 -356 3 -356 34 -63
c39 -72 89 -120 163 -158 76 -39 208 -45 291 -14 123 46 218 172 232 305 5 50
3 65 -14 93 -25 39 -63 56 -110 48 -51 -8 -80 -42 -90 -105 -14 -90 -72 -146
-150 -145 -60 1 -106 32 -132 88 -17 37 -19 70 -19 353 l0 313 -27 29 c-28 30
-69 42 -110 34z"/>
</g>
</svg>
