<?xml version="1.0" standalone="no"?>
<!DOCTYPE svg PUBLIC "-//W3C//DTD SVG 20010904//EN"
 "http://www.w3.org/TR/2001/REC-SVG-20010904/DTD/svg10.dtd">
<svg version="1.0" xmlns="http://www.w3.org/2000/svg"
 width="512.000000pt" height="512.000000pt" viewBox="0 0 512.000000 512.000000"
 preserveAspectRatio="xMidYMid meet">

<g transform="translate(0.000000,512.000000) scale(0.100000,-0.100000)"
fill="#cb2026" stroke="none">
<path d="M1839 5107 c-57 -21 -97 -54 -126 -105 l-28 -47 -3 -316 -3 -316 -49
-6 c-97 -12 -191 -81 -237 -175 -24 -49 -28 -69 -28 -142 0 -72 4 -92 27 -135
32 -62 103 -129 163 -155 l45 -19 0 -408 c0 -455 7 -516 69 -662 104 -245 331
-443 582 -508 l69 -17 0 -71 c0 -52 6 -83 24 -120 24 -52 78 -108 116 -120 21
-7 21 -11 18 -151 -4 -193 3 -187 -196 -195 -139 -5 -151 -7 -213 -37 -85 -41
-168 -127 -200 -209 -19 -46 -23 -78 -24 -153 0 -86 3 -101 31 -160 76 -158
213 -240 402 -240 64 0 76 3 97 25 30 29 33 74 6 106 -17 21 -30 24 -112 30
-107 7 -158 27 -206 82 -99 113 -75 284 51 362 48 29 55 30 195 35 163 7 198
17 256 77 62 64 70 91 73 265 3 147 5 158 23 163 37 12 92 69 115 120 18 37
24 68 24 120 l0 71 70 18 c290 74 536 320 621 621 22 77 23 99 27 518 l3 438
44 19 c60 26 131 93 163 155 23 43 27 63 27 135 0 73 -4 93 -28 142 -46 94
-140 163 -237 175 l-49 6 -3 317 -3 317 -30 49 c-19 30 -49 60 -79 79 -44 27
-58 30 -126 30 -68 0 -82 -3 -126 -30 -30 -19 -60 -49 -79 -79 l-30 -49 -3
-319 -3 -318 -399 0 -399 0 -3 318 -3 319 -30 49 c-42 68 -105 105 -187 110
-38 3 -77 -1 -99 -9z m136 -172 l25 -24 0 -296 0 -295 -80 0 -80 0 0 295 0
296 25 24 c15 16 36 25 55 25 19 0 40 -9 55 -25z m1280 0 l25 -24 0 -296 0
-295 -80 0 -80 0 0 295 0 296 25 24 c15 16 36 25 55 25 19 0 40 -9 55 -25z
m265 -797 c56 -39 75 -73 75 -136 0 -70 -28 -115 -89 -143 -39 -18 -85 -19
-946 -19 -861 0 -907 1 -946 19 -61 28 -89 73 -89 143 0 63 19 97 75 136 l33
22 927 0 927 0 33 -22z m-162 -885 l-3 -428 -27 -80 c-39 -113 -91 -198 -178
-286 -117 -119 -245 -184 -411 -210 -97 -15 -365 -6 -440 15 -240 67 -427 245
-507 481 l-27 80 -3 428 -3 427 801 0 801 0 -3 -427z m-718 -1225 c-1 -56 -11
-77 -48 -97 -30 -16 -65 -7 -92 21 -15 16 -20 35 -20 75 l0 53 80 0 80 0 0
-52z"/>
<path d="M2518 3429 c-22 -12 -278 -438 -278 -461 0 -30 22 -65 47 -77 14 -7
91 -11 193 -11 94 0 170 -3 170 -6 0 -3 -38 -69 -85 -148 -47 -78 -85 -153
-85 -167 0 -29 29 -64 60 -74 50 -16 72 8 204 228 71 116 130 226 133 243 4
26 0 38 -20 58 l-26 26 -185 0 -185 0 85 142 c47 78 88 157 91 174 10 60 -65
105 -119 73z"/>
<path d="M2505 775 c-16 -15 -25 -36 -25 -55 0 -19 9 -40 25 -55 49 -50 135
-15 135 55 0 41 -39 80 -80 80 -19 0 -40 -9 -55 -25z"/>
<path d="M2746 777 c-31 -31 -34 -75 -7 -108 17 -21 30 -25 110 -29 97 -6 124
-18 165 -74 29 -39 29 -133 0 -172 -48 -64 -61 -69 -239 -74 -162 -5 -164 -5
-206 -35 -58 -41 -89 -102 -89 -177 0 -49 4 -63 25 -83 55 -55 135 -15 135 68
0 25 6 49 13 55 6 5 80 12 162 14 171 5 217 19 290 93 66 65 89 125 90 225 0
100 -23 159 -90 225 -65 66 -124 89 -237 93 -93 4 -98 3 -122 -21z"/>
</g>
</svg>
