<?xml version="1.0" standalone="no"?>
<!DOCTYPE svg PUBLIC "-//W3C//DTD SVG 20010904//EN"
 "http://www.w3.org/TR/2001/REC-SVG-20010904/DTD/svg10.dtd">
<svg version="1.0" xmlns="http://www.w3.org/2000/svg"
 width="512.000000pt" height="512.000000pt" viewBox="0 0 512.000000 512.000000"
 preserveAspectRatio="xMidYMid meet">
<metadata>
Created by potrace 1.16, written by Peter Selinger 2001-2019
</metadata>
<g transform="translate(0.000000,512.000000) scale(0.100000,-0.100000)"
fill="#cb2026" stroke="none">
<path d="M2215 5080 c-390 -53 -769 -194 -1070 -397 -88 -60 -101 -73 -109
-106 -12 -47 12 -103 50 -117 53 -21 87 -12 179 48 293 189 587 300 948 358
150 25 449 29 605 10 559 -69 1027 -292 1406 -672 376 -375 604 -839 677
-1374 19 -138 16 -459 -5 -600 -56 -368 -175 -679 -377 -987 -77 -117 -87
-148 -64 -192 26 -52 87 -73 140 -49 50 22 214 292 311 509 89 198 152 419
190 659 27 165 27 608 1 763 -46 272 -120 504 -236 742 -313 638 -860 1105
-1538 1314 -129 40 -350 87 -475 100 -150 17 -481 12 -633 -9z"/>
<path d="M1930 4581 c-55 -18 -108 -52 -144 -91 -71 -79 -70 -76 -76 -469 l-5
-354 -46 -11 c-100 -26 -199 -108 -246 -204 -25 -52 -28 -67 -28 -167 0 -102
2 -114 29 -168 37 -72 119 -151 191 -182 l55 -25 0 -289 c0 -302 6 -359 48
-481 30 -85 66 -150 132 -238 89 -118 213 -218 347 -281 l51 -24 4 -122 c3
-121 4 -124 34 -162 42 -52 87 -81 140 -89 l44 -6 0 -403 c0 -372 1 -408 20
-466 61 -200 241 -330 455 -330 157 1 460 86 710 201 165 76 407 226 440 273
26 37 19 94 -15 129 -28 27 -36 30 -78 25 -37 -4 -69 -19 -147 -72 -122 -81
-363 -201 -505 -250 -144 -50 -334 -95 -399 -95 -29 0 -71 5 -93 12 -55 16
-126 83 -154 143 -24 50 -24 52 -24 442 l0 391 40 7 c48 8 93 38 134 88 30 38
31 41 34 162 l4 122 51 24 c219 102 403 302 479 519 42 122 48 179 48 481 l0
289 55 25 c72 31 154 110 191 182 27 54 29 66 29 168 0 100 -3 115 -28 167
-47 96 -146 178 -246 204 l-46 11 -5 354 c-6 394 -5 390 -76 469 -21 23 -61
54 -88 68 -44 23 -63 27 -136 27 -73 0 -92 -4 -136 -27 -28 -15 -70 -48 -92
-73 -70 -79 -72 -94 -72 -477 l0 -338 -250 0 -250 0 0 338 c0 383 -2 398 -72
477 -57 65 -126 97 -213 101 -38 2 -81 0 -95 -5z m133 -221 c15 -12 31 -38 37
-58 6 -22 10 -161 10 -334 l0 -298 -100 0 -100 0 0 298 c0 173 4 312 10 334
13 44 52 78 90 78 15 0 39 -9 53 -20z m1100 0 c15 -12 31 -38 37 -58 6 -22 10
-161 10 -334 l0 -298 -100 0 -100 0 0 298 c0 173 4 312 10 334 13 44 52 78 90
78 15 0 39 -9 53 -20z m290 -930 c49 -34 77 -86 77 -146 0 -58 -23 -100 -76
-140 l-37 -29 -857 0 -857 0 -37 29 c-54 41 -76 82 -76 141 0 50 24 105 59
133 52 42 34 42 922 39 l845 -2 37 -25z m-196 -802 c-4 -232 -8 -285 -25 -349
-64 -239 -234 -419 -467 -496 -69 -23 -97 -26 -205 -26 -108 0 -136 3 -205 26
-233 77 -403 257 -467 496 -17 64 -21 117 -25 349 l-6 272 703 0 703 0 -6
-272z m-579 -1138 l-3 -55 -115 0 -115 0 -3 55 -3 55 121 0 121 0 -3 -55z"/>
<path d="M2654 2862 c-28 -4 -71 -50 -213 -232 -112 -144 -121 -158 -121 -198
0 -35 6 -49 29 -73 27 -27 35 -29 100 -29 l70 0 -61 -107 c-75 -133 -83 -176
-42 -222 37 -41 87 -50 129 -23 44 28 255 404 255 456 0 66 -46 106 -121 106
-16 0 -29 2 -29 6 0 3 24 35 53 72 73 91 83 114 78 172 -4 43 -71 81 -127 72z"/>
<path d="M762 4365 c-39 -17 -66 -72 -57 -115 17 -79 114 -107 174 -51 56 53
37 144 -36 172 -32 12 -41 11 -81 -6z"/>
<path d="M497 4059 c-9 -6 -43 -49 -76 -97 -223 -334 -366 -730 -411 -1144
-15 -145 -12 -447 6 -590 48 -382 185 -760 388 -1072 l64 -100 -24 -46 c-42
-81 -59 -172 -47 -256 22 -151 106 -267 242 -332 257 -123 552 33 603 318 36
209 -103 424 -312 480 -66 18 -178 14 -242 -7 l-55 -19 -49 75 c-204 320 -323
663 -365 1059 -14 138 -7 427 15 567 52 329 175 656 347 921 38 59 71 115 75
126 10 34 -5 86 -33 108 -28 22 -95 27 -126 9z m445 -3074 c26 -19 53 -51 71
-85 24 -46 28 -63 24 -106 -9 -86 -54 -150 -132 -185 -114 -53 -255 15 -291
139 -26 90 7 183 83 234 53 36 60 38 135 35 56 -2 74 -8 110 -32z"/>
<path d="M4235 888 c-85 -76 -13 -212 95 -179 47 14 70 48 70 101 0 86 -101
133 -165 78z"/>
</g>
</svg>
