<svg width="26" height="26" viewBox="0 0 26 26" fill="none" xmlns="http://www.w3.org/2000/svg">
<g clip-path="url(#clip0_88_5013)">
<path d="M25.8435 13.6387L23.0405 11.1003V5.04477C23.0405 4.78382 22.8289 4.57272 22.5684 4.57272H20.1009C19.9756 4.57272 19.8551 4.62205 19.7663 4.71105C19.6773 4.80005 19.6276 4.92035 19.629 5.04619L19.6354 8.01616L13.5218 2.47871C13.3429 2.31694 13.0734 2.31552 12.8921 2.47459L0.160613 13.6885C-0.00206033 13.8313 -0.0467536 14.0651 0.0522929 14.2578C0.150051 14.449 0.36579 14.5514 0.57599 14.5035L3.40583 13.8647V22.5918C3.40313 22.6679 3.40171 23.0616 3.68661 23.3574C3.81297 23.4874 4.03927 23.6436 4.4039 23.6436C5.08421 23.6436 10.7185 23.6366 10.7185 23.6366C10.9799 23.6366 11.1901 23.425 11.1906 23.1646L11.1979 17.9471C11.1933 17.8863 11.2044 17.7319 11.2671 17.6631C11.3095 17.6179 11.4003 17.6073 11.4676 17.6073H14.0891C14.2067 17.6073 14.3656 17.6262 14.4473 17.711C14.5372 17.8032 14.5357 17.9636 14.5343 17.9884L14.5223 23.1478C14.5223 23.2728 14.5712 23.3931 14.6602 23.4825C14.7486 23.571 14.8704 23.6217 14.9948 23.6217H21.1775C21.5979 23.6217 21.856 23.4442 21.9971 23.2962C22.3267 22.9532 22.3156 22.4831 22.3138 22.4508V13.7222L25.4193 14.4486C25.6309 14.4989 25.8452 14.3984 25.9462 14.208C26.0464 14.0177 26.004 13.7839 25.8435 13.6387ZM20.5749 5.5172H22.0969V10.2448L20.5822 8.87293L20.5749 5.5172ZM21.9485 12.6666C21.8093 12.6333 21.66 12.6666 21.5479 12.7565C21.4355 12.8459 21.369 12.9824 21.369 13.1266V22.4628C21.369 22.5135 21.3506 22.607 21.3151 22.6435C21.2861 22.6721 21.2169 22.6758 21.1773 22.6758H15.4679L15.478 18.0224C15.4822 17.9658 15.5061 17.4601 15.142 17.0692C14.9673 16.8844 14.6451 16.6631 14.0883 16.6631H11.4668C10.9962 16.6631 10.7159 16.8636 10.5638 17.0313C10.2398 17.3904 10.2453 17.8716 10.2536 18.0067L10.2462 22.6928C8.87722 22.6942 4.96327 22.6992 4.40312 22.6992C4.38612 22.6992 4.37543 22.6983 4.36861 22.6983C4.3677 22.6983 4.36629 22.6983 4.36539 22.6983C4.35663 22.6794 4.35019 22.6435 4.35019 22.6113V13.2742C4.35019 13.1309 4.28386 12.9949 4.17232 12.905C4.05987 12.8156 3.91279 12.7829 3.77355 12.8133L2.1722 13.1747L13.1991 3.46247L19.6372 9.29307V9.32115H19.6676L23.8549 13.1139L21.9485 12.6666Z" fill="white"/>
</g>
<defs>
<clipPath id="clip0_88_5013">
<rect width="26" height="26" fill="white"/>
</clipPath>
</defs>
</svg>
