<svg width="24" height="24" viewBox="0 0 24 24" fill="none" xmlns="http://www.w3.org/2000/svg">
<path d="M9.32927 2.03613H6.35894C6.09489 2.03613 5.88086 2.25016 5.88086 2.51421V5.48454C5.88086 5.74858 6.09489 5.96262 6.35894 5.96262H9.32927C9.59331 5.96262 9.80734 5.74858 9.80734 5.48454V2.51426C9.80734 2.25021 9.59331 2.03613 9.32927 2.03613ZM8.85119 5.00646H6.83706V2.99234H8.85119V5.00646Z" fill="white"/>
<path d="M14.6466 2.03613H11.6763C11.4123 2.03613 11.1982 2.25016 11.1982 2.51421V5.48454C11.1982 5.74858 11.4123 5.96262 11.6763 5.96262H14.6466C14.9107 5.96262 15.1247 5.74858 15.1247 5.48454V2.51426C15.1247 2.25021 14.9107 2.03613 14.6466 2.03613ZM14.1686 5.00646H12.1544V2.99234H14.1685V5.00646H14.1686Z" fill="white"/>
<path d="M9.32927 7.30603H6.35894C6.09489 7.30603 5.88086 7.52006 5.88086 7.78411V10.7544C5.88086 11.0185 6.09489 11.2325 6.35894 11.2325H9.32927C9.59331 11.2325 9.80734 11.0185 9.80734 10.7544V7.78411C9.80734 7.52006 9.59331 7.30603 9.32927 7.30603ZM8.85119 10.2764H6.83706V8.26223H8.85119V10.2764Z" fill="white"/>
<path d="M14.6466 7.30603H11.6763C11.4123 7.30603 11.1982 7.52006 11.1982 7.78411V10.7544C11.1982 11.0185 11.4123 11.2325 11.6763 11.2325H14.6466C14.9107 11.2325 15.1247 11.0185 15.1247 10.7544V7.78411C15.1247 7.52006 14.9107 7.30603 14.6466 7.30603ZM14.1686 10.2764H12.1544V8.26223H14.1685V10.2764H14.1686Z" fill="white"/>
<path d="M9.32927 12.5759H6.35894C6.09489 12.5759 5.88086 12.79 5.88086 13.054V16.0243C5.88086 16.2884 6.09489 16.5024 6.35894 16.5024H9.32927C9.59331 16.5024 9.80734 16.2884 9.80734 16.0243V13.054C9.80734 12.79 9.59331 12.5759 9.32927 12.5759ZM8.85119 15.5463H6.83706V13.5321H8.85119V15.5463Z" fill="white"/>
<path d="M17.2326 14.7819V0.478078C17.2326 0.214031 17.0186 0 16.7545 0H4.25054C3.98649 0 3.77246 0.214031 3.77246 0.478078V23.5219C3.77246 23.786 3.98649 24 4.25054 24H16.7546C16.7731 24 16.7932 23.998 16.814 23.9947C16.9766 23.9685 17.1223 23.8768 17.2246 23.7476C17.2255 23.7465 17.2264 23.7453 17.2272 23.7443C17.5343 23.3509 20.2269 19.852 20.2269 18.1362C20.2269 16.4037 18.9151 14.9725 17.2326 14.7819ZM12.4678 23.0438H10.9806V21.5817C10.9806 21.3176 10.7666 21.1036 10.5025 21.1036C10.2385 21.1036 10.0245 21.3176 10.0245 21.5817V23.0438H8.5373V19.0415H12.4678V23.0438ZM13.4239 23.0438V18.5634C13.4239 18.2994 13.2099 18.0854 12.9459 18.0854H8.05923C7.79518 18.0854 7.58115 18.2994 7.58115 18.5634V23.0438H4.72862V0.956156H16.2765V14.8095C15.862 14.8807 15.4732 15.0274 15.1247 15.2355V13.054C15.1247 12.7899 14.9107 12.5759 14.6466 12.5759H11.6763C11.4122 12.5759 11.1982 12.7899 11.1982 13.054V16.0243C11.1982 16.2884 11.4122 16.5024 11.6763 16.5024H13.8968C13.6277 16.9869 13.4739 17.5439 13.4739 18.1363C13.4739 19.4591 15.0743 21.8416 15.9481 23.0438H13.4239ZM14.1685 13.5321V15.5462H12.1544V13.5321H14.1685ZM16.8503 22.6585C15.789 21.2196 14.4301 19.0675 14.4301 18.1363C14.4301 16.8017 15.5158 15.7159 16.8504 15.7159C18.1849 15.7159 19.2707 16.8016 19.2707 18.1363C19.2707 19.0666 17.9117 21.2191 16.8503 22.6585Z" fill="white"/>
<path d="M16.8504 16.5955C16.0008 16.5955 15.3096 17.2866 15.3096 18.1363C15.3096 18.9859 16.0008 19.6771 16.8504 19.6771C17.7 19.6771 18.3912 18.9859 18.3912 18.1363C18.3912 17.2867 17.7 16.5955 16.8504 16.5955ZM16.8504 18.7209C16.5281 18.7209 16.2658 18.4586 16.2658 18.1362C16.2658 17.8138 16.528 17.5516 16.8504 17.5516C17.1728 17.5516 17.4351 17.8138 17.4351 18.1362C17.4351 18.4586 17.1728 18.7209 16.8504 18.7209Z" fill="white"/>
<path d="M10.5025 19.6184C10.2384 19.6184 10.0244 19.8324 10.0244 20.0965V20.1444C10.0244 20.4084 10.2384 20.6225 10.5025 20.6225C10.7665 20.6225 10.9806 20.4084 10.9806 20.1444V20.0965C10.9806 19.8325 10.7665 19.6184 10.5025 19.6184Z" fill="white"/>
</svg>
