<svg width="22" height="22" viewBox="0 0 22 22" fill="none" xmlns="http://www.w3.org/2000/svg">
<path d="M11.0003 9.53336C12.4156 9.53336 13.5669 8.38166 13.5669 6.96669C13.5669 5.55172 12.4156 4.40002 11.0003 4.40002C9.58493 4.40002 8.43359 5.55172 8.43359 6.96669C8.43359 8.38166 9.58493 9.53336 11.0003 9.53336ZM11.0003 5.13336C12.0112 5.13336 12.8336 5.95579 12.8336 6.96669C12.8336 7.97759 12.0112 8.80002 11.0003 8.80002C9.98936 8.80002 9.16693 7.97759 9.16693 6.96669C9.16693 5.95579 9.98936 5.13336 11.0003 5.13336Z" fill="white"/>
<path d="M10.9349 20.0776L16.5599 11.9533C18.6697 9.14063 18.3647 4.51733 15.9069 2.05993C14.5788 0.7315 12.813 0 10.9349 0C9.05684 0 7.29097 0.7315 5.9629 2.05957C3.50513 4.51697 3.20007 9.14027 5.30143 11.942L10.9349 20.0776ZM6.48137 2.57803C7.6712 1.38857 9.25264 0.733333 10.9349 0.733333C12.6172 0.733333 14.1986 1.38857 15.3884 2.57803C17.6068 4.796 17.8799 8.9716 15.9652 11.5243L10.9349 18.7891L5.89653 11.5133C3.98987 8.9716 4.2634 4.796 6.48137 2.57803Z" fill="white"/>
<path d="M15.4429 15.7692C15.2412 15.7447 15.0594 15.8891 15.0359 16.0904C15.0124 16.2917 15.1562 16.474 15.3571 16.4974C19.213 16.9514 21.2667 18.1746 21.2667 18.8833C21.2667 19.8785 17.3609 21.2667 11 21.2667C4.63907 21.2667 0.733333 19.8785 0.733333 18.8833C0.733333 18.1746 2.78703 16.9514 6.6429 16.4974C6.84383 16.474 6.98757 16.2914 6.9641 16.0904C6.94027 15.8891 6.7584 15.7439 6.5571 15.7692C2.69647 16.2239 0 17.5043 0 18.8833C0 20.4321 3.7785 22 11 22C18.2215 22 22 20.4321 22 18.8833C22 17.5043 19.3035 16.2239 15.4429 15.7692Z" fill="white"/>
</svg>
