<?xml version="1.0" standalone="no"?>
<!DOCTYPE svg PUBLIC "-//W3C//DTD SVG 20010904//EN"
 "http://www.w3.org/TR/2001/REC-SVG-20010904/DTD/svg10.dtd">
<svg version="1.0" xmlns="http://www.w3.org/2000/svg"
 width="512.000000pt" height="512.000000pt" viewBox="0 0 512.000000 512.000000"
 preserveAspectRatio="xMidYMid meet">
<metadata>
Created by potrace 1.16, written by Peter Selinger 2001-2019
</metadata>
<g transform="translate(0.000000,512.000000) scale(0.100000,-0.100000)"
fill="#cb2026" stroke="none">
<path d="M2480 5029 c-535 -33 -1053 -247 -1464 -607 -55 -48 -73 -59 -87 -51
-10 5 -49 9 -87 9 -134 0 -207 -63 -391 -335 -106 -159 -167 -269 -236 -429
-101 -233 -178 -521 -204 -768 -16 -143 -13 -463 4 -607 32 -256 99 -505 200
-737 69 -160 130 -270 236 -429 181 -268 257 -335 385 -335 35 0 74 4 87 9 21
8 32 2 83 -42 360 -313 771 -510 1226 -586 496 -83 995 -19 1448 188 718 326
1239 984 1395 1759 38 193 48 321 42 564 -7 313 -47 521 -153 805 -307 825
-1047 1427 -1927 1568 -86 14 -374 37 -417 33 -8 0 -71 -4 -140 -9z m490 -204
c244 -35 453 -101 685 -215 238 -117 414 -241 600 -425 313 -309 526 -694 624
-1128 43 -194 55 -301 54 -502 -1 -267 -32 -458 -115 -713 -188 -573 -597
-1047 -1143 -1324 -221 -112 -452 -185 -705 -224 -140 -22 -471 -25 -605 -6
-440 63 -823 228 -1166 504 l-100 80 170 173 c178 180 203 214 216 307 11 71
-15 143 -84 236 -205 276 -307 542 -330 860 -28 391 80 748 330 1084 69 93 95
165 84 236 -13 93 -38 127 -215 307 l-171 172 71 58 c377 315 788 484 1305
539 78 8 391 -4 495 -19z m-2092 -639 c15 -8 116 -104 225 -214 230 -232 225
-222 148 -323 -246 -325 -371 -692 -371 -1089 0 -379 116 -734 340 -1045 55
-76 79 -119 80 -139 0 -25 -31 -60 -208 -237 -137 -138 -217 -210 -235 -215
-32 -7 -66 13 -101 59 l-20 27 82 83 c45 45 82 87 82 92 0 6 -28 39 -63 73
l-63 62 -74 -75 c-41 -41 -78 -74 -82 -73 -17 6 -114 172 -184 313 -117 238
-202 522 -235 790 -16 129 -16 441 0 570 33 268 118 552 235 790 70 141 167
307 184 313 4 1 41 -32 82 -73 l74 -75 63 62 c35 34 63 67 63 73 0 6 -36 46
-80 90 -44 44 -80 83 -80 86 0 14 54 71 74 79 29 12 34 12 64 -4z"/>
<path d="M2730 4590 l0 -90 95 0 95 0 0 90 0 90 -95 0 -95 0 0 -90z"/>
<path d="M2550 4235 l0 -95 95 0 95 0 0 95 0 95 -95 0 -95 0 0 -95z"/>
<path d="M4140 3935 l-65 -65 68 -68 67 -67 67 67 68 68 -65 65 c-35 36 -67
65 -70 65 -3 0 -35 -29 -70 -65z"/>
<path d="M2513 3969 c-599 -55 -1105 -495 -1242 -1079 -98 -415 -8 -842 248
-1185 360 -481 1008 -680 1582 -486 497 168 860 596 944 1116 19 115 19 335 0
450 -74 456 -368 852 -780 1049 -230 110 -499 159 -752 135z m307 -194 c530
-81 935 -470 1037 -995 22 -113 22 -327 0 -440 -91 -467 -437 -844 -887 -964
-371 -100 -755 -27 -1060 201 -25 19 -78 66 -119 106 -481 468 -497 1233 -36
1716 284 298 675 436 1065 376z"/>
<path d="M2535 3596 c-98 -46 -155 -134 -155 -241 0 -150 114 -266 264 -267
154 -1 269 109 269 260 1 117 -55 207 -157 253 -60 27 -158 25 -221 -5z m173
-192 c27 -31 28 -63 2 -97 -26 -33 -63 -41 -99 -23 -61 32 -55 119 10 145 32
13 59 5 87 -25z"/>
<path d="M2574 2910 c-185 -39 -311 -226 -276 -410 22 -122 90 -211 202 -263
56 -27 75 -31 145 -30 108 0 179 28 248 96 87 87 123 190 106 312 -15 115
-108 234 -212 273 -65 25 -157 34 -213 22z m145 -198 c19 -9 48 -34 65 -55 26
-33 31 -47 31 -97 0 -50 -5 -64 -31 -97 -59 -74 -136 -92 -215 -50 -118 63
-118 231 0 294 53 27 103 29 150 5z"/>
<path d="M1756 2810 c-106 -41 -168 -134 -168 -249 0 -83 20 -132 75 -189 168
-172 457 -53 457 188 0 191 -187 319 -364 250z m151 -192 c30 -28 31 -83 1
-115 -57 -61 -167 14 -127 89 28 52 86 64 126 26z"/>
<path d="M3357 2816 c-132 -49 -205 -177 -177 -310 36 -175 225 -265 386 -184
191 95 191 381 -1 477 -58 29 -154 37 -208 17z m137 -197 c57 -45 19 -139 -56
-139 -36 0 -78 43 -78 80 0 37 42 80 78 80 16 0 41 -9 56 -21z"/>
<path d="M2599 2029 c-126 -20 -219 -132 -219 -264 0 -151 116 -265 270 -265
156 1 264 112 263 272 -1 166 -144 284 -314 257z m109 -215 c26 -30 28 -61 6
-92 -46 -66 -143 -36 -144 44 0 77 85 107 138 48z"/>
<path d="M3767 3812 l-67 -68 63 -62 c34 -34 67 -62 73 -62 13 0 124 112 124
126 0 5 -28 38 -63 72 l-63 62 -67 -68z"/>
<path d="M4230 2560 l0 -90 95 0 95 0 0 90 0 90 -95 0 -95 0 0 -90z"/>
<path d="M4580 2385 l0 -95 95 0 95 0 0 95 0 95 -95 0 -95 0 0 -95z"/>
<path d="M3767 1442 c-31 -32 -57 -62 -57 -68 0 -5 28 -38 63 -72 l63 -62 62
63 c34 34 62 67 62 72 0 13 -112 125 -125 125 -6 0 -36 -26 -68 -58z"/>
<path d="M3890 1065 l-65 -65 68 -68 67 -67 67 67 68 68 -65 65 c-35 36 -67
65 -70 65 -3 0 -35 -29 -70 -65z"/>
<path d="M2550 885 l0 -95 95 0 95 0 0 95 0 95 -95 0 -95 0 0 -95z"/>
<path d="M2380 530 l0 -90 90 0 90 0 0 90 0 90 -90 0 -90 0 0 -90z"/>
<path d="M957 3752 c-31 -32 -57 -62 -57 -68 0 -5 28 -38 63 -72 l63 -62 62
63 c34 34 62 67 62 72 0 13 -112 125 -125 125 -6 0 -36 -26 -68 -58z"/>
<path d="M640 3478 c-268 -565 -268 -1271 0 -1835 32 -68 61 -123 64 -123 12
0 156 83 156 89 0 5 -22 55 -49 112 -247 524 -247 1154 0 1678 27 57 49 107
49 112 0 6 -144 89 -156 89 -3 0 -32 -55 -64 -122z"/>
<path d="M962 1507 c-34 -34 -62 -67 -62 -72 0 -13 112 -125 125 -125 13 0
125 112 125 126 0 5 -28 38 -63 72 l-63 62 -62 -63z"/>
</g>
</svg>
