<?xml version="1.0" standalone="no"?>
<!DOCTYPE svg PUBLIC "-//W3C//DTD SVG 20010904//EN"
 "http://www.w3.org/TR/2001/REC-SVG-20010904/DTD/svg10.dtd">
<svg version="1.0" xmlns="http://www.w3.org/2000/svg"
 width="512.000000pt" height="512.000000pt" viewBox="0 0 512.000000 512.000000"
 preserveAspectRatio="xMidYMid meet">

<g transform="translate(0.000000,512.000000) scale(0.100000,-0.100000)"
fill="#cb2026" stroke="none">
<path d="M2595 4930 c-398 -24 -796 -154 -1128 -368 -37 -24 -74 -54 -83 -67
-29 -44 8 -105 65 -105 13 0 68 27 121 60 318 197 663 306 1040 329 638 40
1263 -199 1714 -654 51 -52 104 -99 117 -103 53 -20 111 35 94 88 -11 33 -196
216 -310 306 -469 370 -1039 550 -1630 514z"/>
<path d="M2692 4427 c-55 -58 6 -147 79 -117 71 30 51 140 -26 140 -20 0 -39
-8 -53 -23z"/>
<path d="M1165 4332 c-42 -26 -210 -204 -286 -301 l-62 -81 -201 0 c-140 0
-208 -4 -226 -13 -29 -15 -75 -92 -142 -241 -329 -726 -329 -1546 0 -2272 67
-149 113 -226 142 -241 18 -9 86 -13 226 -13 l201 0 63 -82 c132 -172 356
-376 567 -517 585 -390 1362 -490 2046 -265 111 37 137 56 137 102 0 28 -42
72 -70 72 -11 0 -69 -15 -128 -34 -242 -78 -436 -108 -692 -108 -199 1 -349
18 -525 61 -431 106 -849 357 -1133 681 l-74 85 72 6 c63 5 76 9 97 33 22 26
23 33 23 209 l0 183 -56 108 c-97 188 -153 348 -191 549 -24 130 -24 484 0
614 38 201 94 361 191 549 l56 108 0 183 c0 177 -1 183 -24 210 -21 24 -32 28
-95 31 l-71 4 33 41 c17 23 78 90 135 148 108 113 119 136 85 177 -26 31 -63
36 -98 14z m-115 -649 l0 -117 -64 -130 c-140 -284 -206 -566 -206 -876 0
-310 66 -592 206 -876 l64 -130 0 -117 0 -117 -293 0 -294 0 -60 128 c-117
247 -187 479 -230 767 -24 167 -24 523 0 690 43 288 113 520 230 768 l60 127
294 0 293 0 0 -117z"/>
<path d="M448 3169 c-29 -16 -39 -46 -59 -168 -32 -196 -43 -419 -30 -603 14
-211 44 -394 69 -427 27 -37 74 -40 108 -6 22 22 25 32 20 63 -42 236 -49 314
-49 532 0 218 7 296 49 532 5 31 2 41 -19 62 -27 27 -60 33 -89 15z"/>
<path d="M3385 4320 c-49 -19 -64 -82 -30 -120 24 -26 79 -26 105 0 53 53 -6
148 -75 120z"/>
<path d="M2696 4169 c-34 -27 -36 -77 -3 -107 49 -46 121 -14 121 53 0 67 -64
96 -118 54z"/>
<path d="M3262 4057 c-31 -33 -29 -80 4 -106 46 -36 94 -23 113 29 26 77 -62
135 -117 77z"/>
<path d="M3988 3906 c-58 -44 -30 -136 41 -136 34 0 71 39 71 74 0 59 -67 96
-112 62z"/>
<path d="M4602 3897 c-31 -33 -27 -64 14 -133 186 -304 289 -586 336 -919 19
-137 16 -466 -5 -605 -103 -661 -476 -1227 -1035 -1573 -126 -78 -135 -87
-135 -127 0 -40 29 -70 66 -70 79 0 377 211 572 405 394 391 631 887 690 1444
47 440 -37 907 -236 1303 -54 108 -159 277 -179 288 -31 17 -65 11 -88 -13z"/>
<path d="M2530 3865 c-519 -99 -913 -450 -1055 -939 -37 -131 -49 -215 -49
-366 0 -151 12 -235 49 -366 106 -365 363 -666 710 -830 105 -50 228 -87 363
-110 116 -20 345 -14 462 11 580 126 1003 606 1049 1189 52 667 -390 1256
-1049 1401 -105 23 -381 29 -480 10z m403 -150 c405 -71 749 -345 896 -715
225 -568 -12 -1203 -555 -1482 -530 -273 -1186 -97 -1512 405 -454 702 -46
1641 779 1791 101 19 289 19 392 1z"/>
<path d="M2677 3586 c-99 -36 -152 -115 -145 -220 6 -102 62 -170 162 -197
128 -35 266 75 266 211 0 93 -70 184 -161 210 -45 13 -76 12 -122 -4z m107
-157 c35 -28 33 -73 -6 -102 -24 -18 -30 -18 -57 -7 -50 20 -55 95 -9 118 33
16 42 14 72 -9z"/>
<path d="M2115 3351 c-122 -31 -190 -140 -164 -262 20 -91 116 -169 209 -169
139 0 247 141 210 274 -30 108 -152 183 -255 157z m98 -173 c24 -28 21 -55 -8
-83 -37 -38 -87 -28 -105 21 -27 69 63 119 113 62z"/>
<path d="M3267 3346 c-95 -26 -164 -126 -155 -225 14 -141 157 -235 284 -186
101 39 150 115 142 225 -10 134 -138 222 -271 186z m115 -169 c14 -22 8 -67
-12 -87 -26 -26 -58 -25 -87 2 -39 36 -25 93 27 110 18 6 62 -9 72 -25z"/>
<path d="M2650 3019 c-112 -22 -248 -118 -306 -215 -89 -150 -89 -338 0 -488
89 -152 291 -246 467 -219 230 36 399 232 399 463 0 295 -269 516 -560 459z
m236 -175 c232 -118 231 -451 -2 -569 -51 -26 -70 -30 -139 -30 -98 1 -163 26
-223 88 -127 131 -129 320 -4 450 94 99 245 123 368 61z"/>
<path d="M1840 2759 c-120 -48 -173 -199 -108 -310 99 -169 348 -132 397 58
24 89 -24 196 -108 240 -48 25 -134 30 -181 12z m124 -154 c26 -27 29 -56 8
-84 -27 -36 -77 -36 -104 0 -32 43 -3 99 52 99 16 0 35 -7 44 -15z"/>
<path d="M3474 2751 c-72 -33 -124 -117 -124 -203 0 -53 48 -138 97 -172 85
-59 207 -44 278 35 44 49 56 80 57 144 1 86 -46 161 -125 199 -46 21 -132 20
-183 -3z m141 -151 c38 -42 9 -110 -47 -110 -35 0 -68 32 -68 65 0 56 77 86
115 45z"/>
<path d="M2075 2171 c-88 -40 -143 -137 -129 -229 9 -60 59 -131 113 -159 77
-40 188 -27 250 30 31 29 71 114 71 152 0 157 -166 270 -305 206z m138 -163
c38 -52 -9 -111 -75 -95 -28 7 -51 48 -41 74 21 59 80 69 116 21z"/>
<path d="M3229 2163 c-126 -65 -159 -224 -66 -329 49 -57 99 -77 177 -72 114
6 190 78 198 188 5 71 -10 120 -51 167 -67 76 -164 93 -258 46z m139 -139 c15
-10 22 -25 22 -46 0 -42 -25 -68 -66 -68 -57 0 -85 69 -44 110 24 24 57 26 88
4z"/>
<path d="M2655 1927 c-91 -43 -131 -114 -123 -218 13 -179 239 -259 365 -129
165 169 -30 448 -242 347z m133 -147 c43 -41 16 -112 -43 -112 -58 0 -86 71
-45 112 26 26 60 25 88 0z"/>
<path d="M3790 3710 c-11 -11 -20 -33 -20 -49 0 -71 80 -101 127 -47 28 33 29
56 2 90 -26 33 -79 36 -109 6z"/>
<path d="M1621 1529 c-79 -31 -58 -139 26 -139 54 0 92 70 60 111 -11 14 -51
40 -59 38 -2 0 -14 -5 -27 -10z"/>
<path d="M1418 1336 c-39 -30 -40 -92 0 -122 45 -34 112 3 112 62 0 57 -68 94
-112 60z"/>
<path d="M2125 1165 c-30 -30 -32 -64 -4 -99 27 -34 71 -35 104 -1 14 13 25
36 25 50 0 33 -42 75 -75 75 -14 0 -37 -11 -50 -25z"/>
<path d="M2691 1054 c-12 -15 -21 -38 -21 -51 0 -32 42 -73 75 -73 33 0 75 42
75 75 0 14 -11 37 -25 50 -33 34 -77 33 -104 -1z"/>
<path d="M2026 921 c-42 -46 -8 -124 53 -124 64 0 96 78 51 123 -26 26 -81 26
-104 1z"/>
<path d="M2696 797 c-31 -31 -33 -65 -5 -101 28 -36 80 -36 108 0 39 50 16
108 -46 120 -26 5 -37 1 -57 -19z"/>
</g>
</svg>
