<?xml version="1.0" standalone="no"?>
<!DOCTYPE svg PUBLIC "-//W3C//DTD SVG 20010904//EN"
 "http://www.w3.org/TR/2001/REC-SVG-20010904/DTD/svg10.dtd">
<svg version="1.0" xmlns="http://www.w3.org/2000/svg"
 width="512.000000pt" height="512.000000pt" viewBox="0 0 512.000000 512.000000"
 preserveAspectRatio="xMidYMid meet">

<g transform="translate(0.000000,512.000000) scale(0.100000,-0.100000)"
fill="#cb2026" stroke="none">
<path d="M730 3755 l-175 -175 -247 0 c-135 0 -254 -3 -263 -6 -46 -18 -45 -4
-45 -1014 0 -1010 -1 -996 45 -1014 9 -3 119 -6 245 -6 l228 0 13 -37 c67
-208 251 -326 469 -301 152 17 301 142 345 291 l12 42 93 0 93 0 16 -45 c48
-135 144 -230 278 -274 59 -20 172 -22 234 -6 139 38 252 144 294 278 l17 52
691 -2 690 -3 17 -51 c59 -174 217 -286 401 -286 89 0 163 23 237 72 85 57
138 128 171 233 l13 37 228 0 c126 0 236 3 245 6 43 17 45 40 45 504 l0 442
-186 446 c-103 246 -189 453 -191 460 -4 9 20 12 101 12 l106 0 0 -85 0 -85
85 0 85 0 0 135 c0 141 -10 185 -45 199 -9 3 -551 6 -1203 6 l-1187 0 -175
175 -175 175 -715 0 -715 0 -175 -175z m1622 -82 c43 -43 78 -81 78 -85 0 -5
-364 -8 -810 -8 -445 0 -810 3 -810 7 0 4 35 43 77 85 l78 78 655 0 655 0 77
-77z m-2010 -664 l3 -401 28 -24 28 -24 1718 0 1717 0 525 -75 c288 -41 539
-77 557 -80 l32 -6 0 -174 0 -175 -85 0 -85 0 0 -85 0 -85 85 0 85 0 0 -85 0
-85 -175 0 c-158 0 -176 2 -182 17 -19 58 -58 132 -88 169 -89 108 -255 170
-390 145 -169 -31 -291 -142 -349 -313 -5 -17 -47 -18 -695 -18 l-689 0 -16
46 c-21 62 -69 135 -115 177 -170 153 -429 148 -588 -11 -50 -50 -113 -158
-113 -194 0 -16 -10 -18 -100 -18 -90 0 -100 2 -100 18 0 36 -63 144 -113 194
-159 159 -418 164 -588 11 -46 -42 -94 -115 -115 -177 l-16 -46 -174 0 -174 0
0 85 0 85 145 0 c142 0 147 1 170 25 25 24 25 25 25 227 -1 144 -4 208 -13
219 -25 33 -55 39 -191 39 l-136 0 0 510 0 510 85 0 84 0 3 -401z m848 61 l0
-340 -340 0 -340 0 0 340 0 340 340 0 340 0 0 -340z m860 0 l0 -340 -340 0
-340 0 0 340 0 340 340 0 340 0 0 -340z m850 0 l0 -340 -340 0 -340 0 0 340 0
340 340 0 340 0 0 -340z m850 0 l0 -340 -340 0 -340 0 0 340 0 340 340 0 340
0 0 -340z m976 -75 c94 -225 171 -411 170 -412 -1 -2 -875 122 -933 132 l-33
6 0 345 0 344 312 -2 312 -3 172 -410z m-4386 -860 l0 -85 -85 0 -85 0 0 85 0
85 85 0 85 0 0 -85z m705 -284 c87 -38 144 -126 145 -221 0 -87 -16 -127 -74
-186 -59 -58 -99 -74 -186 -74 -210 1 -323 263 -182 424 70 79 193 102 297 57z
m1032 -3 c91 -42 153 -158 138 -256 -19 -132 -122 -222 -252 -222 -153 0 -263
121 -250 276 14 177 200 281 364 202z m2220 0 c187 -93 180 -372 -12 -459 -45
-21 -130 -24 -189 -8 -52 14 -141 103 -155 155 -6 21 -11 64 -11 94 1 184 199
301 367 218z"/>
<path d="M2560 1965 l0 -85 170 0 170 0 0 85 0 85 -170 0 -170 0 0 -85z"/>
<path d="M3240 1965 l0 -85 170 0 170 0 0 85 0 85 -170 0 -170 0 0 -85z"/>
<path d="M904 1696 c-34 -15 -58 -63 -47 -94 22 -63 94 -82 138 -37 65 64 -7
167 -91 131z"/>
<path d="M1940 1703 c-89 -33 -72 -164 22 -163 41 1 65 18 79 58 14 41 -9 86
-52 101 -18 6 -32 11 -33 10 -1 0 -8 -3 -16 -6z"/>
<path d="M4160 1703 c-61 -22 -79 -95 -35 -138 44 -45 116 -26 138 37 11 32
-14 79 -49 94 -18 8 -35 14 -36 13 -2 0 -10 -3 -18 -6z"/>
</g>
</svg>
