<?xml version="1.0" standalone="no"?>
<!DOCTYPE svg PUBLIC "-//W3C//DTD SVG 20010904//EN"
 "http://www.w3.org/TR/2001/REC-SVG-20010904/DTD/svg10.dtd">
<svg version="1.0" xmlns="http://www.w3.org/2000/svg"
 width="512.000000pt" height="512.000000pt" viewBox="0 0 512.000000 512.000000"
 preserveAspectRatio="xMidYMid meet">
<metadata>
Created by potrace 1.16, written by Peter Selinger 2001-2019
</metadata>
<g transform="translate(0.000000,512.000000) scale(0.100000,-0.100000)"
fill="#cb2026" stroke="none">
<path d="M1433 5105 c-43 -19 -118 -89 -133 -125 l-12 -30 -473 0 c-441 0
-476 -1 -528 -19 -108 -37 -201 -122 -254 -230 l-28 -56 0 -1826 0 -1825 37
-75 c46 -93 112 -158 206 -202 l67 -32 738 -3 737 -3 0 -23 c0 -37 20 -88 50
-127 27 -34 28 -39 32 -190 3 -148 4 -156 33 -208 16 -29 43 -64 60 -77 65
-49 91 -54 298 -54 188 0 195 1 245 26 104 52 142 129 142 291 l0 103 765 0
765 0 0 -106 c0 -129 12 -172 62 -229 69 -78 95 -85 323 -85 226 0 253 7 320
82 58 64 65 90 65 253 l0 145 33 43 c58 76 58 83 55 637 l-3 505 -33 67 c-19
40 -49 81 -74 102 -42 36 -42 38 13 50 53 11 122 69 151 125 23 44 28 66 28
124 0 86 -23 139 -82 192 -61 55 -93 65 -215 65 -93 0 -115 -4 -159 -24 -28
-13 -55 -30 -59 -37 -5 -7 -31 65 -65 179 -32 105 -70 212 -84 236 -34 59 -97
111 -165 138 -53 21 -73 23 -378 26 l-323 3 0 824 c0 572 -3 840 -11 877 -28
129 -115 240 -236 300 l-68 33 -491 3 -492 3 -6 22 c-9 38 -64 94 -118 121
l-52 26 -325 0 c-256 -1 -333 -4 -358 -15z m665 -181 c14 -9 24 -30 28 -56 11
-66 40 -91 112 -96 l62 -4 0 -49 c0 -36 -6 -55 -24 -76 l-24 -28 -446 -3
c-502 -3 -496 -4 -515 66 -6 20 -11 49 -11 65 0 25 3 27 44 27 67 0 106 18
122 56 8 18 14 41 14 51 0 9 10 27 22 40 l21 23 287 0 c242 0 289 -2 308 -16z
m-998 -191 c1 -21 5 -57 9 -80 l8 -43 -291 0 c-285 0 -292 -1 -341 -24 -60
-28 -97 -66 -124 -126 -20 -45 -21 -57 -21 -1646 l0 -1600 26 -52 c14 -29 42
-65 62 -82 74 -61 65 -60 744 -60 l618 0 0 -80 0 -80 -707 0 -708 0 -51 24
c-59 27 -116 90 -132 145 -9 28 -12 491 -12 1795 0 1485 2 1762 14 1790 20 48
80 111 129 135 40 20 57 21 410 21 l367 0 0 -37z m2171 9 c59 -30 111 -95 129
-160 6 -24 10 -329 10 -854 l0 -818 -80 0 -79 0 -3 758 -3 757 -22 41 c-29 54
-101 117 -151 132 -26 8 -134 12 -322 12 l-282 0 6 23 c3 12 6 48 6 80 l0 57
369 0 369 0 53 -28z m-227 -343 l26 -31 0 -728 0 -728 -242 -4 c-238 -3 -244
-4 -299 -29 -68 -32 -132 -88 -163 -143 -13 -23 -47 -122 -77 -221 -29 -99
-53 -181 -54 -183 -1 -1 -28 11 -60 28 -53 28 -64 30 -166 30 -154 0 -219 -30
-272 -128 -59 -108 -43 -227 42 -312 33 -33 63 -52 92 -60 24 -7 50 -14 57
-16 7 -2 -7 -21 -33 -45 -24 -23 -57 -67 -72 -98 -28 -56 -28 -57 -31 -293
l-3 -238 -610 0 -610 0 -24 25 -25 24 0 1566 0 1566 25 24 24 25 1225 0 1224
0 26 -31z m1199 -1698 c21 -13 45 -34 54 -48 9 -13 55 -154 103 -314 l87 -289
-1074 0 c-886 0 -1074 2 -1070 13 3 7 42 137 87 288 96 321 110 347 205 370
17 4 377 7 800 6 l770 -2 38 -24z m-2158 -497 c25 -10 45 -58 45 -109 l0 -45
-87 0 c-99 0 -131 12 -151 54 -16 31 -2 79 27 96 18 11 141 13 166 4z m2832
-16 c23 -21 30 -59 17 -93 -12 -30 -60 -45 -149 -45 l-85 0 0 55 c0 46 4 60
25 80 21 22 33 25 96 25 61 0 76 -4 96 -22z m-216 -409 c95 -71 125 -100 140
-133 17 -38 19 -72 19 -513 l0 -472 -24 -28 -24 -28 -157 0 -157 0 -51 130
c-47 118 -57 136 -113 192 -52 53 -70 64 -130 82 -69 21 -81 22 -814 19 -742
-3 -745 -3 -792 -25 -111 -51 -153 -104 -224 -284 l-48 -119 -143 0 c-145 0
-175 6 -200 39 -9 12 -12 134 -13 496 0 437 2 483 18 515 11 22 60 67 137 127
l120 92 1168 1 1168 0 120 -91z m-546 -948 c56 -26 79 -54 114 -144 17 -43 31
-80 31 -82 0 -3 -398 -5 -885 -5 -487 0 -885 4 -885 8 0 15 51 136 71 169 11
17 39 41 62 52 41 21 52 21 747 21 664 0 707 -2 745 -19z m-1685 -506 c0 -88
-2 -98 -25 -120 -23 -24 -28 -25 -179 -25 -85 0 -162 3 -171 6 -30 12 -45 60
-45 149 l0 85 210 0 210 0 0 -95z m2300 -2 c0 -86 -3 -99 -22 -120 -21 -22
-27 -23 -182 -23 -150 0 -161 1 -183 22 -21 20 -23 30 -23 120 l0 98 205 0
205 0 0 -97z"/>
<path d="M936 4086 c-85 -32 -148 -105 -166 -193 -17 -80 -8 -276 14 -328 23
-55 71 -103 131 -131 45 -22 63 -24 195 -24 131 0 150 2 195 24 55 25 108 80
134 135 22 51 22 320 -1 372 -22 50 -74 106 -122 132 -36 19 -59 22 -191 24
-112 2 -160 -1 -189 -11z m311 -190 c28 -24 28 -25 28 -141 0 -116 0 -117 -28
-141 -26 -22 -36 -24 -137 -24 -101 0 -111 2 -137 24 -28 24 -28 25 -28 141 0
116 0 117 28 141 26 22 36 24 137 24 101 0 111 -2 137 -24z"/>
<path d="M1685 4013 c-64 -16 -89 -107 -42 -151 23 -22 23 -22 533 -22 l511 0
22 24 c33 35 31 90 -3 125 l-26 26 -488 2 c-268 0 -496 -1 -507 -4z"/>
<path d="M1641 3644 c-30 -38 -28 -94 5 -125 l26 -24 276 -3 c249 -2 280 -1
311 15 56 29 66 98 21 143 -19 19 -35 20 -319 20 l-300 0 -20 -26z"/>
<path d="M915 3136 c-68 -31 -120 -92 -141 -162 -21 -73 -16 -289 8 -345 22
-50 74 -106 122 -132 35 -18 61 -22 183 -25 111 -3 153 0 190 12 65 22 118 67
151 130 25 49 26 58 27 201 0 167 -7 192 -66 260 -19 21 -56 49 -84 61 -45 22
-64 24 -195 24 -131 0 -150 -2 -195 -24z m331 -179 c24 -21 28 -32 32 -105 6
-101 -3 -148 -33 -178 -22 -22 -31 -24 -134 -24 -102 0 -112 2 -138 24 -28 24
-28 26 -28 139 0 108 1 117 24 141 24 25 29 26 137 26 104 0 115 -2 140 -23z"/>
<path d="M1680 3073 c-62 -24 -81 -103 -35 -148 l24 -25 251 0 251 0 24 25
c35 34 34 93 -1 126 -25 24 -27 24 -262 26 -130 1 -244 -1 -252 -4z"/>
<path d="M1685 2733 c-64 -16 -89 -107 -42 -151 22 -21 31 -22 235 -22 198 0
213 1 232 20 27 27 35 65 19 101 -21 51 -55 59 -251 58 -95 -1 -182 -3 -193
-6z"/>
<path d="M925 2205 c-22 -8 -61 -36 -87 -63 -66 -70 -81 -127 -76 -291 4 -147
22 -197 91 -256 58 -50 118 -65 257 -65 187 0 261 35 317 148 27 55 28 63 28
202 0 132 -2 149 -23 192 -29 58 -97 120 -150 136 -56 17 -307 15 -357 -3z
m325 -190 c21 -22 24 -38 28 -113 4 -103 -11 -160 -48 -180 -17 -9 -58 -12
-132 -10 -96 3 -110 5 -130 26 -21 21 -23 31 -23 136 0 107 2 116 24 140 24
25 29 26 141 26 112 0 118 -1 140 -25z"/>
<path d="M2215 1687 c-22 -12 -50 -40 -63 -62 -20 -36 -22 -51 -20 -145 3
-117 18 -159 73 -215 63 -62 92 -70 270 -70 178 0 206 8 273 76 97 99 96 264
-4 363 -66 67 -105 76 -313 76 -164 0 -179 -2 -216 -23z m400 -183 c27 -30 31
-51 14 -87 -17 -37 -50 -47 -155 -47 -135 0 -163 19 -164 108 l0 52 140 0
c140 0 141 0 165 -26z"/>
<path d="M3085 1696 c-41 -19 -83 -66 -95 -107 -6 -18 -10 -83 -10 -144 0
-119 15 -169 61 -212 44 -40 70 -43 373 -43 283 0 293 1 336 23 25 12 55 37
67 56 21 31 23 45 23 178 0 162 -6 184 -67 230 l-36 28 -311 2 c-245 2 -317 0
-341 -11z m575 -246 l0 -80 -250 0 -250 0 0 80 0 80 250 0 250 0 0 -80z"/>
<path d="M4176 1695 c-142 -50 -209 -225 -140 -363 31 -62 81 -106 147 -128
37 -12 79 -15 190 -12 122 3 148 7 183 25 59 31 110 93 128 154 18 59 21 166
6 219 -11 41 -61 94 -103 109 -43 16 -363 13 -411 -4z m344 -216 c0 -43 -5
-55 -29 -80 -29 -29 -31 -29 -141 -29 -104 0 -112 1 -135 25 -16 15 -25 36
-25 55 0 19 9 40 25 55 23 24 29 25 165 25 l140 0 0 -51z"/>
</g>
</svg>
