<?xml version="1.0" standalone="no"?>
<!DOCTYPE svg PUBLIC "-//W3C//DTD SVG 20010904//EN"
 "http://www.w3.org/TR/2001/REC-SVG-20010904/DTD/svg10.dtd">
<svg version="1.0" xmlns="http://www.w3.org/2000/svg"
 width="512.000000pt" height="512.000000pt" viewBox="0 0 512.000000 512.000000"
 preserveAspectRatio="xMidYMid meet">
<metadata>
Created by potrace 1.16, written by Peter Selinger 2001-2019
</metadata>
<g transform="translate(0.000000,512.000000) scale(0.100000,-0.100000)"
fill="#cb2026" stroke="none">
<path d="M559 5092 c-60 -31 -111 -96 -129 -163 -7 -26 -10 -230 -8 -602 3
-554 3 -563 25 -602 28 -53 78 -99 133 -124 43 -19 65 -21 413 -21 l367 0 0
-143 0 -143 -82 -24 c-183 -52 -362 -150 -406 -222 -11 -18 -45 -121 -76 -228
-32 -107 -62 -209 -67 -227 l-10 -32 -242 -3 c-240 -3 -242 -3 -292 -30 -61
-32 -125 -97 -156 -158 -17 -34 -24 -67 -27 -137 -4 -83 -2 -97 22 -150 33
-71 101 -143 166 -173 l49 -23 -18 -36 c-47 -91 -51 -129 -51 -440 0 -168 5
-316 11 -341 30 -132 146 -278 267 -334 l62 -30 0 -255 c0 -247 1 -258 24
-306 25 -55 81 -110 132 -131 26 -11 105 -14 357 -14 l323 0 55 28 c60 30 112
91 129 150 5 20 10 140 10 270 l0 232 1020 0 1020 0 0 -232 c0 -130 5 -250 10
-270 17 -59 69 -120 129 -150 l55 -28 323 0 c252 0 331 3 357 14 51 21 107 76
132 131 23 48 24 59 24 305 l0 255 68 34 c123 64 231 200 261 331 6 25 11 173
11 341 0 311 -4 349 -51 440 l-18 36 51 24 c66 31 127 91 158 154 20 40 26 69
28 142 4 82 1 98 -23 150 -32 70 -93 135 -160 171 -50 27 -52 27 -292 30
l-243 3 -19 67 c-11 37 -41 139 -66 227 -26 88 -56 175 -67 193 -44 73 -230
174 -406 223 l-82 22 0 144 0 143 368 0 c363 0 367 0 417 24 28 12 67 41 87
64 67 75 68 80 68 686 0 337 -4 555 -10 578 -18 65 -70 130 -129 160 l-53 28
-1948 0 -1948 0 -53 -28z m3916 -158 c44 -17 45 -34 45 -589 l0 -527 -29 -29
-29 -29 -1902 0 -1902 0 -29 29 -29 29 0 527 c0 445 2 530 15 555 8 15 20 30
27 33 19 8 3813 8 3833 1z m-2775 -1464 c0 -60 -1 -110 -3 -110 -9 0 -124 -22
-139 -26 -17 -5 -18 5 -18 120 l0 126 80 0 80 0 0 -110z m1540 9 l0 -101 -32
6 c-224 39 -1072 39 -1295 0 l-33 -6 0 101 0 101 680 0 680 0 0 -101z m340
-19 c0 -136 8 -127 -97 -109 l-63 11 0 109 0 109 80 0 80 0 0 -120z m-570
-240 c429 -33 774 -102 955 -189 133 -65 124 -51 209 -346 70 -246 136 -493
136 -513 0 -5 -21 -6 -52 -1 -581 94 -1077 133 -1698 133 -621 0 -1117 -39
-1697 -133 -31 -5 -53 -4 -53 1 0 21 76 309 141 532 78 270 73 261 192 321
201 101 666 183 1187 209 120 6 533 -3 680 -14z m-2340 -852 c0 -21 -52 -213
-61 -224 -5 -6 -27 -14 -48 -18 -22 -3 -70 -22 -108 -42 -59 -31 -74 -35 -117
-30 -165 19 -214 211 -77 303 32 22 43 23 222 23 138 0 189 -3 189 -12z m4191
-11 c78 -53 101 -140 57 -219 -28 -49 -73 -77 -135 -85 -42 -5 -57 -1 -104 25
-30 17 -80 38 -111 47 -49 14 -58 20 -67 48 -11 36 -51 192 -51 201 0 3 85 6
189 6 179 0 190 -1 222 -23z m-1921 -237 c522 -23 1066 -82 1555 -170 79 -15
158 -63 205 -125 66 -87 70 -111 70 -420 0 -252 -2 -279 -21 -329 -26 -72 -93
-144 -166 -181 l-58 -30 -1965 0 -1965 0 -58 30 c-74 37 -140 109 -167 182
-20 54 -21 72 -18 347 l3 291 34 63 c60 111 150 166 296 181 50 6 128 17 175
25 625 110 1441 164 2080 136z m-1580 -1665 l0 -226 -25 -24 -24 -25 -290 0
-290 0 -20 26 c-20 25 -21 39 -21 250 l0 224 335 0 335 0 0 -225z m3070 1 c0
-211 -1 -225 -21 -250 l-20 -26 -290 0 -290 0 -24 25 -25 24 0 226 0 225 335
0 335 0 0 -224z"/>
<path d="M1294 4855 c-200 -43 -316 -208 -260 -370 44 -132 164 -205 365 -224
115 -11 179 -39 206 -91 56 -108 -176 -197 -323 -124 -53 26 -82 63 -82 104 0
30 -53 80 -84 80 -68 0 -103 -48 -93 -125 13 -94 88 -183 195 -233 48 -22 75
-27 165 -30 90 -4 119 -1 175 17 160 52 260 186 236 318 -28 154 -154 244
-368 263 -142 13 -226 60 -226 127 0 39 57 89 125 108 137 40 295 -31 295
-132 0 -32 42 -63 84 -63 52 0 74 14 85 58 18 67 -14 153 -82 220 -99 96 -252
132 -413 97z"/>
<path d="M2248 4849 c-38 -35 -383 -906 -374 -943 11 -44 41 -66 89 -66 57 0
68 13 121 142 l43 103 178 0 177 0 40 -100 c49 -123 67 -145 123 -145 52 0 85
31 87 81 1 38 -343 909 -367 929 -8 7 -32 14 -53 17 -31 4 -43 1 -64 -18z
m110 -452 l50 -127 -104 0 -104 0 21 53 c12 28 35 87 52 130 16 42 31 76 33
74 1 -1 25 -60 52 -130z"/>
<path d="M2839 4840 l-30 -29 3 -466 3 -467 24 -19 c21 -18 42 -19 277 -19
240 0 255 1 274 20 27 27 35 65 19 101 -20 51 -55 59 -249 59 l-170 0 0 399 0
399 -31 26 c-42 35 -82 34 -120 -4z"/>
<path d="M3543 4860 c-53 -21 -54 -33 -51 -519 l3 -449 24 -26 24 -26 254 0
254 0 24 25 c33 32 33 84 1 122 l-24 28 -191 3 -191 4 0 119 0 119 135 0 c152
0 186 10 203 58 14 40 4 79 -26 102 -22 18 -40 20 -168 20 l-144 0 0 125 0
125 190 0 191 0 24 26 c35 38 34 87 -4 125 l-29 29 -239 -1 c-131 0 -248 -4
-260 -9z"/>
<path d="M810 1786 c-115 -26 -212 -103 -266 -211 -26 -55 -29 -69 -29 -165 0
-99 2 -110 32 -171 39 -80 111 -150 191 -187 50 -24 70 -27 157 -27 91 0 106
3 165 31 79 38 151 109 188 184 24 50 27 66 27 165 0 98 -3 116 -27 167 -52
112 -159 195 -282 217 -71 13 -85 13 -156 -3z m174 -192 c74 -38 116 -104 116
-183 0 -63 -13 -97 -53 -140 -88 -93 -221 -92 -304 2 -146 167 43 420 241 321z"/>
<path d="M1792 1781 c-62 -21 -126 -78 -153 -136 -16 -35 -19 -66 -19 -236 0
-190 1 -196 26 -247 30 -61 80 -105 143 -127 67 -23 1475 -23 1542 0 63 22
113 66 143 127 25 50 26 58 26 237 0 103 -5 203 -11 224 -6 24 -31 60 -62 92
-87 89 -50 85 -871 85 -664 -1 -715 -2 -764 -19z m1502 -190 c26 -24 26 -26
26 -183 0 -155 -1 -159 -25 -183 l-24 -25 -711 0 -711 0 -24 25 c-24 24 -25
28 -25 183 0 152 1 159 23 179 12 11 29 23 37 26 8 3 329 5 712 4 l696 -2 26
-24z"/>
<path d="M4140 1787 c-118 -27 -217 -107 -268 -215 -24 -51 -27 -69 -27 -167
0 -99 3 -115 27 -165 37 -75 109 -146 188 -184 59 -28 74 -31 165 -31 93 0
105 2 166 32 132 65 209 183 217 330 5 95 -11 159 -61 237 -81 127 -256 197
-407 163z m184 -200 c114 -63 140 -215 53 -314 -81 -92 -213 -95 -301 -7 -93
94 -68 261 49 321 72 38 131 38 199 0z"/>
</g>
</svg>
