<?xml version="1.0" standalone="no"?>
<!DOCTYPE svg PUBLIC "-//W3C//DTD SVG 20010904//EN"
 "http://www.w3.org/TR/2001/REC-SVG-20010904/DTD/svg10.dtd">
<svg version="1.0" xmlns="http://www.w3.org/2000/svg"
 width="512.000000pt" height="512.000000pt" viewBox="0 0 512.000000 512.000000"
 preserveAspectRatio="xMidYMid meet">

<g transform="translate(0.000000,512.000000) scale(0.100000,-0.100000)"
fill="#cb2026" stroke="none">
<path d="M2420 4603 c-467 -44 -840 -195 -1175 -475 -161 -134 -375 -382 -391
-451 -12 -54 51 -108 108 -94 17 5 51 40 98 104 464 619 1271 890 2014 677
675 -194 1185 -746 1326 -1436 21 -104 48 -394 37 -405 -4 -3 -56 41 -116 100
-92 91 -113 107 -140 107 -45 0 -81 -38 -81 -87 0 -35 11 -48 193 -230 176
-176 196 -193 227 -193 31 0 52 17 232 198 219 219 224 227 169 283 -20 20
-39 29 -62 29 -27 0 -48 -16 -140 -107 l-109 -107 0 55 c0 198 -48 469 -120
672 -243 688 -840 1196 -1567 1332 -153 28 -373 41 -503 28z"/>
<path d="M2273 3915 c-18 -8 -37 -24 -43 -37 -5 -13 -16 -84 -25 -158 -9 -74
-18 -144 -20 -155 -3 -13 -27 -30 -72 -50 -38 -16 -102 -52 -143 -80 l-75 -51
-150 63 c-83 34 -158 63 -167 63 -10 0 -31 -12 -47 -27 -27 -27 -272 -446
-284 -488 -12 -41 17 -76 142 -169 l124 -93 0 -173 0 -173 -124 -93 c-124 -93
-154 -128 -142 -169 11 -41 257 -461 284 -487 16 -16 37 -28 47 -28 9 0 84 29
167 63 l150 63 75 -51 c41 -28 105 -64 143 -80 45 -20 69 -37 72 -50 2 -11 11
-81 20 -155 9 -74 20 -145 25 -158 20 -46 59 -52 330 -52 264 0 307 6 328 47
6 10 17 81 26 158 9 77 19 149 21 160 3 13 28 30 72 50 38 16 102 52 143 80
l75 51 150 -63 c160 -67 182 -70 221 -30 23 24 267 449 277 482 12 40 -18 76
-142 170 l-124 93 0 173 0 172 124 93 c124 93 154 128 142 169 -12 41 -257
461 -284 488 -16 15 -38 27 -48 27 -11 0 -86 -28 -167 -63 l-148 -64 -76 51
c-41 28 -105 65 -143 81 -44 20 -69 37 -72 50 -2 11 -12 83 -20 160 -17 149
-31 184 -76 196 -13 4 -139 7 -279 8 -199 0 -262 -3 -287 -14z m467 -172 c1
-5 9 -73 19 -152 15 -109 24 -148 38 -161 10 -10 53 -32 95 -50 83 -34 178
-92 242 -146 25 -21 50 -34 68 -34 16 0 89 25 163 56 75 31 137 55 139 53 1
-2 33 -58 70 -124 38 -66 77 -134 88 -152 l19 -32 -120 -90 c-66 -50 -125
-101 -132 -112 -8 -15 -8 -38 0 -83 6 -35 11 -105 11 -156 0 -51 -5 -121 -11
-156 -8 -45 -8 -68 0 -83 7 -11 66 -62 132 -112 l120 -90 -19 -32 c-11 -18
-50 -86 -88 -152 -37 -66 -69 -122 -71 -124 -1 -2 -64 21 -138 52 -74 32 -148
57 -163 57 -18 0 -46 -16 -82 -46 -65 -53 -153 -105 -241 -140 -97 -39 -98
-40 -120 -205 -10 -79 -18 -147 -19 -151 0 -5 -81 -8 -180 -8 -99 0 -180 3
-180 8 -1 4 -9 72 -19 151 -15 109 -24 148 -38 161 -10 10 -53 32 -95 50 -83
34 -178 92 -242 146 -25 22 -50 34 -68 34 -16 0 -87 -25 -158 -55 -71 -30
-132 -55 -137 -55 -4 0 -34 46 -65 103 -32 56 -71 125 -88 154 l-30 52 121 91
c66 50 125 102 131 115 7 16 7 42 -1 87 -14 82 -14 223 0 304 8 45 8 68 0 83
-7 11 -65 62 -131 111 l-120 91 30 52 c17 29 56 98 88 154 31 57 61 103 65
103 5 0 66 -25 137 -55 71 -30 142 -55 158 -55 18 0 43 12 68 34 64 54 159
112 242 146 42 18 85 40 95 50 14 13 23 52 38 161 10 79 18 147 19 152 0 4 81
7 180 7 99 0 180 -3 180 -7z"/>
<path d="M2433 3055 c-226 -61 -383 -264 -383 -495 0 -279 231 -510 510 -510
329 0 577 318 495 635 -71 272 -356 441 -622 370z m269 -187 c71 -33 133 -94
167 -167 22 -47 26 -70 26 -141 0 -102 -28 -173 -95 -240 -67 -67 -138 -95
-240 -95 -71 0 -94 4 -141 26 -280 131 -254 540 40 634 68 22 174 14 243 -17z"/>
<path d="M368 2702 c-219 -219 -224 -227 -169 -283 53 -53 77 -44 202 78 l109
106 0 -54 c0 -138 29 -347 70 -508 174 -681 725 -1249 1403 -1445 742 -215
1537 0 2063 557 89 93 201 237 215 275 28 74 -70 146 -129 95 -11 -10 -48 -56
-83 -103 -34 -47 -108 -130 -163 -186 -632 -634 -1615 -732 -2362 -235 -415
276 -704 702 -803 1188 -22 107 -49 398 -38 410 4 3 56 -41 116 -100 92 -91
113 -107 140 -107 45 0 81 38 81 87 0 35 -11 48 -193 230 -176 176 -196 193
-227 193 -31 0 -52 -17 -232 -198z"/>
</g>
</svg>
