<?xml version="1.0" standalone="no"?>
<!DOCTYPE svg PUBLIC "-//W3C//DTD SVG 20010904//EN"
 "http://www.w3.org/TR/2001/REC-SVG-20010904/DTD/svg10.dtd">
<svg version="1.0" xmlns="http://www.w3.org/2000/svg"
 width="512.000000pt" height="512.000000pt" viewBox="0 0 512.000000 512.000000"
 preserveAspectRatio="xMidYMid meet">

<g transform="translate(0.000000,512.000000) scale(0.100000,-0.100000)"
fill="#cb2026" stroke="none">
<path d="M2415 5113 c-453 -55 -828 -267 -1087 -614 -186 -247 -279 -513 -304
-862 l-6 -88 -41 -20 c-53 -27 -139 -114 -167 -168 -12 -24 -57 -149 -101
-279 -43 -131 -81 -243 -84 -251 -4 -10 -14 -7 -40 13 -59 45 -106 56 -244 56
-150 0 -202 -14 -259 -69 -57 -56 -77 -104 -77 -186 1 -79 22 -130 76 -183 55
-53 93 -66 208 -70 l104 -4 -176 -176 c-96 -98 -183 -193 -194 -212 -17 -33
-18 -72 -18 -670 0 -634 0 -635 22 -676 23 -43 79 -98 118 -116 23 -10 23 -14
27 -182 4 -190 11 -218 80 -282 74 -71 63 -69 473 -69 410 0 399 -2 473 69 68
63 76 93 80 274 l4 162 1278 0 1278 0 4 -163 c4 -180 12 -210 80 -273 74 -71
63 -69 473 -69 410 0 399 -2 473 69 69 64 76 92 80 282 4 168 4 172 27 182 39
18 95 73 118 116 22 41 22 42 22 676 0 598 -1 637 -18 670 -11 19 -98 115
-195 213 l-177 177 91 0 c110 0 167 18 218 67 59 58 80 107 81 188 0 82 -20
130 -77 186 -57 55 -109 69 -259 69 -138 0 -188 -11 -246 -56 -24 -18 -34 -22
-38 -12 -3 7 -41 119 -84 250 -44 130 -89 255 -101 279 -28 54 -114 141 -167
168 l-41 21 -6 77 c-19 240 -49 380 -117 543 -212 508 -673 863 -1216 935 -99
13 -274 17 -348 8z m420 -192 c565 -121 984 -565 1075 -1135 16 -104 14 -320
-6 -433 -44 -263 -169 -511 -356 -708 -112 -119 -230 -205 -383 -280 -221
-109 -409 -150 -650 -142 -212 7 -386 51 -569 144 -137 69 -230 136 -347 253
-265 264 -400 590 -400 964 0 198 30 352 102 526 186 446 611 769 1095 830
104 13 335 3 439 -19z m-1789 -1588 c66 -307 164 -524 321 -710 23 -28 43 -54
43 -57 0 -3 -155 -6 -345 -6 -190 0 -345 3 -345 8 0 20 231 698 246 721 22 35
56 71 66 71 4 0 10 -12 14 -27z m3099 -32 c21 -30 255 -706 255 -733 0 -5
-155 -8 -345 -8 -190 0 -345 3 -345 6 0 3 20 29 43 57 157 186 255 402 321
710 6 24 9 26 26 17 11 -6 32 -28 45 -49z m-3660 -596 c21 -20 25 -34 25 -85
l0 -60 -141 0 -141 0 -29 29 c-38 38 -38 74 0 112 29 29 31 29 146 29 110 0
117 -1 140 -25z m4436 -4 c17 -18 29 -40 29 -56 0 -16 -12 -38 -29 -56 l-29
-29 -141 0 -141 0 0 60 c0 51 4 65 25 85 23 24 30 25 140 25 115 0 117 0 146
-29z m-3294 -335 c149 -125 431 -250 658 -292 147 -28 442 -25 578 4 213 47
401 128 574 248 l93 64 478 0 478 0 232 -233 232 -233 0 -591 0 -592 -24 -28
-24 -28 -2342 0 -2342 0 -24 28 -24 28 0 592 0 591 232 233 232 233 482 0 482
0 29 -24z m-517 -1997 l0 -141 -29 -29 -29 -29 -327 0 -327 0 -29 29 -29 29 0
141 0 141 385 0 385 0 0 -141z m3670 0 l0 -141 -29 -29 -29 -29 -327 0 -327 0
-29 29 -29 29 0 141 0 141 385 0 385 0 0 -141z"/>
<path d="M1910 4500 c-53 -28 -426 -408 -444 -452 -20 -48 -20 -101 0 -141 22
-44 211 -234 256 -258 70 -36 159 -17 218 45 l24 27 93 -93 93 -92 -21 -22
c-13 -14 -28 -20 -44 -16 -39 7 -154 -17 -212 -45 -69 -32 -162 -118 -195
-180 -36 -66 -61 -159 -55 -199 7 -44 40 -90 79 -110 35 -18 114 -15 165 6 30
13 34 12 58 -10 29 -27 31 -53 9 -106 -29 -69 -5 -145 59 -185 26 -17 44 -20
103 -16 196 11 374 214 374 427 0 45 4 61 20 75 20 19 24 16 268 -227 136
-135 261 -253 279 -262 51 -26 121 -21 174 12 49 31 152 140 177 187 18 35 20
112 2 146 -7 13 -125 138 -263 276 l-251 253 63 64 63 63 83 6 c109 6 192 44
276 123 123 118 169 294 97 371 -51 55 -108 66 -189 37 -53 -19 -71 -15 -94
19 -15 23 -14 29 4 84 59 175 -92 268 -282 175 -149 -74 -247 -226 -247 -384
l0 -64 -68 -67 -67 -67 -93 93 -92 93 45 44 c24 24 51 58 60 76 19 40 19 104
1 147 -26 62 -61 81 -240 126 -183 45 -234 49 -286 21z m228 -181 c70 -18 130
-35 134 -38 4 -4 -100 -114 -232 -246 l-240 -240 -92 93 -93 92 185 185 c102
102 191 185 198 185 7 0 70 -14 140 -31z m860 -24 c-19 -90 37 -201 124 -246
49 -25 114 -34 160 -21 32 9 36 8 31 -6 -21 -56 -82 -125 -138 -155 -33 -18
-57 -22 -137 -22 l-98 0 -322 -323 -323 -322 3 -72 c3 -96 -17 -163 -69 -222
-37 -42 -84 -76 -106 -76 -5 0 -7 33 -5 73 3 65 0 77 -28 125 -53 91 -157 138
-250 114 -22 -5 -40 -8 -40 -5 0 15 38 74 69 106 62 66 102 81 213 82 l98 0
321 321 321 321 -1 87 c-1 69 3 97 19 134 23 51 68 104 115 133 47 30 54 25
43 -26z m-693 -425 l89 -90 -59 -60 -59 -60 -93 92 -93 93 57 57 c32 32 60 58
63 58 3 0 46 -40 95 -90z m695 -695 l235 -235 -60 -60 -60 -60 -240 240 -240
240 55 55 c30 30 59 55 65 55 5 0 116 -106 245 -235z"/>
<path d="M445 1862 c-88 -42 -105 -87 -105 -279 0 -81 5 -164 10 -183 11 -41
61 -94 103 -109 18 -7 160 -11 393 -11 306 0 371 2 402 15 43 19 79 50 98 87
19 36 18 122 -2 164 -16 34 -295 276 -359 312 -25 14 -67 17 -265 20 -212 2
-239 0 -275 -16z m600 -268 c77 -64 141 -122 143 -130 3 -12 -51 -14 -337 -14
l-341 0 0 130 0 130 198 0 198 0 139 -116z"/>
<path d="M1576 1865 c-112 -40 -160 -179 -93 -273 31 -44 328 -287 367 -301
47 -16 1373 -16 1420 0 38 14 333 256 366 301 70 95 14 245 -103 277 -25 7
-352 11 -978 11 -774 -1 -947 -3 -979 -15z m1919 -170 c-1 -5 -64 -63 -140
-127 l-140 -118 -654 0 -653 0 -144 121 c-80 66 -142 124 -139 130 9 13 1870
7 1870 -6z"/>
<path d="M4157 1866 c-21 -8 -46 -21 -55 -28 -9 -8 -83 -70 -163 -136 -159
-132 -181 -162 -181 -242 0 -75 40 -134 114 -165 31 -13 96 -15 402 -15 233 0
375 4 393 11 42 15 92 68 103 109 5 19 10 102 10 183 0 192 -17 238 -105 278
-35 16 -67 19 -260 18 -160 0 -230 -4 -258 -13z m453 -286 l0 -130 -341 0
c-289 0 -340 2 -337 14 2 8 66 66 143 130 l140 116 198 0 197 0 0 -130z"/>
<path d="M451 994 c-29 -37 -27 -85 5 -115 l26 -24 301 -3 c166 -2 317 0 335
3 47 9 72 37 72 83 0 27 -7 45 -23 60 -23 22 -28 22 -359 22 l-337 0 -20 -26z"/>
<path d="M1731 994 c-29 -37 -27 -85 5 -115 l26 -24 798 0 798 0 26 24 c32 30
34 78 5 115 l-20 26 -809 0 -809 0 -20 -26z"/>
<path d="M3952 997 c-28 -30 -30 -89 -3 -116 11 -11 35 -23 53 -26 18 -3 169
-5 335 -3 l301 3 26 24 c32 30 34 78 5 115 l-20 26 -338 0 -338 0 -21 -23z"/>
</g>
</svg>
