<?xml version="1.0" standalone="no"?>
<!DOCTYPE svg PUBLIC "-//W3C//DTD SVG 20010904//EN"
 "http://www.w3.org/TR/2001/REC-SVG-20010904/DTD/svg10.dtd">
<svg version="1.0" xmlns="http://www.w3.org/2000/svg"
 width="512.000000pt" height="512.000000pt" viewBox="0 0 512.000000 512.000000"
 preserveAspectRatio="xMidYMid meet">
<metadata>
Created by potrace 1.16, written by Peter Selinger 2001-2019
</metadata>
<g transform="translate(0.000000,512.000000) scale(0.100000,-0.100000)"
fill="#cb2026" stroke="none">
<path d="M1279 5105 c-255 -43 -508 -162 -706 -333 -252 -219 -425 -528 -478
-857 -20 -120 -19 -344 1 -443 8 -42 45 -166 81 -275 36 -111 62 -208 60 -219
-8 -30 12 -126 35 -171 45 -88 163 -167 251 -167 l32 0 18 -97 c56 -307 276
-586 556 -704 l66 -28 0 -117 0 -117 -260 -116 c-297 -133 -349 -161 -451
-243 -198 -160 -341 -397 -388 -648 -12 -59 -16 -145 -16 -306 0 -211 1 -225
20 -244 20 -20 33 -20 1300 -20 1267 0 1280 0 1300 20 27 27 27 93 0 120 -19
19 -33 20 -439 20 l-419 0 -4 208 c-4 203 -5 209 -37 302 -17 52 -45 119 -62
147 -16 29 -29 57 -29 63 0 6 15 32 33 58 l32 47 57 -3 c66 -3 120 19 161 68
28 33 39 66 58 173 6 37 13 67 15 67 2 0 60 -26 128 -59 133 -63 190 -98 275
-170 45 -37 62 -46 94 -46 49 0 77 31 77 85 0 34 -7 44 -62 95 -97 87 -189
139 -472 265 l-261 117 0 117 0 117 66 28 c280 118 500 397 556 704 l18 97 32
0 c59 0 141 39 193 90 58 59 90 135 90 217 0 43 16 105 64 252 84 254 96 317
96 488 0 230 -40 413 -134 608 -64 134 -125 228 -214 332 -219 252 -528 425
-857 478 -110 18 -369 18 -476 0z m461 -172 c101 -17 260 -68 344 -110 28 -14
87 -49 131 -78 363 -238 576 -630 575 -1059 -1 -137 -11 -193 -65 -357 l-38
-116 -46 28 c-25 16 -53 29 -63 29 -17 0 -18 19 -18 345 0 337 0 345 -21 366
-31 31 -81 21 -239 -44 -264 -110 -478 -152 -780 -152 -304 0 -528 45 -805
160 -142 60 -184 66 -215 35 -19 -19 -20 -33 -20 -364 l0 -344 -27 -7 c-16 -3
-44 -17 -64 -30 l-35 -23 -39 117 c-54 164 -64 220 -65 357 -1 430 211 820
577 1061 268 176 587 241 913 186z m-899 -1217 c282 -90 603 -124 890 -96 202
20 445 78 610 145 l59 24 0 -315 c0 -357 -2 -346 83 -359 91 -14 147 -73 147
-156 0 -94 -64 -147 -187 -156 -43 -3 -86 -10 -95 -14 -21 -11 -38 -68 -38
-127 0 -106 -64 -287 -141 -398 -142 -206 -391 -335 -648 -335 -128 0 -225 22
-346 81 -172 84 -281 193 -365 365 -50 103 -80 211 -80 287 0 59 -17 116 -38
127 -9 4 -52 11 -95 14 -123 9 -187 62 -187 156 0 83 56 142 147 156 85 13 83
2 83 360 l0 314 45 -19 c25 -11 95 -35 156 -54z m839 -2051 l0 -100 -80 -80
-80 -80 -80 80 -80 80 0 100 0 100 160 0 160 0 0 -100z m-353 -317 l62 -61
-82 -68 c-81 -67 -119 -83 -131 -54 -7 20 -38 197 -34 199 45 23 96 45 108 45
8 1 42 -27 77 -61z m520 40 c27 -13 49 -23 51 -24 4 -2 -27 -179 -34 -199 -11
-28 -41 -15 -127 53 l-85 69 61 61 c34 34 67 62 74 62 7 0 34 -10 60 -22z
m-857 -170 c16 -99 27 -133 57 -169 39 -46 93 -69 162 -69 60 0 60 0 91 -44
16 -25 30 -49 30 -55 0 -6 -13 -35 -29 -64 -17 -28 -45 -95 -62 -147 -32 -93
-33 -99 -37 -302 l-4 -208 -481 0 -480 0 7 162 c7 181 27 284 76 400 68 159
208 326 355 420 57 38 272 144 297 147 3 1 11 -32 18 -71z m584 -90 c28 -23
53 -43 54 -44 2 -1 -15 -30 -37 -63 -35 -51 -46 -61 -71 -61 -25 0 -36 10 -70
61 l-41 60 28 22 c15 12 39 32 53 44 14 12 27 23 29 23 2 0 26 -19 55 -42z
m19 -405 c57 -110 76 -200 84 -395 l6 -168 -163 0 -163 0 6 168 c7 188 26 281
77 383 43 85 48 91 84 87 27 -3 36 -12 69 -75z"/>
<path d="M1140 3180 c-17 -17 -20 -33 -20 -100 0 -96 16 -120 80 -120 64 0 80
24 80 120 0 96 -16 120 -80 120 -27 0 -47 -7 -60 -20z"/>
<path d="M1780 3180 c-17 -17 -20 -33 -20 -100 0 -96 16 -120 80 -120 64 0 80
24 80 120 0 96 -16 120 -80 120 -27 0 -47 -7 -60 -20z"/>
<path d="M4308 3973 l-317 -316 -39 26 c-65 43 -134 60 -212 55 -122 -9 -142
-24 -466 -350 -333 -335 -339 -344 -339 -473 0 -142 1 -143 313 -457 318 -319
323 -323 462 -323 136 0 140 3 482 344 325 323 336 339 346 457 6 78 -10 145
-50 207 l-31 48 177 178 176 177 0 72 c0 40 3 72 6 72 4 0 24 -5 45 -11 53
-16 84 -1 163 81 l66 68 0 209 c0 276 23 253 -255 253 l-209 0 -318 -317z
m612 39 c0 -103 -1 -110 -25 -132 l-25 -23 -73 22 c-56 16 -80 19 -99 12 -48
-18 -58 -46 -58 -161 l0 -105 -155 -155 -155 -155 -107 108 -108 107 295 295
295 295 107 0 108 0 0 -108z m-1092 -456 c41 -22 520 -507 532 -539 14 -39 13
-83 -4 -115 -8 -15 -142 -154 -298 -309 -303 -302 -308 -305 -390 -288 -48 10
-553 515 -563 563 -17 82 -13 87 283 386 152 153 291 287 307 297 36 23 95 25
133 5z"/>
<path d="M4100 3100 c-13 -13 -20 -33 -20 -60 0 -27 7 -47 20 -60 13 -13 33
-20 60 -20 27 0 47 7 60 20 13 13 20 33 20 60 0 27 -7 47 -20 60 -13 13 -33
20 -60 20 -27 0 -47 -7 -60 -20z"/>
<path d="M3330 3088 c-92 -47 -132 -156 -95 -256 14 -37 53 -82 185 -214 102
-103 180 -173 203 -183 42 -17 123 -20 164 -4 38 14 92 67 109 106 20 47 18
137 -5 181 -27 52 -338 357 -383 377 -54 22 -126 19 -178 -7z m259 -302 c154
-155 168 -176 125 -193 -11 -4 -59 37 -170 148 -85 85 -154 159 -154 164 0 6
5 16 12 23 7 7 17 12 23 12 5 0 79 -69 164 -154z"/>
<path d="M3940 2940 c-13 -13 -20 -33 -20 -60 0 -27 7 -47 20 -60 13 -13 33
-20 60 -20 27 0 47 7 60 20 13 13 20 33 20 60 0 27 -7 47 -20 60 -13 13 -33
20 -60 20 -27 0 -47 -7 -60 -20z"/>
<path d="M3309 1990 c-9 -5 -62 -113 -119 -240 l-103 -230 -116 0 c-112 0
-119 -1 -163 -29 -106 -67 -121 -235 -28 -320 l31 -28 -29 -44 c-59 -87 -62
-111 -62 -439 0 -287 1 -301 20 -320 11 -11 29 -20 40 -20 19 0 20 -7 20 -140
0 -196 -29 -180 320 -180 349 0 320 -16 320 180 l0 140 480 0 480 0 0 -140 c0
-196 -29 -180 320 -180 349 0 320 -16 320 180 0 133 1 140 20 140 11 0 29 9
40 20 19 19 20 33 20 320 0 328 -3 352 -62 439 l-29 44 32 31 c94 91 76 256
-35 321 -39 23 -53 25 -158 25 l-115 0 -103 230 c-58 131 -111 235 -121 240
-24 13 -1198 13 -1220 0z m1237 -430 l122 -275 -374 -3 c-206 -1 -542 -1 -748
0 l-374 3 105 235 c57 129 113 254 123 278 l19 42 502 -2 502 -3 123 -275z
m269 -466 c55 -30 94 -70 119 -124 18 -40 21 -68 24 -267 l4 -223 -1042 0
-1042 0 4 223 c3 199 6 227 24 267 36 77 99 127 179 141 22 4 411 6 865 5 824
-1 825 -1 865 -22z m-1535 -854 l0 -80 -160 0 -160 0 0 80 0 80 160 0 160 0 0
-80z m1600 0 l0 -80 -160 0 -160 0 0 80 0 80 160 0 160 0 0 -80z"/>
<path d="M2980 940 c-18 -18 -20 -33 -20 -180 0 -147 2 -162 20 -180 19 -19
33 -20 260 -20 299 0 280 -11 280 156 0 119 -7 147 -37 159 -36 14 -408 85
-445 85 -25 0 -45 -7 -58 -20z"/>
<path d="M4605 929 c-77 -16 -164 -34 -193 -40 -86 -17 -92 -28 -92 -169 0
-171 -20 -160 280 -160 227 0 241 1 260 20 18 18 20 33 20 180 0 147 -2 162
-20 180 -27 27 -81 25 -255 -11z"/>
</g>
</svg>
