<?xml version="1.0" standalone="no"?>
<!DOCTYPE svg PUBLIC "-//W3C//DTD SVG 20010904//EN"
 "http://www.w3.org/TR/2001/REC-SVG-20010904/DTD/svg10.dtd">
<svg version="1.0" xmlns="http://www.w3.org/2000/svg"
 width="512.000000pt" height="512.000000pt" viewBox="0 0 512.000000 512.000000"
 preserveAspectRatio="xMidYMid meet">
<metadata>
Created by potrace 1.16, written by Peter Selinger 2001-2019
</metadata>
<g transform="translate(0.000000,512.000000) scale(0.100000,-0.100000)"
fill="#cb2026" stroke="none">
<path d="M1131 4539 c-138 -18 -273 -112 -338 -236 -17 -32 -117 -292 -223
-578 l-193 -520 -81 -75 c-146 -134 -185 -180 -231 -275 -24 -49 -48 -114 -54
-143 -7 -36 -11 -332 -11 -906 0 -808 1 -856 19 -907 41 -121 106 -203 205
-260 99 -56 140 -63 376 -64 177 0 225 3 272 18 148 45 262 154 310 294 15 44
21 95 25 211 l6 152 1347 0 1347 0 6 -152 c4 -116 10 -167 25 -211 48 -140
162 -249 310 -294 47 -15 95 -18 272 -18 236 1 277 8 376 64 99 57 164 139
205 260 18 51 19 99 19 927 0 607 -3 889 -11 926 -26 120 -90 227 -212 355
l-79 82 -199 537 c-110 296 -211 559 -225 585 -65 118 -204 211 -344 229 -92
12 -2827 11 -2919 -1z m2963 -249 c27 -14 62 -41 77 -60 20 -24 83 -181 198
-490 93 -250 173 -463 176 -472 7 -17 -3 -18 -114 -18 l-121 0 -6 28 c-15 69
-49 163 -82 227 -49 96 -199 246 -297 297 -204 107 -452 119 -657 32 -218 -92
-379 -278 -438 -509 l-18 -70 -1087 -3 c-1033 -2 -1087 -1 -1080 15 3 10 81
218 172 463 91 245 174 460 185 478 27 45 80 83 136 98 37 10 348 12 1477 11
l1431 -2 48 -25z m-390 -645 c135 -41 261 -147 321 -269 19 -39 37 -83 41 -98
l6 -28 -512 0 -512 0 5 29 c14 67 73 167 135 228 72 72 194 137 282 152 66 12
169 5 234 -14z m1035 -708 c101 -111 139 -185 153 -295 5 -43 8 -280 6 -528
-3 -407 -5 -453 -21 -489 -23 -51 -61 -91 -112 -118 l-40 -22 -2165 0 -2165 0
-41 22 c-51 27 -98 80 -115 130 -11 30 -14 140 -14 518 0 446 1 484 19 535 30
86 60 128 175 237 l106 102 2065 0 2065 0 84 -92z m-4429 -1660 c50 -19 83
-21 363 -25 l309 -4 -4 -136 c-4 -154 -17 -192 -82 -249 -58 -52 -91 -58 -301
-58 -206 0 -228 5 -292 59 -63 53 -77 102 -81 285 -4 157 -4 164 14 156 11 -4
44 -17 74 -28z m4588 -129 c-5 -174 -12 -206 -62 -265 -14 -17 -48 -42 -74
-55 -44 -22 -58 -23 -237 -23 -209 0 -243 6 -301 58 -65 57 -78 95 -82 250
l-4 137 264 0 c280 0 375 9 442 39 22 11 45 20 50 20 4 1 6 -72 4 -161z"/>
<path d="M600 2594 c-90 -31 -90 -30 -90 -394 0 -263 2 -316 16 -341 29 -58
41 -59 510 -59 475 0 478 0 509 66 14 30 16 74 13 347 -3 330 -4 336 -52 368
-17 11 -103 14 -456 16 -239 1 -442 0 -450 -3z m730 -394 l0 -170 -295 0 -295
0 0 170 0 170 295 0 295 0 0 -170z"/>
<path d="M3643 2593 c-31 -6 -70 -48 -77 -84 -3 -18 -6 -162 -6 -321 0 -243 3
-295 16 -323 30 -64 34 -65 508 -65 469 0 481 1 510 59 14 25 16 78 16 340 0
330 -2 346 -49 378 -24 16 -63 18 -461 19 -239 1 -445 0 -457 -3z m737 -393
l0 -170 -295 0 -295 0 0 170 0 170 295 0 295 0 0 -170z"/>
<path d="M1992 2469 c-71 -21 -95 -123 -43 -181 l29 -33 582 0 582 0 29 33
c54 61 28 160 -48 181 -48 14 -1084 13 -1131 0z"/>
<path d="M1985 2126 c-69 -30 -87 -121 -36 -178 l29 -33 582 0 582 0 29 33
c52 58 33 149 -38 178 -47 20 -1103 20 -1148 0z"/>
</g>
</svg>
