<?xml version="1.0" standalone="no"?>
<!DOCTYPE svg PUBLIC "-//W3C//DTD SVG 20010904//EN"
 "http://www.w3.org/TR/2001/REC-SVG-20010904/DTD/svg10.dtd">
<svg version="1.0" xmlns="http://www.w3.org/2000/svg"
 width="512.000000pt" height="512.000000pt" viewBox="0 0 512.000000 512.000000"
 preserveAspectRatio="xMidYMid meet">

<g transform="translate(0.000000,512.000000) scale(0.100000,-0.100000)"
fill="#cb2026" stroke="none">
<path d="M1335 3656 c-65 -16 -147 -61 -193 -106 -21 -20 -140 -153 -266 -297
l-228 -261 -227 -4 c-248 -4 -265 -7 -335 -68 -20 -18 -47 -52 -59 -74 -22
-41 -22 -43 -22 -626 0 -651 -4 -611 69 -688 61 -65 95 -76 251 -80 132 -3
143 -2 185 21 53 28 83 75 99 154 25 125 116 238 239 296 63 30 74 32 177 32
102 0 114 -2 175 -31 126 -61 204 -156 239 -296 23 -92 50 -134 105 -159 39
-18 87 -19 1016 -19 929 0 977 1 1016 19 55 25 82 67 105 159 35 139 109 231
238 295 62 30 72 32 176 32 108 0 113 -1 187 -38 120 -59 205 -167 230 -291
15 -78 46 -126 98 -153 42 -23 53 -24 185 -21 156 4 190 15 251 80 72 75 69
55 69 543 l0 440 -28 57 c-35 71 -119 150 -184 172 -26 9 -232 46 -458 82
-225 36 -419 69 -430 74 -11 4 -192 163 -402 352 -398 359 -437 388 -544 408
-80 15 -1671 12 -1734 -4z m1766 -187 c25 -14 220 -183 433 -375 213 -192 395
-352 404 -356 9 -4 204 -37 432 -73 228 -35 431 -69 451 -75 51 -14 88 -46
110 -94 17 -38 19 -73 19 -429 l0 -389 -30 -29 c-29 -30 -30 -30 -131 -27
l-103 3 -11 53 c-43 191 -203 360 -405 428 -86 29 -262 26 -360 -6 -191 -62
-353 -238 -393 -425 l-11 -55 -946 0 -946 0 -12 60 c-41 198 -229 387 -433
435 -83 19 -215 19 -293 -1 -203 -52 -385 -234 -429 -430 l-14 -59 -102 -3
c-101 -3 -102 -3 -131 27 l-30 29 0 541 0 540 24 28 24 28 256 5 c210 4 258 8
269 20 8 8 110 125 227 260 304 350 321 366 400 391 14 4 399 7 855 6 l830 -2
46 -26z"/>
<path d="M1407 3313 c-28 -11 -87 -72 -235 -242 -108 -124 -205 -242 -214
-261 -15 -29 -18 -61 -18 -204 0 -149 2 -175 20 -210 28 -58 71 -83 173 -101
98 -17 160 -36 232 -73 133 -66 247 -172 318 -295 45 -76 69 -100 119 -122 33
-13 130 -15 758 -15 628 0 725 2 758 15 50 22 74 46 119 123 21 36 75 104 121
151 46 47 90 100 98 118 11 25 14 88 14 281 0 239 -1 250 -22 290 -27 48 -557
509 -624 542 -39 20 -59 20 -810 19 -674 0 -774 -2 -807 -16z m813 -753 l0
-600 -179 0 -178 0 -39 67 c-22 36 -74 104 -118 150 -148 157 -336 255 -553
289 l-43 7 0 133 0 133 183 210 182 211 373 0 372 0 0 -600z m1006 365 l274
-235 0 -211 0 -211 -74 -79 c-41 -44 -96 -113 -122 -154 l-47 -75 -434 0 -433
0 0 600 0 600 281 0 281 0 274 -235z"/>
</g>
</svg>
