<?xml version="1.0" standalone="no"?>
<!DOCTYPE svg PUBLIC "-//W3C//DTD SVG 20010904//EN"
 "http://www.w3.org/TR/2001/REC-SVG-20010904/DTD/svg10.dtd">
<svg version="1.0" xmlns="http://www.w3.org/2000/svg"
 width="512.000000pt" height="512.000000pt" viewBox="0 0 512.000000 512.000000"
 preserveAspectRatio="xMidYMid meet">

<g transform="translate(0.000000,512.000000) scale(0.100000,-0.100000)"
fill="#cb2026" stroke="none">
<path d="M3560 4946 c-254 -46 -479 -165 -655 -347 -104 -107 -160 -186 -220
-308 -90 -182 -131 -375 -121 -576 3 -66 8 -137 12 -157 l7 -38 -530 0 c-678
0 -633 11 -859 -212 l-142 -140 -83 -224 -83 -224 -43 0 -43 0 0 95 c0 113
-13 151 -66 191 -37 29 -39 29 -198 32 -200 4 -233 -4 -302 -72 -61 -62 -78
-112 -73 -224 4 -68 8 -84 33 -116 48 -63 63 -66 361 -66 213 0 265 -3 265
-13 0 -8 -81 -78 -181 -158 -131 -104 -188 -157 -208 -189 l-26 -45 0 -610 0
-610 23 -67 c23 -67 84 -171 115 -197 15 -11 17 -35 17 -159 0 -179 9 -211 75
-277 68 -69 94 -75 325 -75 231 0 257 6 325 75 57 56 75 102 75 189 l0 56 35
0 c58 0 110 34 155 100 l41 60 809 0 809 0 41 -60 c45 -66 97 -100 155 -100
l35 0 0 -56 c0 -87 18 -133 75 -189 68 -69 94 -75 325 -75 231 0 257 6 325 75
66 65 75 98 75 275 l0 142 35 41 c49 57 91 145 110 230 14 62 15 150 13 652
l-3 580 -26 45 c-20 32 -77 85 -208 189 -100 80 -181 150 -181 157 0 10 60 14
279 16 264 3 281 4 307 24 56 41 69 69 72 157 3 55 -1 96 -11 126 l-16 44 60
71 c351 416 383 1003 79 1457 -69 102 -250 275 -359 341 -106 65 -260 128
-371 153 -101 23 -360 29 -460 11z m465 -180 c312 -82 581 -320 699 -619 57
-145 69 -210 69 -382 1 -141 -2 -171 -26 -257 -48 -179 -130 -328 -252 -457
-89 -93 -163 -150 -269 -207 -516 -275 -1151 -72 -1413 451 -235 468 -85 1039
348 1328 194 129 371 179 609 173 105 -3 157 -10 235 -30z m-1389 -1423 c4
-10 19 -46 35 -80 l28 -63 -692 0 -691 0 54 56 c30 31 78 67 105 80 l50 24
553 0 c517 0 553 -1 558 -17z m216 -362 c85 -106 239 -227 383 -298 107 -54
263 -99 400 -116 17 -2 -570 -5 -1302 -6 -733 0 -1333 2 -1333 6 0 3 39 111
87 240 l88 233 815 0 815 0 47 -59z m-2212 -181 l0 -80 -160 0 -160 0 0 55 c0
46 4 60 25 80 23 24 29 25 160 25 l135 0 0 -80z m3840 -40 l0 -40 -62 0 -61 0
59 39 c32 22 60 40 62 40 1 1 2 -17 2 -39z m-555 -385 c16 -13 27 -26 25 -28
-19 -17 -303 -151 -375 -177 -252 -88 -302 -92 -1245 -87 -885 4 -847 1 -1074
77 -75 25 -388 168 -405 186 -3 3 8 16 24 29 l30 24 1495 0 1495 0 30 -24z
m-3205 -298 c0 -167 12 -211 68 -270 46 -49 90 -63 357 -117 217 -44 271 -51
328 -47 130 11 236 79 312 202 l47 75 568 0 568 0 47 -75 c76 -123 182 -191
312 -202 57 -4 112 3 327 47 266 53 311 67 358 117 56 59 68 103 68 269 0 83
3 154 6 157 8 7 120 -79 140 -108 11 -15 14 -70 14 -257 0 -217 -1 -237 -17
-242 -10 -3 -90 -19 -178 -36 -779 -151 -1468 -182 -2365 -104 -317 27 -694
75 -1017 130 l-103 17 0 238 c0 233 1 238 23 263 33 38 121 105 129 99 5 -2 8
-73 8 -156z m471 -65 c110 -39 263 -72 367 -79 52 -4 82 -10 82 -18 0 -16 -59
-70 -98 -89 -65 -33 -114 -31 -362 19 -129 26 -244 52 -255 58 -38 20 -44 39
-45 144 l0 102 113 -54 c61 -29 151 -67 198 -83z m2718 -78 c-6 -12 -21 -26
-34 -32 -12 -6 -128 -31 -256 -57 -252 -51 -295 -53 -366 -16 -41 21 -100 77
-91 86 3 4 55 13 115 21 197 25 384 84 568 177 l70 35 3 -97 c2 -59 -2 -104
-9 -117z m-3074 -508 c540 -82 1052 -128 1585 -142 521 -13 1205 51 1713 161
l108 23 -3 -261 -3 -262 -32 -67 c-41 -88 -113 -160 -201 -201 l-67 -32 -265
-3 -266 -3 -147 220 c-123 185 -153 224 -186 241 -39 19 -57 20 -671 20 -614
0 -632 -1 -671 -20 -33 -17 -63 -56 -186 -241 l-147 -220 -266 3 -265 3 -67
32 c-88 41 -160 113 -201 201 l-32 67 -3 264 -3 264 23 -6 c13 -3 127 -22 253
-41z m2213 -543 l52 -78 -350 -3 c-193 -1 -507 -1 -700 0 l-350 3 52 78 51 77
597 0 597 0 51 -77z m-2262 -374 c49 -18 88 -23 237 -27 l177 -4 0 -55 c0 -44
-5 -58 -25 -78 -24 -25 -26 -25 -215 -25 -189 0 -191 0 -215 25 -22 22 -25 32
-25 105 0 44 2 80 3 80 2 0 30 -10 63 -21z m3294 -59 c0 -73 -3 -83 -25 -105
-24 -25 -26 -25 -215 -25 -189 0 -191 0 -215 25 -20 20 -25 34 -25 78 l0 55
178 4 c147 4 186 9 232 26 30 11 58 21 63 21 4 1 7 -35 7 -79z"/>
<path d="M3680 4498 l0 -62 -48 47 c-26 26 -52 47 -58 47 -13 0 -104 -93 -104
-106 0 -5 47 -56 105 -114 l105 -105 0 -110 0 -110 -39 -21 -39 -21 -95 55
-95 55 -37 141 c-20 78 -39 144 -41 148 -3 5 -142 -28 -151 -36 -1 -1 5 -28
13 -60 8 -32 14 -62 12 -66 -2 -5 -25 4 -52 21 -26 17 -49 29 -51 27 -1 -2
-19 -33 -39 -70 l-37 -67 28 -17 c15 -10 39 -24 53 -32 24 -15 23 -15 -38 -32
-35 -10 -65 -20 -68 -22 -4 -5 25 -138 32 -147 2 -2 70 13 151 34 l148 38 93
-52 92 -53 0 -48 0 -48 -92 -53 -93 -52 -148 38 c-81 21 -149 36 -151 34 -7
-9 -36 -142 -32 -147 3 -2 33 -12 68 -22 l62 -17 -29 -18 c-17 -10 -40 -25
-53 -32 l-23 -14 37 -67 c20 -37 38 -68 39 -70 2 -2 25 10 51 27 27 17 50 26
52 21 2 -4 -4 -34 -12 -66 -8 -32 -14 -59 -13 -60 9 -8 148 -41 151 -36 2 4
21 70 41 148 l37 141 95 55 95 55 39 -21 39 -21 0 -110 0 -110 -105 -105 c-58
-58 -105 -109 -104 -115 1 -5 26 -32 55 -59 l55 -50 49 49 50 49 0 -62 0 -62
80 0 80 0 0 62 0 62 50 -49 49 -49 55 50 c29 27 54 54 55 59 1 6 -46 57 -104
115 l-105 105 0 110 0 110 39 21 39 21 95 -55 95 -55 37 -141 c20 -78 39 -144
41 -148 4 -5 143 27 151 36 1 1 -5 28 -13 60 -8 32 -14 62 -12 66 2 5 25 -4
52 -21 26 -17 49 -29 51 -27 1 2 19 33 39 70 l37 67 -52 33 -53 32 61 16 c34
8 64 18 68 21 5 6 -23 137 -31 148 -2 2 -70 -13 -151 -34 l-148 -38 -92 52
-93 53 0 48 0 48 93 53 92 52 148 -38 c81 -21 149 -36 151 -34 8 11 36 142 31
148 -4 3 -34 13 -68 21 l-61 16 53 32 52 33 -37 67 c-20 37 -38 68 -39 70 -2
2 -25 -10 -51 -27 -27 -17 -50 -26 -52 -21 -2 4 4 34 12 66 8 32 14 59 13 60
-8 9 -147 41 -151 36 -2 -4 -21 -70 -41 -148 l-37 -141 -95 -55 -95 -55 -39
21 -39 21 0 110 0 110 105 105 c58 58 105 109 105 115 0 13 -92 105 -105 105
-5 0 -31 -21 -57 -47 l-48 -47 0 62 0 62 -80 0 -80 0 0 -62z m135 -683 c16
-15 25 -36 25 -55 0 -19 -9 -40 -25 -55 -15 -16 -36 -25 -55 -25 -19 0 -40 9
-55 25 -16 15 -25 36 -25 55 0 19 9 40 25 55 15 16 36 25 55 25 19 0 40 -9 55
-25z"/>
<path d="M720 1104 c0 -128 13 -168 75 -229 68 -68 95 -75 309 -75 l176 0 0
80 0 80 -175 0 c-173 0 -176 0 -200 25 -23 22 -25 32 -25 120 l0 95 -80 0 -80
0 0 -96z"/>
<path d="M3920 1105 c0 -88 -2 -98 -25 -120 -24 -25 -27 -25 -200 -25 l-175 0
0 -80 0 -80 178 0 c216 0 251 9 315 80 54 60 67 103 67 224 l0 96 -80 0 -80 0
0 -95z"/>
</g>
</svg>
