<?xml version="1.0" standalone="no"?>
<!DOCTYPE svg PUBLIC "-//W3C//DTD SVG 20010904//EN"
 "http://www.w3.org/TR/2001/REC-SVG-20010904/DTD/svg10.dtd">
<svg version="1.0" xmlns="http://www.w3.org/2000/svg"
 width="512.000000pt" height="512.000000pt" viewBox="0 0 512.000000 512.000000"
 preserveAspectRatio="xMidYMid meet">

<g transform="translate(0.000000,512.000000) scale(0.100000,-0.100000)"
fill="#cb2026" stroke="none">
<path d="M560 5027 c-49 -16 -133 -102 -148 -153 -7 -23 -12 -67 -12 -98 l0
-56 -56 0 c-87 0 -133 -18 -189 -75 -102 -101 -102 -229 0 -330 56 -57 102
-75 189 -75 l56 0 0 -56 c0 -87 18 -133 75 -189 68 -69 94 -75 325 -75 231 0
257 6 325 75 57 56 75 102 75 189 l0 56 320 0 320 0 0 -160 0 -160 160 0 160
0 0 -160 0 -160 80 0 80 0 0 -880 0 -880 -80 0 -80 0 0 -160 0 -160 -160 0
-160 0 0 -160 0 -160 -320 0 -320 0 0 56 c0 81 -18 129 -67 184 -65 72 -97 80
-331 80 -233 0 -258 -6 -327 -75 -57 -56 -75 -102 -75 -189 l0 -56 -56 0 c-87
0 -133 -18 -189 -75 -102 -101 -102 -229 0 -330 56 -57 102 -75 189 -75 l56 0
0 -56 c0 -87 18 -133 75 -189 68 -69 94 -75 325 -75 231 0 257 6 325 75 57 56
75 102 75 189 l0 56 320 0 320 0 0 -160 0 -160 80 0 80 0 0 -160 0 -160 560 0
560 0 0 160 0 160 80 0 80 0 0 160 0 160 320 0 320 0 0 -56 c0 -87 18 -133 75
-189 68 -69 94 -75 325 -75 231 0 257 6 325 75 57 56 75 102 75 189 l0 56 56
0 c87 0 133 18 189 75 98 97 101 222 8 325 -51 57 -108 80 -195 80 l-58 0 0
56 c0 81 -18 129 -67 184 -65 72 -97 80 -331 80 -233 0 -258 -6 -327 -75 -57
-56 -75 -102 -75 -189 l0 -56 -320 0 -320 0 0 160 0 160 -160 0 -160 0 0 160
0 160 -80 0 -80 0 0 880 0 880 80 0 80 0 0 160 0 160 160 0 160 0 0 160 0 160
320 0 320 0 0 -56 c0 -87 18 -133 75 -189 68 -69 94 -75 325 -75 231 0 257 6
325 75 57 56 75 102 75 189 l0 56 56 0 c87 0 133 18 189 75 98 97 101 222 8
325 -51 57 -108 80 -195 80 l-58 0 0 56 c0 81 -18 129 -67 184 -65 72 -97 80
-331 80 -233 0 -258 -6 -327 -75 -57 -56 -75 -102 -75 -189 l0 -56 -320 0
-320 0 0 160 0 160 -720 0 -720 0 0 -160 0 -160 -320 0 -320 0 0 56 c0 81 -18
129 -67 184 -66 73 -96 80 -337 79 -116 -1 -216 -6 -236 -12z m455 -172 l25
-24 0 -351 0 -351 -25 -24 c-24 -25 -26 -25 -215 -25 -189 0 -191 0 -215 25
l-25 24 0 351 0 351 25 24 c24 25 26 25 215 25 189 0 191 0 215 -25z m1305
-135 l0 -160 -80 0 -80 0 0 -240 0 -240 -80 0 -80 0 0 400 0 400 160 0 160 0
0 -160z m320 0 l0 -160 -80 0 -80 0 0 160 0 160 80 0 80 0 0 -160z m480 -240
l0 -400 -80 0 -80 0 0 240 0 240 -80 0 -80 0 0 160 0 160 160 0 160 0 0 -400z
m1415 375 l25 -24 0 -351 0 -351 -25 -24 c-24 -25 -26 -25 -215 -25 -189 0
-191 0 -215 25 l-25 24 0 351 0 351 25 24 c24 25 26 25 215 25 189 0 191 0
215 -25z m-4135 -375 l0 -80 -55 0 c-67 0 -105 29 -105 80 0 51 38 80 105 80
l55 0 0 -80z m1440 0 l0 -80 -320 0 -320 0 0 80 0 80 320 0 320 0 0 -80z
m2080 0 l0 -80 -320 0 -320 0 0 80 0 80 320 0 320 0 0 -80z m935 55 c16 -15
25 -36 25 -55 0 -51 -38 -80 -105 -80 l-55 0 0 80 0 80 55 0 c46 0 60 -4 80
-25z m-2055 -455 l0 -320 -240 0 -240 0 0 320 0 320 240 0 240 0 0 -320z
m-160 -1360 l0 -880 -80 0 -80 0 0 880 0 880 80 0 80 0 0 -880z m160 -1360 l0
-320 -240 0 -240 0 0 320 0 320 240 0 240 0 0 -320z m-1785 -25 l25 -24 0
-351 0 -351 -25 -24 c-24 -25 -26 -25 -215 -25 -189 0 -191 0 -215 25 l-25 24
0 351 0 351 25 24 c24 25 26 25 215 25 189 0 191 0 215 -25z m1145 -215 l0
-240 80 0 80 0 0 -160 0 -160 -160 0 -160 0 0 400 0 400 80 0 80 0 0 -240z
m960 -160 l0 -400 -160 0 -160 0 0 160 0 160 80 0 80 0 0 240 0 240 80 0 80 0
0 -400z m1415 375 l25 -24 0 -351 0 -351 -25 -24 c-24 -25 -26 -25 -215 -25
-189 0 -191 0 -215 25 l-25 24 0 351 0 351 25 24 c24 25 26 25 215 25 189 0
191 0 215 -25z m-4135 -375 l0 -80 -55 0 c-67 0 -105 29 -105 80 0 51 38 80
105 80 l55 0 0 -80z m1440 0 l0 -80 -320 0 -320 0 0 80 0 80 320 0 320 0 0
-80z m2080 0 l0 -80 -320 0 -320 0 0 80 0 80 320 0 320 0 0 -80z m935 55 c16
-15 25 -36 25 -55 0 -51 -38 -80 -105 -80 l-55 0 0 80 0 80 55 0 c46 0 60 -4
80 -25z m-2215 -295 l0 -160 -80 0 -80 0 0 160 0 160 80 0 80 0 0 -160z m320
-400 l0 -80 -400 0 -400 0 0 80 0 80 400 0 400 0 0 -80z"/>
</g>
</svg>
