<?xml version="1.0" standalone="no"?>
<!DOCTYPE svg PUBLIC "-//W3C//DTD SVG 20010904//EN"
 "http://www.w3.org/TR/2001/REC-SVG-20010904/DTD/svg10.dtd">
<svg version="1.0" xmlns="http://www.w3.org/2000/svg"
 width="512.000000pt" height="512.000000pt" viewBox="0 0 512.000000 512.000000"
 preserveAspectRatio="xMidYMid meet">

<g transform="translate(0.000000,512.000000) scale(0.100000,-0.100000)"
fill="#cb2026" stroke="none">
<path d="M4110 5111 c-69 -21 -132 -75 -165 -141 -10 -19 -20 -65 -23 -102
l-5 -68 -1621 -2 -1621 -3 -70 -23 c-266 -90 -461 -299 -522 -561 -27 -113
-26 -630 0 -744 47 -201 189 -389 372 -492 67 -38 200 -85 239 -85 14 0 27 -3
30 -8 3 -6 -23 -196 -40 -288 -2 -14 -27 -32 -80 -58 -112 -56 -210 -157 -268
-278 -54 -113 -63 -157 -78 -361 -9 -120 -9 -200 1 -330 12 -181 26 -253 67
-345 13 -30 23 -56 22 -57 -88 -51 -150 -156 -151 -257 -3 -176 119 -304 299
-316 l74 -5 0 -204 c0 -150 4 -212 14 -237 22 -52 72 -102 126 -125 50 -21 61
-22 369 -19 l318 3 49 30 c30 19 60 49 79 79 l30 49 3 214 3 213 110 0 c103 0
111 1 134 25 32 31 32 69 0 100 l-24 25 -653 0 c-616 0 -655 1 -694 19 -100
45 -120 172 -41 249 18 18 49 37 68 42 22 6 786 10 2129 10 l2096 0 44 -22
c87 -44 114 -156 57 -232 -55 -71 53 -66 -1426 -66 l-1332 0 -24 -25 c-32 -31
-32 -69 0 -100 l24 -25 786 0 785 0 0 -186 c0 -222 7 -258 66 -323 70 -78 86
-81 435 -81 329 0 356 4 417 63 71 68 77 89 80 318 l3 206 67 5 c85 6 158 38
210 91 61 62 87 126 87 217 0 96 -34 171 -105 232 l-48 41 30 63 c16 35 36 98
44 141 21 112 29 433 15 582 -14 157 -24 197 -73 300 -52 110 -159 219 -268
275 -41 22 -76 40 -77 40 -1 1 -9 51 -18 111 -49 330 -143 631 -290 925 -67
134 -113 188 -176 209 -90 29 -252 60 -274 51 -45 -17 -60 -85 -26 -119 11
-11 63 -29 133 -45 63 -15 125 -34 138 -43 27 -19 129 -229 193 -398 71 -190
134 -435 153 -597 l7 -58 -81 0 -81 0 -6 38 c-50 290 -122 530 -230 759 -33
68 -61 116 -75 123 -52 28 -441 93 -715 121 -294 29 -838 27 -1145 -5 -256
-27 -511 -69 -651 -106 -48 -13 -56 -25 -124 -182 -91 -211 -158 -432 -194
-643 l-17 -100 -83 -3 -83 -3 6 48 c29 204 96 455 175 654 62 159 155 345 178
358 29 15 218 59 373 86 547 95 1155 109 1762 38 l148 -17 25 24 c32 30 33 73
2 104 -19 19 -43 25 -167 39 -670 79 -1372 53 -1970 -74 -274 -59 -293 -72
-390 -273 -78 -162 -134 -305 -181 -459 l-33 -107 -36 6 c-121 20 -241 82
-333 172 -72 70 -117 143 -153 247 l-28 80 -1 300 c0 286 1 303 23 375 67 216
248 384 460 429 38 8 513 11 1637 11 l1585 0 0 -49 c0 -101 55 -192 142 -235
l52 -26 273 0 c260 0 274 1 293 20 15 15 20 33 20 70 l0 50 153 0 c160 1 172
4 196 48 15 28 -1 77 -30 92 -10 6 -85 10 -168 10 l-151 0 0 94 0 94 155 4
c143 3 156 5 176 25 27 27 29 75 4 103 -16 18 -33 20 -174 22 l-156 3 -3 52
c-2 42 -8 56 -29 73 -24 19 -39 20 -282 19 -141 0 -267 -4 -281 -8z m440 -381
l0 -240 -206 0 -206 0 -34 34 -34 34 0 160 c0 89 4 172 10 186 5 14 24 35 42
46 30 18 51 20 231 20 l197 0 0 -240z m-1555 -1221 c239 -15 645 -72 756 -105
21 -6 114 -226 164 -388 33 -102 97 -386 90 -394 -1 -1 -229 2 -506 8 -634 12
-1195 12 -1833 0 -275 -6 -501 -8 -504 -6 -13 13 56 308 106 457 48 141 123
309 142 319 27 14 275 58 450 80 380 46 736 56 1135 29z m985 -1039 c184 -5
358 -15 385 -21 190 -43 340 -202 376 -401 18 -97 19 -524 1 -628 -7 -41 -27
-104 -45 -140 l-32 -65 -2082 -3 -2083 -2 -26 52 c-40 79 -53 137 -65 312 -15
191 0 448 30 545 49 156 184 283 347 326 55 14 466 30 1029 39 350 6 1826 -4
2165 -14z m-2570 -2072 c-1 -136 -4 -198 -13 -209 -28 -36 -51 -39 -342 -39
l-286 0 -24 25 c-25 24 -25 25 -25 220 l0 195 345 0 345 0 0 -192z m3038 -4
l-3 -196 -28 -24 -28 -24 -290 0 -291 0 -29 29 -29 29 0 191 0 191 351 0 350
0 -3 -196z"/>
<path d="M2708 2348 c-24 -19 -278 -480 -278 -504 0 -12 8 -32 19 -45 15 -19
31 -24 95 -28 l76 -6 -95 -170 c-52 -93 -95 -180 -95 -191 0 -55 77 -92 117
-57 26 21 272 456 279 493 4 17 -2 35 -16 53 -20 25 -27 27 -97 27 -66 0 -74
2 -69 16 4 9 45 85 92 168 47 83 88 162 91 176 7 38 -30 80 -71 80 -18 0 -39
-6 -48 -12z"/>
<path d="M915 2137 c-204 -68 -322 -257 -293 -468 11 -85 52 -165 119 -232
168 -168 435 -165 598 8 196 207 139 536 -116 662 -69 34 -84 38 -172 40 -60
2 -111 -2 -136 -10z m221 -152 c145 -60 211 -234 141 -371 -50 -99 -130 -147
-242 -148 -109 0 -193 52 -240 148 -46 94 -32 215 33 291 26 31 83 71 117 83
45 16 151 14 191 -3z"/>
<path d="M4003 2135 c-107 -33 -203 -117 -255 -223 -31 -63 -33 -72 -33 -177
0 -108 1 -113 38 -187 62 -126 167 -204 310 -229 271 -49 530 211 479 482 -29
157 -137 282 -286 332 -60 20 -192 21 -253 2z m224 -150 c130 -55 198 -195
158 -330 -23 -81 -99 -157 -180 -180 -135 -40 -275 28 -330 158 -37 90 -7 224
66 294 72 68 199 94 286 58z"/>
</g>
</svg>
