<?xml version="1.0" standalone="no"?>
<!DOCTYPE svg PUBLIC "-//W3C//DTD SVG 20010904//EN"
 "http://www.w3.org/TR/2001/REC-SVG-20010904/DTD/svg10.dtd">
<svg version="1.0" xmlns="http://www.w3.org/2000/svg"
 width="512.000000pt" height="512.000000pt" viewBox="0 0 512.000000 512.000000"
 preserveAspectRatio="xMidYMid meet">
<metadata>
Created by potrace 1.16, written by Peter Selinger 2001-2019
</metadata>
<g transform="translate(0.000000,512.000000) scale(0.100000,-0.100000)"
fill="#cb2026" stroke="none">
<path d="M2512 5113 c-34 -14 -42 -59 -42 -253 0 -118 4 -199 11 -212 6 -11
26 -26 45 -34 29 -12 39 -12 68 0 19 8 39 23 45 34 7 13 11 94 11 212 0 238
-8 261 -93 259 -18 0 -38 -3 -45 -6z"/>
<path d="M1515 4835 c-43 -42 -35 -75 66 -251 50 -87 100 -167 111 -176 22
-20 79 -24 107 -8 25 13 45 64 37 95 -11 42 -166 308 -197 338 -38 36 -90 37
-124 2z"/>
<path d="M3481 4833 c-31 -30 -186 -296 -197 -338 -8 -31 12 -82 37 -95 28
-16 85 -12 107 8 11 9 61 89 111 176 101 176 109 209 66 251 -34 35 -86 34
-124 -2z"/>
<path d="M2410 4434 c-14 -2 -56 -9 -95 -15 -165 -26 -388 -119 -540 -224 -96
-67 -281 -254 -344 -348 -253 -378 -308 -832 -151 -1256 72 -196 169 -343 335
-506 164 -161 167 -167 174 -375 5 -129 11 -173 24 -201 23 -46 79 -103 118
-119 28 -12 29 -14 29 -85 0 -73 19 -146 45 -175 12 -14 10 -23 -15 -74 -23
-45 -30 -72 -30 -115 1 -60 19 -122 44 -149 14 -16 12 -23 -14 -76 -88 -173
29 -375 218 -376 39 0 57 5 72 20 29 29 35 67 17 106 -14 27 -26 36 -72 49
-85 25 -112 86 -59 136 25 24 30 24 222 27 117 1 206 7 218 13 47 24 57 93 20
136 l-24 28 -212 5 c-208 5 -212 5 -231 29 -21 26 -24 68 -6 92 26 35 54 39
241 39 197 0 226 6 245 47 18 40 13 73 -18 104 l-29 29 -192 0 c-241 0 -259 8
-260 108 l0 52 226 0 226 0 29 29 c31 31 36 64 18 104 -20 44 -44 47 -330 47
-275 0 -298 3 -326 39 -8 11 -12 58 -13 137 0 245 -23 297 -210 484 -212 211
-309 383 -366 645 -23 108 -23 340 0 450 75 356 287 645 600 817 461 255 1026
171 1401 -207 368 -370 456 -912 223 -1370 -64 -125 -121 -200 -262 -340 -182
-181 -206 -234 -206 -473 -1 -180 -3 -182 -218 -182 -144 0 -150 -1 -176 -25
-18 -17 -26 -34 -26 -59 0 -77 31 -96 160 -96 l90 0 0 -52 c-1 -81 -32 -108
-125 -108 -59 0 -109 -19 -119 -45 -15 -39 -6 -86 20 -110 23 -21 37 -25 91
-25 65 0 98 -11 120 -39 20 -26 15 -70 -12 -96 -20 -21 -34 -25 -84 -25 -101
0 -140 -25 -141 -91 0 -64 25 -83 119 -89 66 -5 85 -11 106 -30 33 -31 33 -73
0 -105 l-24 -25 -229 0 c-134 0 -242 -4 -259 -10 -57 -20 -74 -101 -32 -146
22 -24 26 -24 201 -24 102 0 178 -4 178 -9 0 -5 -15 -29 -33 -53 -69 -92 -197
-123 -302 -74 -27 12 -56 31 -64 40 -19 23 -65 46 -91 46 -30 0 -67 -27 -78
-58 -22 -66 32 -133 154 -193 66 -33 73 -34 184 -34 110 0 119 2 180 32 119
59 185 132 224 249 19 57 26 66 66 87 54 28 105 92 121 150 16 61 6 148 -25
203 -24 44 -25 48 -10 65 25 28 43 89 44 150 0 43 -7 70 -30 115 -25 51 -27
60 -15 74 26 29 45 102 45 175 0 71 1 73 29 85 16 6 45 28 65 47 61 62 70 91
77 268 4 88 11 171 15 185 13 45 37 73 159 195 139 138 215 241 285 387 100
211 134 363 134 598 0 105 -6 183 -17 243 -111 560 -526 982 -1087 1103 -71
15 -354 28 -410 18z"/>
<path d="M801 4123 c-29 -24 -38 -85 -18 -117 17 -25 313 -200 358 -211 57
-14 116 48 102 107 -10 38 -29 53 -193 147 -167 97 -207 108 -249 74z"/>
<path d="M4071 4051 c-85 -50 -162 -98 -172 -108 -20 -20 -27 -65 -15 -101 8
-23 53 -52 83 -52 26 0 350 187 368 213 19 27 19 60 0 96 -34 66 -80 58 -264
-48z"/>
<path d="M2062 3410 c-103 -22 -196 -95 -241 -190 -22 -47 -26 -68 -26 -150 0
-113 21 -167 95 -240 77 -78 123 -94 278 -98 l132 -4 0 -483 0 -484 24 -28
c31 -36 95 -39 128 -5 l23 23 3 489 3 490 79 0 79 0 3 -490 3 -489 23 -23 c33
-34 97 -31 128 5 l24 28 0 484 0 483 133 4 c154 4 200 20 277 98 74 73 95 127
95 240 0 82 -4 103 -26 150 -62 131 -209 212 -354 195 -69 -9 -166 -57 -210
-106 -68 -75 -88 -137 -93 -276 l-4 -123 -78 0 -78 0 -4 123 c-5 139 -25 201
-93 276 -73 80 -213 124 -323 101z m134 -189 c23 -10 54 -36 70 -57 27 -35 29
-44 32 -147 l4 -109 -115 4 c-124 3 -146 11 -190 70 -27 36 -34 116 -13 156
31 60 89 99 151 101 11 0 39 -8 61 -18z m881 -14 c96 -66 96 -199 -1 -271 -23
-18 -45 -22 -143 -24 l-115 -4 4 109 c3 103 5 112 32 147 57 75 150 93 223 43z"/>
<path d="M535 3135 c-35 -34 -34 -93 1 -126 25 -24 30 -24 222 -27 215 -3 236
2 260 51 17 34 8 81 -21 107 -19 19 -36 20 -229 20 -208 0 -209 0 -233 -25z"/>
<path d="M4123 3140 c-29 -26 -38 -73 -21 -107 24 -49 45 -54 260 -51 192 3
197 3 222 27 35 33 36 92 1 126 -24 25 -25 25 -233 25 -193 0 -210 -1 -229
-20z"/>
<path d="M970 2260 c-167 -97 -200 -124 -200 -171 0 -40 48 -89 87 -89 17 0
93 37 197 97 143 82 171 102 182 130 18 41 9 77 -23 103 -45 35 -77 26 -243
-70z"/>
<path d="M3904 2326 c-30 -25 -37 -74 -15 -114 15 -28 340 -212 374 -212 39 0
87 49 87 88 0 48 -31 74 -198 171 -174 99 -202 107 -248 67z"/>
</g>
</svg>
