<?xml version="1.0" standalone="no"?>
<!DOCTYPE svg PUBLIC "-//W3C//DTD SVG 20010904//EN"
 "http://www.w3.org/TR/2001/REC-SVG-20010904/DTD/svg10.dtd">
<svg version="1.0" xmlns="http://www.w3.org/2000/svg"
 width="512.000000pt" height="512.000000pt" viewBox="0 0 512.000000 512.000000"
 preserveAspectRatio="xMidYMid meet">

<g transform="translate(0.000000,512.000000) scale(0.100000,-0.100000)"
fill="#cb2026" stroke="none">
<path d="M1749 4944 c-397 -71 -728 -413 -777 -799 l-7 -60 -225 -6 c-199 -5
-233 -8 -290 -28 -170 -59 -303 -172 -378 -321 -75 -150 -72 -77 -72 -1473 l0
-1248 25 -24 c23 -24 29 -25 160 -25 l135 0 0 -215 c0 -216 0 -216 25 -240
l24 -25 283 0 283 0 29 -51 c59 -105 180 -199 316 -245 77 -26 244 -26 320 0
137 47 232 118 300 224 l45 71 775 0 775 1 29 -51 c59 -105 180 -199 316 -245
77 -26 244 -26 320 0 137 47 232 118 300 224 l45 71 283 0 283 1 24 25 25 24
0 293 c-1 316 -8 387 -53 517 -79 226 -281 432 -511 522 -123 48 -219 59 -497
59 l-249 0 -46 93 c-228 455 -616 753 -1099 843 -134 25 -402 26 -530 1 -346
-68 -668 -253 -879 -506 -80 -96 -161 -220 -219 -337 l-46 -92 -64 -11 c-158
-27 -279 -91 -392 -205 -139 -141 -202 -282 -212 -478 l-6 -108 -78 0 -79 0 0
1188 c0 1293 -2 1239 56 1354 59 116 196 220 327 247 30 7 130 10 237 9 l185
-3 7 -60 c17 -131 84 -296 173 -420 24 -35 80 -96 124 -136 267 -249 639 -323
984 -199 130 48 238 119 347 229 142 145 220 291 256 476 9 50 18 96 20 103 3
9 51 12 201 12 l198 0 15 -47 c10 -32 27 -56 53 -77 37 -30 43 -31 153 -34
l113 -4 24 -52 c30 -65 81 -117 150 -154 l52 -27 283 -3 282 -3 0 -55 c0 -66
29 -104 80 -104 19 0 40 9 55 25 24 23 25 29 25 160 l0 135 175 0 c173 0 176
0 200 25 33 32 33 78 0 110 -24 25 -27 25 -200 25 l-175 0 0 160 0 160 175 0
c173 0 176 0 200 25 33 32 33 78 0 110 -24 25 -27 25 -200 25 l-175 0 0 135
c0 131 -1 137 -25 160 -15 16 -36 25 -55 25 -51 0 -80 -38 -80 -104 l0 -55
-282 -3 -283 -3 -52 -27 c-69 -37 -120 -89 -150 -155 l-24 -53 -100 0 c-62 0
-112 -5 -132 -14 -43 -17 -85 -68 -93 -111 l-6 -35 -199 0 c-151 0 -200 3
-203 13 -2 6 -11 53 -20 102 -36 186 -115 333 -256 476 -109 110 -218 182
-347 229 -161 58 -342 74 -504 44z m294 -155 c221 -34 423 -166 547 -356 89
-136 125 -259 125 -433 0 -174 -36 -298 -124 -432 -240 -366 -718 -476 -1087
-249 -418 258 -510 824 -194 1196 183 215 455 317 733 274z m2357 -789 l0
-321 -268 3 -269 3 -37 29 c-60 46 -66 70 -66 285 0 197 5 228 43 270 43 47
65 50 340 51 l257 0 0 -320z m-800 0 l0 -80 -80 0 -80 0 0 80 0 80 80 0 80 0
0 -80z m-925 -1309 c315 -69 590 -240 779 -485 75 -96 115 -163 190 -313 31
-62 64 -116 74 -122 9 -5 161 -11 337 -13 315 -4 321 -5 400 -31 115 -38 199
-91 290 -182 91 -91 144 -175 182 -290 26 -77 27 -91 31 -347 l4 -268 -204 0
-203 0 3 68 c7 148 -52 296 -163 407 -114 115 -234 165 -395 165 -161 0 -281
-50 -395 -165 -111 -111 -170 -259 -163 -407 l3 -68 -725 0 -725 0 3 68 c7
148 -52 296 -163 407 -114 115 -234 165 -395 165 -161 0 -281 -50 -395 -165
-111 -111 -170 -259 -163 -407 l3 -68 -202 0 -203 0 0 303 c0 172 5 329 11
363 40 226 241 416 470 445 138 17 125 7 209 169 95 183 152 268 252 375 209
223 499 372 803 414 106 15 344 5 450 -18z m-1071 -1609 c91 -42 149 -100 194
-190 35 -72 37 -81 37 -172 0 -91 -2 -100 -37 -172 -45 -91 -103 -147 -196
-191 -61 -29 -76 -32 -162 -32 -86 0 -101 3 -162 32 -93 44 -151 100 -196 191
-35 72 -37 81 -37 171 0 87 3 102 32 163 40 85 97 147 172 186 78 42 122 52
213 48 61 -3 92 -11 142 -34z m2560 0 c91 -42 149 -100 194 -190 35 -72 37
-81 37 -172 0 -91 -2 -100 -37 -172 -45 -91 -103 -147 -196 -191 -61 -29 -76
-32 -162 -32 -86 0 -101 3 -162 32 -93 44 -151 100 -196 191 -35 72 -37 81
-37 171 0 87 3 102 32 163 40 85 97 147 172 186 78 42 122 52 213 48 61 -3 92
-11 142 -34z"/>
<path d="M1687 4319 c-199 -177 -372 -332 -384 -346 -31 -32 -30 -77 2 -108
24 -25 27 -25 200 -25 l175 0 0 -215 c0 -216 0 -216 25 -240 43 -44 74 -35
173 52 382 338 641 569 660 590 30 32 29 77 -3 108 -24 25 -27 25 -200 25
l-175 0 0 215 c0 216 0 216 -25 240 -53 54 -53 54 -448 -296z m336 -296 c14
-14 40 -19 129 -23 l112 -5 -209 -186 -210 -187 -5 169 c-6 212 1 202 -153
209 l-111 5 209 186 210 186 5 -168 c4 -144 8 -171 23 -186z"/>
<path d="M2210 2625 c-410 -65 -758 -321 -944 -692 -42 -85 -45 -115 -11 -148
l24 -25 1121 0 1121 0 24 25 c14 13 25 36 25 50 0 33 -58 149 -125 250 -266
398 -761 615 -1235 540z m110 -425 l0 -280 -441 0 c-349 0 -439 3 -433 13 67
114 180 240 290 322 163 123 340 192 577 224 4 1 7 -125 7 -279z m310 253
c297 -61 569 -257 724 -520 6 -10 -84 -13 -433 -13 l-441 0 0 279 0 280 38 -5
c20 -3 71 -12 112 -21z"/>
<path d="M2585 1575 c-16 -15 -25 -36 -25 -55 0 -19 9 -40 25 -55 23 -24 28
-25 175 -25 147 0 152 1 175 25 16 15 25 36 25 55 0 19 -9 40 -25 55 -23 24
-28 25 -175 25 -147 0 -152 -1 -175 -25z"/>
<path d="M1340 1024 c-142 -52 -229 -183 -218 -327 26 -318 443 -407 597 -127
33 60 36 71 36 150 -1 72 -5 93 -27 136 -39 75 -70 107 -138 143 -76 41 -179
51 -250 25z m163 -158 c103 -43 128 -177 48 -257 -65 -65 -157 -65 -222 0
-124 123 13 325 174 257z"/>
<path d="M3900 1024 c-142 -52 -229 -183 -218 -327 26 -318 443 -407 597 -127
33 60 36 71 36 150 -1 72 -5 93 -27 136 -39 75 -70 107 -138 143 -76 41 -179
51 -250 25z m163 -158 c103 -43 128 -177 48 -257 -65 -65 -157 -65 -222 0
-124 123 13 325 174 257z"/>
</g>
</svg>
