<?xml version="1.0" standalone="no"?>
<!DOCTYPE svg PUBLIC "-//W3C//DTD SVG 20010904//EN"
 "http://www.w3.org/TR/2001/REC-SVG-20010904/DTD/svg10.dtd">
<svg version="1.0" xmlns="http://www.w3.org/2000/svg"
 width="512.000000pt" height="512.000000pt" viewBox="0 0 512.000000 512.000000"
 preserveAspectRatio="xMidYMid meet">

<g transform="translate(0.000000,512.000000) scale(0.100000,-0.100000)"
fill="#cb2026" stroke="none">
<path d="M1852 4917 c-21 -22 -22 -31 -22 -244 l0 -222 26 -20 c26 -20 39 -21
300 -21 l274 0 0 -95 0 -95 -542 0 c-299 0 -572 -5 -608 -10 -89 -13 -195 -67
-254 -130 -202 -216 -137 -567 129 -691 84 -40 152 -49 373 -49 l183 0 -3 -77
-3 -78 -311 -5 -311 -5 -49 -30 c-53 -33 -107 -104 -124 -163 -6 -22 -10 -171
-10 -359 l0 -323 -70 0 -69 0 -3 265 c-3 260 -3 265 -26 287 -22 23 -26 23
-268 23 l-246 0 -19 -24 c-18 -22 -19 -51 -19 -860 l0 -838 23 -21 c23 -21 30
-22 269 -22 l247 0 20 26 c20 25 21 39 21 285 l0 259 69 0 70 0 3 -317 c4
-354 4 -355 75 -433 21 -24 61 -54 88 -66 44 -21 65 -24 173 -24 l122 0 0
-304 c0 -428 -10 -421 305 -206 116 79 216 150 223 158 8 11 12 64 12 184 l0
168 90 0 90 0 0 -305 c0 -423 -9 -416 299 -205 112 77 213 147 223 157 16 14
18 34 18 185 l0 168 90 0 90 0 0 -305 c0 -423 -9 -416 299 -205 112 77 213
147 223 157 16 14 18 34 18 185 l0 168 90 0 90 0 0 -305 c0 -423 -9 -416 299
-205 112 77 213 147 223 157 16 14 18 34 18 185 l0 168 203 0 c174 0 206 2
227 17 58 39 338 258 374 292 21 20 49 59 62 86 l24 50 0 707 c0 776 2 753
-61 844 -17 25 -109 104 -226 195 l-198 154 -383 3 -383 3 3 77 3 77 235 5
c259 6 285 11 383 78 129 89 204 265 179 418 -30 181 -166 326 -340 363 -36 7
-237 11 -617 11 l-565 0 0 100 0 100 279 0 280 0 20 26 c20 25 21 39 21 236 0
208 0 209 -25 233 l-24 25 -829 0 -829 0 -21 -23z m378 -242 l0 -125 -130 0
-130 0 0 125 0 125 130 0 130 0 0 -125z m400 0 l0 -125 -130 0 -130 0 0 118
c0 65 3 122 7 125 3 4 62 7 130 7 l123 0 0 -125z m405 0 l0 -120 -126 -3 -126
-3 -7 47 c-8 62 -8 189 1 198 4 3 63 5 132 4 l126 -3 0 -120z m403 3 l3 -118
-131 0 -130 0 0 120 0 121 128 -3 127 -3 3 -117z m-608 -358 l0 -100 -130 0
-130 0 0 93 c0 52 3 97 7 100 3 4 62 7 130 7 l123 0 0 -100z m1367 -268 c111
-59 167 -149 167 -266 0 -93 -29 -161 -96 -221 -91 -81 32 -76 -1578 -73
l-1435 3 -42 23 c-107 56 -165 146 -166 255 -1 140 71 245 198 289 47 16 143
17 1480 15 l1430 -2 42 -23z m-637 -782 l0 -80 -861 0 -861 0 6 31 c3 17 6 53
6 80 l0 49 855 0 855 0 0 -80z m810 -425 l0 -205 -1666 0 -1666 0 4 158 c3
175 10 195 71 232 31 20 64 20 1645 20 l1612 0 0 -205z m290 13 c93 -75 117
-100 128 -132 10 -31 12 -190 10 -730 l-3 -691 -23 -32 c-19 -27 -204 -180
-249 -207 -10 -6 -13 187 -13 949 0 907 1 955 18 946 9 -6 69 -52 132 -103z
m-4040 -863 l0 -746 -147 3 -148 3 -3 730 c-1 402 0 736 3 743 3 9 43 12 150
12 l145 0 0 -745z m3740 -255 l0 -760 -149 0 -150 0 -3 448 c-3 433 -4 448
-25 494 -64 138 -236 200 -371 132 -56 -28 -90 -63 -125 -128 -22 -40 -22 -49
-25 -493 l-3 -453 -84 0 -84 0 -3 448 c-3 433 -4 448 -25 494 -64 138 -236
200 -371 132 -56 -28 -90 -63 -125 -128 -22 -40 -22 -49 -25 -493 l-3 -453
-84 0 -84 0 -3 448 c-3 433 -4 448 -25 494 -64 138 -236 200 -371 132 -56 -28
-90 -63 -125 -128 -22 -40 -22 -49 -25 -493 l-3 -453 -84 0 -84 0 -3 448 c-3
433 -4 448 -25 494 -64 138 -236 200 -371 132 -56 -28 -90 -63 -125 -128 -22
-40 -22 -49 -25 -493 l-3 -453 -105 0 c-119 0 -153 12 -184 63 -19 31 -20 55
-20 745 l0 712 1660 0 1660 0 0 -760z m-3460 255 l0 -175 -70 0 -70 0 0 175 0
175 70 0 70 0 0 -175z m791 -70 c16 -9 39 -30 49 -48 19 -31 20 -54 20 -672
l-1 -640 -129 -87 -130 -88 0 736 0 736 39 39 c32 33 45 39 80 39 23 0 55 -7
72 -15z m724 -5 c62 -38 60 -14 63 -712 l3 -636 -133 -92 -133 -91 -3 721 c-2
795 -4 771 60 810 42 25 102 26 143 0z m720 0 c62 -38 60 -14 63 -712 l3 -636
-133 -92 -133 -91 -3 721 c-2 795 -4 771 60 810 42 25 102 26 143 0z m720 0
c62 -38 60 -14 63 -712 l3 -636 -133 -92 -133 -91 -3 721 c-2 795 -4 771 60
810 42 25 102 26 143 0z"/>
<path d="M1695 3961 c-155 -72 -151 -289 7 -356 161 -67 322 102 249 260 -46
99 -158 141 -256 96z m117 -138 c34 -31 11 -93 -35 -93 -27 0 -57 28 -57 53 0
48 56 73 92 40z"/>
<path d="M2612 3959 c-152 -76 -125 -315 40 -360 147 -39 285 104 238 246 -16
47 -66 104 -107 121 -48 21 -121 17 -171 -7z m130 -136 c35 -31 10 -93 -38
-93 -48 0 -70 55 -37 92 20 22 51 23 75 1z"/>
<path d="M3533 3955 c-145 -88 -114 -312 49 -356 122 -32 243 62 243 191 0 65
-22 109 -78 154 -33 26 -48 31 -105 34 -58 3 -73 -1 -109 -23z m137 -135 c24
-24 25 -38 4 -68 -16 -24 -44 -28 -75 -12 -38 21 -13 100 33 100 10 0 27 -9
38 -20z"/>
</g>
</svg>
