<?xml version="1.0" standalone="no"?>
<!DOCTYPE svg PUBLIC "-//W3C//DTD SVG 20010904//EN"
 "http://www.w3.org/TR/2001/REC-SVG-20010904/DTD/svg10.dtd">
<svg version="1.0" xmlns="http://www.w3.org/2000/svg"
 width="512.000000pt" height="512.000000pt" viewBox="0 0 512.000000 512.000000"
 preserveAspectRatio="xMidYMid meet">
<metadata>
Created by potrace 1.16, written by Peter Selinger 2001-2019
</metadata>
<g transform="translate(0.000000,512.000000) scale(0.100000,-0.100000)"
fill="#cb2026" stroke="none">
<path d="M1645 4245 c-25 -24 -25 -24 -25 -232 1 -148 4 -213 13 -224 28 -37
50 -39 361 -39 l306 0 0 -80 0 -80 -268 0 c-214 0 -272 -3 -288 -14 -11 -8
-92 -122 -179 -254 l-160 -241 -253 -3 -254 -3 -24 -28 -24 -28 0 -270 0 -269
-80 0 -80 0 0 255 c0 288 -5 314 -60 334 -42 14 -366 15 -407 1 -23 -8 -52
-44 -126 -156 l-97 -145 0 -168 0 -167 85 -124 85 -124 0 -388 c0 -373 1 -389
20 -408 29 -29 50 -32 258 -28 260 4 236 -28 240 323 l3 275 79 0 80 0 0 -272
c1 -199 4 -277 13 -289 27 -36 52 -39 296 -39 l241 0 159 -239 c88 -132 170
-246 183 -255 20 -14 147 -16 1290 -16 l1267 0 28 24 28 24 3 401 3 401 79 0
80 0 0 -314 0 -313 26 -27 c27 -26 27 -26 192 -26 l164 0 109 108 109 107 0
725 0 725 -110 110 -110 110 -166 0 -166 0 -24 -28 c-24 -28 -24 -29 -24 -258
l0 -229 -80 0 -80 0 0 300 c0 337 -3 359 -60 379 -22 7 -129 11 -309 11 l-276
0 -160 241 c-87 133 -168 247 -179 255 -16 11 -74 14 -288 14 l-268 0 0 80 0
80 306 0 c311 0 333 2 361 39 9 11 12 76 13 224 0 208 0 208 -25 232 l-24 25
-891 0 -891 0 -24 -25z m1675 -235 l0 -80 -760 0 -760 0 0 80 0 80 760 0 760
0 0 -80z m-680 -340 l0 -80 -80 0 -80 0 0 80 0 80 80 0 80 0 0 -80z m800 -506
c90 -135 172 -250 181 -255 10 -5 63 -9 118 -9 l101 0 0 -935 0 -935 -1000 0
-1000 0 -162 244 c-94 141 -173 249 -186 255 -14 7 -108 11 -242 11 l-220 0 0
680 0 680 226 0 c124 0 233 4 243 9 9 5 91 120 181 255 l163 246 717 0 717 0
163 -246z m-2930 -944 l0 -680 -80 0 -80 0 0 340 c0 270 -3 348 -14 374 -8 19
-46 81 -85 140 l-71 105 0 106 0 106 51 77 c80 119 68 112 181 112 l98 0 0
-680z m3670 -255 l0 -935 -80 0 -80 0 0 935 0 935 80 0 80 0 0 -935z m702 708
l58 -57 0 -650 0 -650 -57 -58 -57 -58 -63 0 -63 0 0 765 0 765 62 0 62 0 58
-57z m-4032 -453 l0 -80 -80 0 -80 0 0 80 0 80 80 0 80 0 0 -80z m3670 -175
l0 -165 -80 0 -80 0 0 165 0 165 80 0 80 0 0 -165z"/>
<path d="M2855 3148 c-21 -13 -954 -864 -1022 -934 -52 -52 -58 -96 -19 -141
l24 -28 216 -3 c164 -3 216 -6 216 -16 0 -7 -31 -153 -70 -326 -38 -173 -70
-327 -70 -342 0 -44 40 -78 90 -78 35 0 49 7 93 48 29 27 269 247 535 491
l482 442 0 40 c0 29 -7 47 -25 64 l-24 25 -219 0 -219 0 74 328 c78 348 83
392 43 424 -25 20 -75 23 -105 6z m-110 -360 c-2 -7 -27 -118 -55 -246 -34
-155 -49 -243 -45 -263 12 -53 42 -63 206 -69 l148 -5 -312 -286 c-172 -158
-313 -286 -314 -285 -1 1 23 113 53 250 31 136 53 258 50 269 -3 12 -12 31
-20 42 -13 18 -29 20 -178 25 l-164 5 313 288 c173 158 316 287 318 287 2 0 3
-6 0 -12z"/>
<path d="M1190 2650 l0 -90 90 0 90 0 0 90 0 90 -90 0 -90 0 0 -90z"/>
<path d="M1190 2045 l0 -345 90 0 90 0 0 345 0 345 -90 0 -90 0 0 -345z"/>
</g>
</svg>
