<?xml version="1.0" standalone="no"?>
<!DOCTYPE svg PUBLIC "-//W3C//DTD SVG 20010904//EN"
 "http://www.w3.org/TR/2001/REC-SVG-20010904/DTD/svg10.dtd">
<svg version="1.0" xmlns="http://www.w3.org/2000/svg"
 width="512.000000pt" height="512.000000pt" viewBox="0 0 512.000000 512.000000"
 preserveAspectRatio="xMidYMid meet">

<g transform="translate(0.000000,512.000000) scale(0.100000,-0.100000)"
fill="#cb2026" stroke="none">
<path d="M1601 4336 c-163 -59 -206 -280 -75 -394 23 -21 60 -44 82 -50 26 -8
134 -12 321 -12 l281 0 0 -110 0 -110 -437 0 c-260 0 -452 -4 -473 -10 -49
-14 -577 -377 -612 -421 -40 -49 -48 -114 -48 -376 l0 -223 -84 0 -85 0 -3
293 -3 294 -30 49 c-19 30 -49 60 -79 79 -43 26 -59 30 -121 30 -62 0 -78 -4
-121 -30 -30 -19 -60 -49 -79 -79 l-30 -49 0 -832 0 -832 30 -49 c19 -30 49
-60 79 -79 43 -26 59 -30 121 -30 62 0 78 4 121 30 30 19 60 49 79 79 l30 49
3 314 3 313 85 0 84 0 0 -219 c0 -241 8 -307 45 -363 23 -35 91 -71 815 -433
l790 -395 148 0 c135 0 150 2 170 20 30 28 30 82 0 110 -20 18 -35 20 -155 20
l-133 0 -743 371 c-408 204 -750 378 -759 387 -17 14 -18 62 -18 738 l0 723
33 24 c17 14 140 97 271 186 l239 161 1059 0 1058 0 363 -302 c199 -167 392
-329 430 -361 l67 -58 0 -918 c0 -877 -1 -919 -18 -934 -17 -16 -82 -17 -734
-17 l-715 0 -21 -23 c-29 -31 -29 -77 1 -105 l24 -22 735 2 735 3 48 30 c74
46 96 96 103 235 l5 110 82 0 82 0 5 -80 c6 -99 39 -159 112 -205 43 -26 59
-30 121 -30 62 0 78 4 121 30 30 19 60 49 79 79 l30 49 3 472 c3 467 3 472
-18 498 -29 37 -80 37 -109 1 -21 -26 -21 -37 -21 -471 0 -319 -3 -450 -12
-466 -17 -32 -39 -46 -73 -46 -34 0 -56 14 -73 46 -9 16 -12 228 -12 803 l0
782 29 29 c18 17 40 29 56 29 16 0 38 -12 56 -29 l29 -29 0 -197 c0 -108 4
-204 10 -214 5 -10 22 -24 39 -30 24 -10 34 -10 60 3 17 9 33 27 37 40 3 13 4
117 2 232 -3 232 -6 242 -74 308 -38 37 -108 66 -159 66 -80 0 -173 -58 -212
-133 -9 -18 -18 -65 -21 -109 l-5 -78 -82 0 -83 0 -4 153 c-3 131 -7 158 -26
198 -18 38 -89 101 -452 404 -237 198 -445 369 -463 380 -30 19 -50 20 -454
23 l-423 3 0 109 0 110 293 0 c285 0 293 1 342 24 88 40 135 114 135 211 0 99
-44 168 -135 211 l-50 24 -516 0 c-490 0 -518 -1 -540 -19 -32 -26 -32 -86 0
-112 22 -18 50 -19 533 -19 l509 0 24 -25 c17 -16 25 -35 25 -60 0 -25 -8 -44
-25 -60 l-24 -25 -791 0 -791 0 -24 25 c-38 37 -37 88 1 123 24 21 34 22 168
22 130 0 146 2 170 21 36 28 36 80 0 108 -24 19 -39 21 -178 20 -92 0 -164 -5
-185 -13z m909 -566 l0 -110 -75 0 -75 0 0 110 0 110 75 0 75 0 0 -110z
m-2219 -569 l29 -29 0 -787 0 -787 -29 -29 c-38 -38 -74 -38 -112 0 l-29 29 0
787 0 787 29 29 c18 17 40 29 56 29 16 0 38 -12 56 -29z m349 -796 l0 -75 -85
0 -85 0 0 75 0 75 85 0 85 0 0 -75z m4010 -580 l0 -525 -85 0 -85 0 0 525 0
525 85 0 85 0 0 -525z"/>
<path d="M2862 3039 c-37 -14 -751 -529 -772 -557 -12 -15 -20 -40 -20 -64 0
-37 7 -48 95 -138 52 -54 95 -102 95 -107 0 -8 -8 -36 -108 -364 -45 -146 -50
-171 -41 -203 7 -25 21 -44 42 -56 59 -36 85 -28 234 73 76 51 256 173 400
270 144 98 269 187 278 199 8 13 15 42 15 65 0 40 -6 49 -116 168 l-116 126
81 237 c45 130 81 243 81 250 0 32 -34 81 -65 96 -37 18 -50 19 -83 5z m-108
-400 c-49 -144 -64 -198 -59 -221 5 -19 45 -71 109 -140 55 -60 102 -113 103
-116 1 -4 -137 -101 -307 -215 -171 -114 -310 -206 -310 -202 0 3 29 101 65
218 49 158 64 220 60 246 -5 24 -30 57 -90 120 l-85 88 288 206 c158 113 288
206 289 206 1 1 -27 -85 -63 -190z"/>
</g>
</svg>
