<?xml version="1.0" standalone="no"?>
<!DOCTYPE svg PUBLIC "-//W3C//DTD SVG 20010904//EN"
 "http://www.w3.org/TR/2001/REC-SVG-20010904/DTD/svg10.dtd">
<svg version="1.0" xmlns="http://www.w3.org/2000/svg"
 width="512.000000pt" height="512.000000pt" viewBox="0 0 512.000000 512.000000"
 preserveAspectRatio="xMidYMid meet">

<g transform="translate(0.000000,512.000000) scale(0.100000,-0.100000)"
fill="#cb2026" stroke="none">
<path d="M97 4462 c-24 -26 -22 -84 4 -108 19 -18 44 -19 313 -24 l291 -5 57
-28 c72 -35 150 -119 176 -190 10 -28 25 -95 31 -147 16 -124 17 -128 52 -145
36 -19 75 -10 96 22 14 22 15 36 4 121 -16 126 -29 176 -59 237 -40 83 -101
153 -171 199 -125 82 -118 80 -466 84 -294 3 -312 2 -328 -16z"/>
<path d="M97 4162 c-24 -26 -22 -84 4 -108 19 -17 42 -19 279 -22 203 -2 261
-6 270 -17 6 -7 35 -197 65 -422 30 -224 57 -425 61 -445 l6 -38 -325 0 c-313
0 -325 -1 -351 -21 -30 -23 -35 -72 -12 -105 14 -18 35 -19 603 -25 652 -6
634 -4 779 -75 179 -88 315 -256 365 -452 16 -62 19 -110 19 -279 l0 -203
-285 0 -284 0 -56 39 c-157 110 -373 154 -563 115 -160 -33 -279 -101 -397
-226 -88 -93 -154 -216 -180 -333 -26 -115 -17 -293 19 -400 37 -109 96 -205
176 -286 l67 -69 -137 0 c-75 0 -151 -5 -169 -11 -54 -19 -69 -79 -28 -117
l23 -22 2515 0 2516 0 21 23 c39 41 25 97 -29 116 -23 8 -565 11 -1913 11
l-1881 0 75 78 c41 42 90 105 108 140 18 34 34 62 35 62 1 0 27 -10 57 -23 53
-21 66 -22 466 -25 405 -3 410 -3 437 18 l27 21 0 200 c0 253 9 239 -161 239
-112 0 -121 1 -114 18 31 72 37 101 31 159 -10 110 -80 210 -181 254 l-43 19
-4 238 c-4 233 -5 239 -35 329 -103 308 -352 524 -666 577 l-72 12 -11 80 c-6
43 -21 157 -34 253 -26 193 -34 211 -94 211 -36 0 -61 -17 -71 -49 -3 -11 8
-120 25 -243 16 -124 30 -230 30 -236 0 -8 -24 -12 -75 -12 -41 0 -75 3 -75 6
0 3 -27 211 -61 462 -67 501 -68 506 -142 566 l-39 31 -287 3 c-270 3 -288 2
-304 -16z m829 -2203 c100 -18 230 -87 307 -165 107 -107 177 -272 177 -419 0
-259 -193 -503 -450 -570 -88 -23 -251 -17 -334 13 -171 62 -305 196 -368 368
-29 81 -36 245 -14 335 27 105 73 186 156 270 141 143 330 203 526 168z m1095
-182 c91 -61 89 -181 -5 -251 -25 -19 -44 -21 -246 -24 l-219 -3 -11 43 c-18
72 -41 130 -76 196 l-34 62 279 0 c272 0 279 0 312 -23z m309 -517 l0 -91
-352 3 c-346 3 -354 3 -396 26 -31 16 -42 28 -38 40 2 9 7 38 11 65 l6 47 385
0 384 0 0 -90z"/>
<path d="M693 1776 c-166 -54 -292 -225 -293 -396 0 -110 57 -239 139 -311
193 -171 491 -129 630 89 72 113 81 272 23 395 -40 87 -112 159 -200 200 -58
27 -79 32 -162 34 -60 2 -110 -2 -137 -11z m244 -159 c84 -44 135 -126 141
-230 4 -58 0 -75 -22 -122 -109 -221 -430 -193 -496 45 -33 119 29 252 144
307 43 20 62 23 126 20 44 -2 88 -11 107 -20z"/>
<path d="M4145 3546 c-397 -78 -673 -405 -678 -804 l-2 -112 -35 -6 c-222 -37
-408 -173 -504 -369 -47 -94 -66 -176 -66 -277 l0 -84 -61 -29 c-294 -139
-362 -530 -133 -759 150 -150 393 -181 577 -73 61 36 152 137 184 205 l27 58
81 1 c306 3 564 214 638 521 l21 87 110 1 c168 1 348 54 361 107 10 40 2 69
-27 90 l-27 20 -93 -31 c-120 -40 -211 -48 -334 -31 l-97 13 -23 -28 c-19 -22
-24 -39 -24 -84 -1 -314 -279 -554 -591 -510 -87 12 -113 -1 -129 -64 -28
-113 -92 -195 -185 -240 -155 -73 -341 -9 -423 147 -24 44 -27 61 -27 145 0
87 3 100 30 149 16 29 49 70 73 92 43 37 133 79 172 79 10 0 27 11 38 25 17
22 19 36 14 138 -4 88 -1 126 13 172 36 126 111 228 220 301 72 48 155 75 257
81 74 5 90 9 109 29 22 23 22 26 9 124 -13 105 -9 174 17 275 54 213 226 396
444 470 75 26 98 29 209 28 108 0 136 -3 205 -26 108 -36 194 -89 274 -168 79
-79 132 -166 168 -274 37 -112 39 -284 5 -395 -28 -89 -76 -178 -132 -246 -49
-60 -54 -102 -14 -133 15 -12 38 -21 52 -21 63 0 194 202 244 376 32 113 32
315 0 428 -41 144 -114 268 -217 371 -103 104 -236 181 -374 216 -99 26 -264
33 -356 15z"/>
<path d="M1483 2595 c-32 -16 -61 -41 -79 -67 -28 -40 -29 -45 -32 -192 -3
-143 -2 -153 21 -196 13 -25 43 -58 66 -75 37 -26 51 -30 111 -30 60 0 74 4
111 30 23 17 53 50 66 75 23 43 24 53 21 196 -3 146 -4 152 -31 193 -32 49
-110 91 -168 91 -19 0 -58 -11 -86 -25z m119 -142 c15 -14 18 -32 18 -129 0
-119 -9 -144 -50 -144 -41 0 -50 25 -50 142 0 90 3 115 17 130 20 22 41 23 65
1z"/>
</g>
</svg>
