<?xml version="1.0" standalone="no"?>
<!DOCTYPE svg PUBLIC "-//W3C//DTD SVG 20010904//EN"
 "http://www.w3.org/TR/2001/REC-SVG-20010904/DTD/svg10.dtd">
<svg version="1.0" xmlns="http://www.w3.org/2000/svg"
 width="512.000000pt" height="512.000000pt" viewBox="0 0 512.000000 512.000000"
 preserveAspectRatio="xMidYMid meet">
<metadata>
Created by potrace 1.16, written by Peter Selinger 2001-2019
</metadata>
<g transform="translate(0.000000,512.000000) scale(0.100000,-0.100000)"
fill="#cb2026" stroke="none">
<path d="M2879 5097 c-57 -30 -104 -93 -118 -155 -10 -49 -6 -112 10 -143 6
-12 -196 -219 -865 -888 l-872 -872 -54 12 c-186 40 -332 -125 -279 -314 7
-26 35 -64 84 -115 l73 -77 -177 -180 c-187 -190 -222 -239 -257 -360 -11 -40
-17 -93 -16 -161 0 -115 26 -205 83 -297 18 -28 125 -145 238 -259 l205 -208
-82 -84 c-75 -76 -82 -87 -82 -123 0 -46 20 -70 68 -79 31 -6 39 0 162 122
118 116 130 131 130 163 0 32 -18 54 -244 281 -198 199 -249 257 -274 306 -40
79 -54 164 -41 246 19 115 47 158 233 346 l170 173 120 -120 121 -121 -153
-153 c-136 -137 -152 -157 -152 -187 0 -31 22 -56 239 -275 132 -132 253 -262
270 -289 17 -27 38 -82 47 -124 14 -64 15 -85 5 -141 -25 -134 -35 -147 -390
-504 l-326 -327 -120 120 -120 120 98 98 c88 88 97 101 97 134 0 48 -31 78
-79 78 -32 0 -48 -13 -173 -138 -123 -123 -138 -141 -138 -172 0 -31 18 -52
197 -232 191 -192 199 -198 238 -198 39 0 45 5 411 372 394 397 410 416 450
553 23 80 23 230 0 310 -37 126 -68 167 -295 398 l-215 218 112 112 112 112
482 -482 c332 -331 495 -487 520 -498 46 -19 148 -20 191 -2 106 45 169 172
138 282 l-11 40 720 720 720 721 0 41 c0 65 -56 101 -113 72 -12 -6 -340 -329
-730 -718 l-707 -706 -693 693 -692 692 863 862 862 863 692 -692 692 -692
-57 -60 c-50 -52 -57 -65 -57 -100 0 -31 6 -44 26 -60 48 -38 80 -27 165 56
l56 55 43 -12 c122 -33 249 41 286 165 29 102 3 174 -106 289 l-69 72 110 110
c113 112 139 146 139 185 0 16 -51 74 -167 191 -217 218 -196 215 -369 46
l-124 -122 -45 44 -45 44 125 126 c170 172 172 148 -43 363 -214 214 -191 211
-361 42 l-126 -124 -250 248 c-152 151 -267 257 -292 270 -61 30 -164 29 -224
-2z m920 -911 c689 -689 774 -778 774 -805 0 -58 -59 -94 -111 -67 -39 21
-1530 1516 -1540 1546 -19 50 18 100 72 100 28 0 117 -86 805 -774z m221 359
l85 -85 -85 -85 -85 -85 -87 87 -88 88 82 82 c46 46 85 83 88 83 3 0 43 -38
90 -85z m498 -498 l82 -82 -85 -85 -85 -85 -85 85 -85 85 82 82 c46 46 85 83
88 83 3 0 42 -37 88 -83z m-2780 -1930 c837 -837 802 -798 747 -852 -16 -17
-35 -25 -57 -25 -30 0 -96 63 -801 768 -422 422 -770 777 -773 790 -15 55 32
108 86 96 16 -3 302 -282 798 -777z"/>
</g>
</svg>
