<?xml version="1.0" standalone="no"?>
<!DOCTYPE svg PUBLIC "-//W3C//DTD SVG 20010904//EN"
 "http://www.w3.org/TR/2001/REC-SVG-20010904/DTD/svg10.dtd">
<svg version="1.0" xmlns="http://www.w3.org/2000/svg"
 width="256.000000pt" height="252.000000pt" viewBox="0 0 256.000000 252.000000"
 preserveAspectRatio="xMidYMid meet">
<metadata>
Created by potrace 1.16, written by Peter Selinger 2001-2019
</metadata>
<g transform="translate(0.000000,252.000000) scale(0.100000,-0.100000)"
fill="#cb2026" stroke="none">
<path d="M1085 2504 c-259 -48 -510 -173 -688 -344 -196 -186 -337 -448 -382
-707 -19 -110 -19 -326 0 -435 77 -443 434 -838 870 -962 266 -76 537 -76 777
0 245 78 481 247 644 463 72 95 171 288 204 396 69 230 67 558 -6 773 -91 269
-295 516 -546 663 -90 53 -229 106 -358 136 -135 32 -391 41 -515 17z m152
-521 c-6 -395 -11 -424 -58 -330 -23 46 -153 268 -255 437 -34 58 -66 113 -69
122 -5 12 7 21 52 38 100 38 226 69 282 69 l54 1 -6 -337z m346 312 c78 -20
167 -65 167 -83 0 -8 -28 -60 -63 -116 -35 -55 -83 -135 -107 -176 -86 -149
-193 -311 -204 -307 -12 4 -22 641 -11 686 6 23 8 24 83 18 42 -4 103 -13 135
-22z m462 -272 c87 -88 115 -128 99 -142 -13 -13 -435 -258 -532 -309 -45 -24
-87 -40 -92 -37 -15 9 -12 34 9 63 10 15 62 104 116 197 54 94 125 214 158
267 l61 97 50 -27 c28 -15 87 -64 131 -109z m-1307 115 c11 -14 108 -183 252
-438 117 -207 115 -210 -101 -87 -90 52 -230 131 -311 177 -82 46 -148 86
-148 89 0 26 186 209 255 252 36 22 39 23 53 7z m1539 -445 c29 -73 80 -289
72 -298 -3 -2 -164 -7 -360 -11 -276 -5 -360 -4 -378 6 -23 12 -23 12 -5 30
11 9 144 88 296 174 153 87 280 162 283 167 4 5 19 9 34 9 25 0 30 -7 58 -77z
m-1582 -109 c162 -93 295 -175 295 -181 0 -20 -25 -22 -391 -28 -399 -8 -382
-11 -368 76 14 90 75 257 107 292 10 11 25 17 40 14 12 -2 155 -80 317 -173z
m661 -134 c61 -23 96 -102 75 -169 -13 -44 -70 -100 -104 -102 -105 -5 -157
30 -178 118 -7 31 -4 46 14 82 35 70 116 100 193 71z m-378 -225 c-3 -16 -315
-202 -590 -353 l-77 -42 -16 23 c-29 45 -63 165 -76 270 -7 59 -9 110 -5 114
9 10 748 21 759 12 5 -4 7 -15 5 -24z m1355 25 c14 0 17 -9 17 -47 -1 -91 -70
-341 -97 -350 -16 -6 -603 326 -645 365 -51 44 36 48 725 32z m-1265 -171 c2
-13 -86 -163 -330 -556 -38 -62 -73 -113 -78 -113 -5 0 -35 22 -67 48 -106 89
-221 228 -210 255 3 8 85 59 184 115 98 55 245 139 328 186 82 47 154 85 160
83 5 -2 11 -10 13 -18z m784 -156 c203 -112 320 -183 324 -195 4 -12 -4 -34
-21 -60 -35 -53 -158 -176 -214 -213 -43 -29 -44 -29 -58 -10 -35 49 -210 336
-243 400 -20 38 -58 109 -84 156 -41 76 -47 99 -27 99 3 0 149 -79 323 -177z
m-634 85 c9 -9 10 -96 6 -357 -4 -190 -10 -364 -13 -386 l-7 -40 -44 3 c-123
8 -357 83 -367 118 -5 16 393 674 407 674 3 0 11 -5 18 -12z m266 -176 c55
-97 137 -241 183 -319 46 -79 83 -151 83 -162 0 -36 -204 -107 -340 -118 -38
-3 -70 -2 -73 4 -6 10 12 739 18 761 11 33 38 -2 129 -166z"/>
</g>
</svg>
