<?xml version="1.0" standalone="no"?>
<!DOCTYPE svg PUBLIC "-//W3C//DTD SVG 20010904//EN"
 "http://www.w3.org/TR/2001/REC-SVG-20010904/DTD/svg10.dtd">
<svg version="1.0" xmlns="http://www.w3.org/2000/svg"
 width="2133.000000pt" height="2133.000000pt" viewBox="0 0 2133.000000 2133.000000"
 preserveAspectRatio="xMidYMid meet">

<g transform="translate(0.000000,2133.000000) scale(0.100000,-0.100000)"
fill="#cb2026" stroke="none">
<path d="M5920 18651 c0 -5 -15 -12 -32 -16 -101 -19 -244 -96 -346 -186 -124
-110 -541 -534 -590 -600 -77 -107 -121 -210 -146 -348 -14 -71 -16 -212 -16
-976 0 -967 1 -980 55 -1124 55 -144 91 -189 409 -509 358 -361 419 -409 591
-462 122 -38 207 -40 1461 -40 1267 0 1328 2 1454 42 134 43 218 95 325 203
84 83 108 115 145 188 25 49 51 92 60 97 8 4 125 10 260 12 268 6 295 10 440
79 96 46 148 87 326 260 143 140 167 159 214 173 46 14 129 16 584 16 292 0
558 4 592 9 34 5 96 25 139 45 69 32 94 53 239 196 89 88 168 160 176 160 8 0
87 -72 176 -160 252 -250 265 -254 807 -248 329 4 356 5 410 25 93 35 183 103
327 247 74 75 141 136 149 136 7 0 83 -68 167 -152 164 -162 202 -190 304
-229 64 -24 68 -24 425 -24 355 0 361 0 425 24 36 13 96 45 134 70 180 120
748 554 801 613 72 78 110 156 131 266 17 90 17 97 1 179 -23 109 -67 199
-131 268 -63 67 -774 600 -859 644 -34 17 -78 37 -97 44 -27 9 -589 13 -2460
17 l-2425 5 -45 25 c-25 13 -120 97 -211 186 -169 164 -247 222 -360 265 -121
47 -214 59 -445 59 -214 0 -214 0 -229 50 -12 40 -80 146 -132 207 -95 111
-283 226 -405 247 -21 4 -38 11 -38 16 0 6 -510 10 -1380 10 -834 0 -1380 -4
-1380 -9z m2725 -556 c48 -24 68 -42 100 -90 l40 -60 3 -1400 c2 -1287 1
-1404 -14 -1444 -21 -55 -75 -116 -128 -144 l-41 -22 -1306 0 -1307 0 -53 37
c-77 53 -562 544 -583 591 -10 21 -22 66 -27 100 -6 37 -9 401 -7 907 3 799 4
848 22 895 16 42 60 92 290 323 263 265 323 316 389 332 18 5 601 7 1297 7
l1265 -2 60 -30z m1090 -522 c42 -14 75 -41 210 -173 88 -86 183 -173 212
-193 59 -43 159 -90 253 -120 l65 -21 2404 -3 2403 -3 350 -262 c192 -144 347
-267 346 -274 -2 -7 -158 -128 -347 -269 l-343 -256 -261 0 -260 0 -151 149
c-223 221 -300 262 -493 262 -82 0 -115 -5 -166 -23 -109 -40 -157 -75 -315
-234 -102 -101 -161 -153 -175 -153 -12 -1 -145 -1 -296 -1 l-274 0 -166 163
c-167 164 -201 189 -319 232 -58 22 -246 22 -304 0 -118 -43 -152 -68 -319
-231 l-165 -163 -550 -3 c-566 -4 -594 -6 -719 -48 -137 -47 -200 -92 -396
-283 -80 -78 -168 -155 -195 -171 -48 -29 -51 -30 -230 -33 -159 -4 -182 -2
-197 13 -16 15 -17 96 -17 1053 0 570 4 1042 8 1048 11 18 32 19 201 16 110
-2 171 -8 206 -19z"/>
<path d="M6252 17574 c-185 -50 -337 -211 -378 -399 -21 -93 -20 -1197 1
-1294 21 -103 67 -185 146 -264 78 -78 183 -133 283 -148 85 -12 637 -11 715
2 208 33 382 202 427 413 17 78 20 1195 3 1278 -39 198 -193 362 -389 413 -79
21 -730 20 -808 -1z m666 -526 c14 -14 17 -1014 3 -1036 -12 -20 -510 -20
-522 0 -14 22 -11 1022 3 1036 9 9 80 12 258 12 178 0 249 -3 258 -12z"/>
<path d="M6205 13850 c-157 -15 -360 -82 -506 -167 -162 -94 -346 -266 -443
-415 -50 -77 -126 -217 -126 -233 0 -4 -6 -21 -14 -38 -8 -18 -126 -367 -262
-775 -148 -446 -253 -746 -261 -749 -8 -3 -31 10 -51 29 -99 94 -221 162 -361
201 -71 20 -99 21 -456 22 -418 0 -422 0 -583 -68 -221 -92 -423 -331 -457
-539 -3 -21 -10 -38 -15 -38 -6 0 -10 -63 -10 -155 0 -87 4 -155 9 -155 5 0
14 -24 21 -52 6 -29 28 -89 50 -133 81 -167 200 -288 366 -371 149 -74 208
-84 496 -84 168 0 249 -4 254 -11 3 -6 -211 -230 -508 -527 -312 -314 -529
-540 -552 -575 -49 -75 -93 -174 -107 -237 -6 -28 -15 -50 -20 -50 -5 0 -9
-758 -9 -1910 0 -1144 4 -1910 9 -1910 5 0 12 -19 16 -42 4 -24 29 -88 56
-144 82 -169 205 -296 364 -375 l80 -40 5 -482 c4 -360 9 -495 19 -532 58
-214 164 -373 323 -485 73 -51 212 -115 271 -125 20 -3 37 -10 37 -15 0 -6
403 -10 1085 -10 606 0 1085 4 1085 9 0 4 21 13 48 19 203 44 411 207 505 396
91 185 89 171 96 706 l6 465 3995 0 3995 0 6 -465 c7 -534 5 -522 96 -706 40
-81 113 -170 197 -242 79 -67 232 -143 319 -158 20 -3 37 -10 37 -15 0 -5 459
-9 1085 -9 654 0 1085 4 1085 9 0 5 15 12 33 16 109 21 251 96 347 183 94 84
137 148 221 324 5 9 16 50 26 90 14 62 17 142 21 549 l3 476 83 42 c103 52
183 116 258 205 65 77 142 225 159 304 6 28 15 52 20 52 5 0 9 758 9 1910 0
1152 -4 1910 -9 1910 -5 0 -14 22 -20 50 -14 63 -58 162 -107 237 -23 36 -236
258 -552 574 -300 302 -512 522 -508 528 5 8 85 11 254 11 256 0 310 7 438 54
114 42 255 149 335 254 61 80 124 207 139 280 7 28 16 52 21 52 5 0 9 68 9
155 0 87 -4 155 -9 155 -5 0 -14 23 -20 51 -15 70 -72 188 -125 262 -111 155
-258 254 -466 313 -58 17 -104 19 -445 19 -356 -1 -385 -2 -455 -22 -144 -40
-261 -105 -362 -201 -20 -19 -43 -32 -51 -29 -8 3 -84 214 -185 519 -94 282
-176 527 -182 543 -6 17 -35 105 -65 196 -137 419 -212 555 -408 746 -187 182
-362 278 -647 355 l-85 23 -4435 1 c-2439 1 -4471 -2 -4515 -6z m8840 -534
c161 -8 335 -87 463 -210 61 -57 137 -162 169 -232 35 -77 740 -2188 735
-2203 -5 -16 -11499 -16 -11504 0 -5 15 699 2126 735 2203 114 246 376 428
642 445 107 7 8629 4 8760 -3z m-10950 -2145 c57 -25 99 -64 131 -119 28 -46
28 -50 28 -217 l1 -170 -417 -3 c-400 -2 -419 -1 -472 18 -104 39 -188 171
-172 270 15 97 76 181 158 219 40 18 67 19 373 20 299 1 334 -1 370 -18z
m13869 -2 c177 -78 215 -306 72 -437 -77 -71 -88 -73 -556 -70 l-415 3 0 170
c1 161 2 172 24 210 38 63 72 96 126 121 49 24 54 24 376 24 308 0 329 -1 373
-21z m-584 -1740 c514 -516 705 -713 722 -747 l23 -47 0 -1815 0 -1815 -28
-57 c-35 -71 -93 -120 -166 -142 -50 -15 -682 -16 -7270 -16 -6690 0 -7219 1
-7274 17 -45 12 -71 28 -107 63 -94 91 -85 -113 -88 1925 -2 1655 -1 1804 14
1855 16 53 40 78 728 768 l711 712 6018 0 6018 0 699 -701z m-11261 -5183 c9
-11 11 -123 9 -433 -3 -409 -3 -419 -25 -459 -34 -63 -66 -97 -125 -129 l-53
-30 -995 0 -995 0 -47 22 c-26 12 -65 40 -87 63 -69 71 -71 82 -71 547 -1 227
2 417 5 423 4 7 406 10 1189 10 1008 0 1185 -2 1195 -14z m11466 4 c3 -6 6
-196 5 -423 0 -465 -2 -476 -71 -547 -22 -23 -61 -51 -87 -63 l-47 -22 -995 0
-995 0 -54 30 c-53 29 -105 84 -132 140 -19 40 -27 858 -8 881 10 12 187 14
1195 14 783 0 1185 -3 1189 -10z"/>
<path d="M4145 8514 c-194 -46 -351 -198 -401 -391 -21 -80 -20 -983 1 -1063
25 -95 74 -176 150 -249 75 -71 131 -102 235 -132 62 -18 121 -19 1180 -19
1060 0 1118 1 1181 19 104 30 177 71 256 145 116 108 175 247 174 406 0 100
-14 167 -50 242 -61 129 -45 113 -755 703 -292 242 -361 291 -448 318 -106 34
-173 37 -818 36 -515 -1 -657 -4 -705 -15z m1397 -554 c25 -19 137 -112 249
-206 112 -93 285 -237 384 -319 99 -82 188 -158 197 -167 22 -22 23 -42 2 -62
-14 -14 -123 -16 -1049 -16 -568 0 -1040 3 -1049 6 -14 5 -16 50 -16 395 0
359 1 389 18 398 11 7 219 10 617 8 l601 -2 46 -35z"/>
<path d="M7655 8514 c-214 -46 -388 -212 -446 -429 -44 -161 10 -374 127 -504
49 -54 894 -764 974 -817 69 -47 108 -64 190 -85 72 -18 150 -19 2160 -19
1996 0 2088 1 2160 19 83 20 172 64 240 119 25 20 126 104 225 186 724 603
708 589 768 697 187 336 -12 755 -395 833 -69 14 -384 16 -3005 15 -2544 -1
-2937 -3 -2998 -15z m5905 -527 c60 -30 55 -35 -387 -403 -230 -191 -431 -358
-446 -371 l-29 -23 -2038 0 -2038 0 -446 371 c-472 393 -475 396 -416 426 37
19 5763 19 5800 0z"/>
<path d="M15785 8524 c-11 -3 -47 -10 -79 -16 -67 -13 -151 -51 -211 -95 -36
-27 -765 -631 -893 -740 -155 -132 -232 -338 -198 -532 40 -227 195 -396 426
-462 62 -18 122 -19 1180 -19 1059 0 1118 1 1180 19 104 30 160 61 235 132 76
73 125 154 150 249 21 79 22 983 1 1062 -38 146 -147 282 -276 345 -129 63
-134 63 -848 62 -356 -1 -656 -3 -667 -5z m1256 -534 c18 -10 19 -25 19 -399
0 -345 -2 -390 -16 -395 -9 -3 -481 -6 -1049 -6 -926 0 -1035 2 -1049 16 -24
23 -19 43 17 74 121 105 823 684 849 700 32 19 50 20 621 20 387 0 595 -4 608
-10z"/>
<path d="M4200 5851 c-73 -15 -138 -68 -179 -146 -16 -30 -21 -58 -21 -110 0
-82 20 -133 72 -186 45 -45 93 -68 171 -80 37 -6 431 -8 992 -6 737 2 939 6
972 16 54 17 127 81 155 134 25 50 34 138 19 194 -16 57 -66 120 -126 157
l-50 31 -985 1 c-542 1 -1001 -1 -1020 -5z"/>
<path d="M8200 5851 c-73 -15 -138 -68 -179 -146 -28 -52 -29 -162 -2 -220 39
-85 115 -138 219 -155 77 -13 4767 -13 4844 0 105 17 181 70 219 154 27 59 26
169 -2 221 -28 53 -75 102 -124 128 l-40 22 -2450 1 c-1347 1 -2466 -1 -2485
-5z"/>
<path d="M15130 5851 c-81 -17 -168 -101 -191 -185 -15 -55 -6 -143 19 -193
28 -53 101 -117 155 -134 33 -10 237 -14 972 -16 564 -2 954 0 992 6 109 17
185 70 224 155 27 59 26 169 -2 221 -28 53 -75 102 -124 128 l-40 22 -985 1
c-542 1 -1001 -1 -1020 -5z"/>
</g>
</svg>
