<?xml version="1.0" standalone="no"?>
<!DOCTYPE svg PUBLIC "-//W3C//DTD SVG 20010904//EN"
 "http://www.w3.org/TR/2001/REC-SVG-20010904/DTD/svg10.dtd">
<svg version="1.0" xmlns="http://www.w3.org/2000/svg"
 width="256.000000pt" height="256.000000pt" viewBox="0 0 256.000000 256.000000"
 preserveAspectRatio="xMidYMid meet">
<metadata>
Created by potrace 1.16, written by Peter Selinger 2001-2019
</metadata>
<g transform="translate(0.000000,256.000000) scale(0.100000,-0.100000)"
fill="#cb2026" stroke="none">
<path d="M913 2422 l-253 -137 0 -240 c0 -292 12 -434 45 -551 88 -305 316
-556 610 -669 l71 -26 79 31 c291 116 513 361 600 664 33 117 45 259 45 551
l0 240 -255 138 -255 137 -218 -1 -217 0 -252 -137z m878 -64 l229 -123 0
-266 c0 -281 -10 -377 -49 -492 -85 -247 -275 -452 -515 -556 l-74 -33 -76 36
c-202 93 -359 242 -455 433 -84 166 -101 267 -101 612 l0 266 228 122 227 123
179 0 179 0 228 -122z"/>
<path d="M1018 2312 l-198 -107 0 -232 c0 -264 9 -352 51 -477 72 -215 230
-397 434 -498 l81 -40 80 40 c185 93 343 263 416 447 54 136 60 184 65 480 l4
280 -201 108 -202 107 -167 -1 -166 -1 -197 -106z m677 -69 l164 -88 1 -228
c0 -166 -4 -248 -15 -302 -48 -232 -196 -430 -409 -546 l-50 -27 -50 25 c-155
79 -302 241 -371 410 -45 111 -55 194 -55 440 l1 228 162 87 162 87 148 0 148
1 164 -87z"/>
<path d="M1452 1930 c-74 -77 -137 -140 -140 -140 -4 1 -32 32 -62 70 -30 39
-56 70 -58 70 -11 0 -192 -155 -190 -162 2 -5 69 -91 148 -190 l145 -180 173
179 c95 98 203 211 240 252 l67 74 -89 83 c-49 46 -91 84 -95 84 -3 0 -66 -63
-139 -140z m141 -94 c-32 -34 -110 -116 -174 -183 l-118 -122 -91 114 -92 115
29 25 28 25 35 -42 c19 -23 50 -58 68 -78 l32 -35 142 148 141 148 28 -27 29
-27 -57 -61z"/>
<path d="M1682 1516 c-17 -46 -83 -147 -132 -199 l-40 -44 30 -28 30 -29 41
40 c48 46 118 150 148 218 12 27 20 50 19 51 -5 4 -71 25 -77 25 -4 0 -12 -15
-19 -34z"/>
<path d="M266 1093 l-265 -218 0 -250 -1 -251 63 -62 c46 -45 70 -62 90 -62
25 0 27 3 27 40 0 34 -6 45 -50 86 -41 38 -50 53 -50 80 l0 34 70 0 70 0 0
140 0 140 -71 0 -70 0 3 29 c3 25 42 61 247 230 l244 201 83 0 84 0 0 40 0 40
-104 0 -105 0 -265 -217z"/>
<path d="M400 1005 c-124 -102 -226 -190 -228 -195 -2 -6 110 -10 312 -10
l316 0 0 195 0 195 -88 0 -87 0 -225 -185z m320 -10 l0 -105 -161 0 -161 0
128 105 c105 86 134 105 161 105 l33 0 0 -105z"/>
<path d="M920 890 l0 -90 115 0 115 0 0 45 0 45 -70 0 -70 0 0 45 0 45 -45 0
-45 0 0 -90z"/>
<path d="M1734 919 l-28 -29 44 -45 44 -45 252 0 c158 0 255 -4 259 -10 4 -6
-15 -10 -49 -10 l-56 0 0 -67 c0 -66 1 -68 42 -110 l42 -43 98 0 98 0 0 -68
c0 -67 -1 -69 -43 -110 -25 -24 -52 -42 -65 -42 -21 0 -23 -4 -20 -42 3 -42 4
-43 42 -46 36 -3 44 1 103 60 l63 62 0 146 0 145 -113 113 -112 112 -251 0
c-242 0 -252 1 -270 21 -35 39 -49 40 -80 8z"/>
<path d="M1720 720 l0 -40 185 0 185 0 0 40 0 40 -185 0 -185 0 0 -40z"/>
<path d="M920 635 l0 -105 155 0 155 0 0 105 0 105 -155 0 -155 0 0 -105z"/>
<path d="M460 611 c-161 -49 -257 -213 -220 -372 25 -107 115 -203 214 -230
62 -17 173 -7 227 19 244 119 228 476 -25 571 -58 21 -147 27 -196 12z m129
-82 c69 -15 123 -56 155 -120 59 -118 12 -249 -108 -305 -84 -39 -165 -28
-237 35 -53 44 -78 101 -79 170 0 100 57 179 152 212 64 22 56 21 117 8z"/>
<path d="M504 471 c-47 -12 -89 -46 -109 -87 -22 -47 -16 -134 11 -172 25 -34
98 -72 139 -72 50 0 117 40 142 85 72 128 -42 280 -183 246z m90 -102 c54 -43
21 -139 -48 -139 -79 1 -110 92 -49 140 33 26 64 25 97 -1z"/>
<path d="M1877 601 c-68 -27 -128 -80 -162 -142 -27 -49 -30 -62 -30 -149 0
-109 20 -162 84 -224 61 -59 115 -81 209 -85 77 -3 88 -1 147 28 76 38 127 93
155 168 57 152 -11 323 -156 394 -67 32 -179 37 -247 10z m208 -88 c141 -71
172 -254 62 -364 -42 -42 -82 -60 -146 -66 -48 -4 -64 -1 -111 24 -134 70
-169 238 -71 346 73 81 176 104 266 60z"/>
<path d="M1951 470 c-70 -16 -119 -72 -127 -145 -18 -160 185 -249 289 -126
105 126 -3 306 -162 271z m93 -106 c34 -34 34 -77 1 -109 -32 -33 -78 -33
-110 0 -34 33 -33 78 1 110 35 33 74 32 108 -1z"/>
<path d="M910 295 l0 -45 355 0 355 0 0 45 0 45 -355 0 -355 0 0 -45z"/>
</g>
</svg>
