<?xml version="1.0" standalone="no"?>
<!DOCTYPE svg PUBLIC "-//W3C//DTD SVG 20010904//EN"
 "http://www.w3.org/TR/2001/REC-SVG-20010904/DTD/svg10.dtd">
<svg version="1.0" xmlns="http://www.w3.org/2000/svg"
 width="2133.000000pt" height="2133.000000pt" viewBox="0 0 2133.000000 2133.000000"
 preserveAspectRatio="xMidYMid meet">

<g transform="translate(0.000000,2133.000000) scale(0.100000,-0.100000)"
fill="#cb2026" stroke="none">
<path d="M7755 17673 c-358 -67 -655 -227 -900 -485 -168 -176 -284 -366 -354
-578 -51 -153 -52 -158 -62 -221 -5 -32 -13 -87 -19 -121 -16 -105 -12 -312 9
-433 27 -155 52 -244 115 -409 38 -100 37 -104 -47 -156 -138 -87 -267 -234
-463 -530 -131 -197 -319 -537 -393 -710 -13 -30 -34 -77 -47 -105 -32 -69
-101 -244 -135 -340 -18 -51 -34 -81 -45 -83 -9 -2 -38 17 -68 46 -112 109
-262 183 -436 213 -89 16 -161 18 -470 18 -406 0 -510 -10 -645 -64 -240 -97
-418 -286 -507 -537 -32 -91 -32 -96 -32 -268 0 -171 0 -177 32 -265 34 -96
51 -134 97 -205 77 -122 215 -244 345 -307 168 -80 253 -93 603 -93 309 0 313
-1 230 -61 -111 -79 -311 -271 -401 -384 -62 -79 -84 -100 -122 -114 -204 -78
-435 -218 -610 -371 -36 -31 -78 -68 -93 -81 -42 -36 -196 -214 -255 -295 -87
-119 -183 -291 -250 -444 -17 -39 -62 -169 -92 -265 -17 -55 -48 -209 -55
-272 -4 -35 -11 -63 -16 -63 -5 0 -9 -843 -9 -2060 0 -1234 4 -2060 9 -2060 5
0 12 -19 16 -42 9 -61 61 -211 101 -290 65 -133 173 -273 276 -359 103 -86
197 -144 323 -200 47 -20 134 -48 183 -58 98 -20 90 5 95 -298 4 -287 5 -291
64 -411 32 -65 131 -169 197 -207 27 -16 77 -39 113 -52 l64 -23 1199 0 1199
0 64 23 c173 63 295 186 355 357 12 35 17 107 21 310 l6 265 255 6 c255 6 328
14 465 56 131 39 285 114 392 190 79 55 232 201 283 268 19 26 48 62 64 81
l28 34 371 -2 371 -3 46 -81 c75 -134 134 -193 255 -252 117 -57 112 -57 1170
-57 1062 0 1051 -1 1175 59 92 44 206 158 251 251 18 39 38 73 44 77 5 4 182
8 391 8 l382 0 28 -34 c16 -19 45 -56 64 -81 100 -132 307 -300 460 -373 231
-110 338 -132 675 -140 l260 -7 6 -265 c6 -284 8 -300 65 -410 35 -66 131
-166 198 -205 27 -16 77 -39 113 -52 l64 -23 1199 0 1199 0 64 23 c95 35 155
73 222 142 68 71 106 139 135 240 17 61 20 101 20 312 0 275 -7 254 92 274
238 48 499 215 657 419 108 139 208 356 227 493 3 26 10 47 15 47 5 0 9 451 9
1060 0 649 -4 1060 -9 1060 -5 0 -13 9 -16 21 -11 32 -65 88 -106 110 -52 26
-156 26 -207 0 -49 -25 -86 -66 -111 -121 -20 -44 -21 -61 -21 -1040 0 -932
-1 -1000 -19 -1070 -60 -244 -235 -429 -491 -516 -53 -18 -119 -19 -1920 -19
l-1865 0 -80 23 c-93 26 -261 106 -269 128 -9 22 2 34 30 34 43 0 169 46 279
102 168 85 357 254 458 409 31 47 62 91 70 97 10 9 356 12 1288 14 l1274 3 44
25 c55 31 100 86 112 136 11 52 11 475 -1 589 -39 371 -243 739 -545 980 -207
166 -446 270 -715 311 -132 20 -1516 20 -1600 0 -152 -36 -288 -145 -363 -291
-29 -57 -57 -171 -57 -234 0 -76 18 -144 135 -506 69 -213 73 -227 89 -314 20
-103 20 -136 1 -243 -62 -355 -338 -609 -695 -638 -119 -10 -1180 -13 -1204
-4 -14 5 -16 35 -16 230 0 171 3 226 13 229 6 3 269 6 582 8 l570 2 58 28 c80
38 138 95 178 175 29 59 33 77 34 147 0 60 -7 100 -26 160 -15 44 -37 114 -49
155 -12 41 -28 93 -35 115 -7 22 -28 87 -45 145 -136 439 -159 510 -193 574
-43 81 -140 175 -223 216 -116 57 -154 61 -510 60 -177 0 -329 2 -338 6 -14 5
-16 32 -16 234 0 199 2 229 16 234 9 3 1037 6 2285 6 2216 0 2271 0 2357 20
235 52 429 157 592 320 167 167 267 358 320 609 18 83 20 133 20 470 0 321 -3
397 -19 511 -21 144 -45 262 -61 305 -25 67 4 60 76 -18 85 -90 124 -140 191
-242 75 -116 113 -187 158 -305 20 -52 40 -104 44 -115 15 -37 49 -188 65
-290 13 -81 16 -189 16 -550 l0 -450 24 -50 c12 -27 38 -64 56 -82 34 -33 109
-63 158 -63 77 0 181 67 204 133 6 15 14 27 19 27 5 0 9 220 9 525 0 298 -4
525 -9 525 -5 0 -12 26 -15 58 -21 190 -98 443 -199 652 -223 464 -639 864
-1102 1060 -98 41 -126 64 -193 154 -63 86 -316 323 -412 387 -52 34 -20 39
262 39 278 0 382 10 488 47 262 91 458 289 551 555 32 91 33 97 34 263 0 151
-3 178 -23 243 -83 264 -269 467 -518 567 -134 54 -239 64 -644 64 -405 0
-509 -10 -645 -64 -90 -36 -208 -111 -265 -169 -43 -45 -77 -58 -84 -33 -10
33 -80 223 -86 232 -4 6 -15 33 -25 60 -9 28 -31 79 -47 114 -16 35 -38 87
-51 115 -92 215 -308 591 -489 851 -168 240 -315 377 -478 445 -30 13 -59 27
-64 31 -5 4 -2 27 7 51 116 322 132 403 131 668 0 209 -8 274 -58 456 -25 89
-93 251 -145 342 -198 343 -522 610 -891 732 -187 61 -308 80 -516 80 -211 0
-379 -28 -544 -91 -30 -11 -68 -25 -85 -32 -51 -18 -197 -97 -260 -140 -128
-87 -211 -162 -515 -470 -173 -175 -322 -323 -331 -328 -12 -6 -29 1 -63 27
-25 19 -76 49 -113 67 l-68 32 -590 0 -590 0 -72 -31 c-40 -18 -89 -45 -110
-61 -21 -16 -44 -33 -51 -38 -10 -5 -110 90 -340 323 -384 387 -472 461 -663
560 -163 83 -299 130 -471 161 -139 26 -426 28 -553 4z m495 -469 c41 -9 104
-25 140 -37 90 -29 285 -131 285 -148 0 -9 -29 -22 -85 -36 -160 -42 -257 -85
-386 -172 -225 -152 -393 -379 -468 -631 -10 -30 -21 -68 -26 -85 -21 -68 -30
-183 -30 -410 0 -133 -5 -247 -10 -255 -8 -13 -55 -15 -299 -18 -181 -2 -298
1 -309 7 -17 9 -83 167 -127 306 -109 340 -55 709 147 1007 101 149 290 308
462 388 215 100 474 131 706 84z m5150 -1 c230 -47 414 -146 581 -312 181
-180 292 -396 330 -645 15 -96 6 -333 -16 -416 -33 -126 -115 -358 -140 -396
l-15 -24 -291 0 c-181 0 -298 4 -310 10 -18 10 -19 23 -19 213 0 367 -27 523
-126 720 -107 212 -262 379 -460 496 -89 52 -240 114 -321 131 -59 12 -105 33
-93 42 19 16 120 72 176 98 213 100 474 131 704 83z m-4370 -674 c68 -15 169
-58 230 -98 30 -19 119 -98 198 -175 l142 -140 -2 -178 -3 -179 -80 -32 c-45
-18 -109 -54 -143 -80 -58 -45 -135 -140 -160 -199 -8 -19 -21 -29 -44 -33
-18 -3 -253 -5 -521 -3 -420 3 -489 5 -497 18 -13 20 -13 355 0 460 37 298
226 533 503 625 101 34 259 39 377 14z m3525 -18 c183 -66 324 -186 410 -350
72 -136 86 -225 83 -516 l-3 -220 -460 -3 c-253 -1 -469 0 -480 2 -11 3 -31
27 -45 53 -32 60 -89 127 -149 172 -81 63 -136 87 -241 105 l-65 11 -3 176 -2
175 143 141 c181 178 276 236 452 277 11 3 83 3 160 2 113 -3 152 -7 200 -25z
m-1448 -243 c23 -21 23 -24 23 -249 0 -125 -3 -234 -6 -243 -5 -14 -60 -16
-514 -16 -280 0 -515 3 -524 6 -14 5 -16 36 -16 239 0 220 1 234 21 259 l20
26 487 0 c485 0 486 0 509 -22z m529 -999 c18 -20 19 -48 24 -563 l5 -543 30
-49 c67 -107 189 -144 299 -90 58 28 101 77 122 135 10 27 13 132 14 408 l0
373 23 5 c12 3 528 4 1147 3 l1125 -3 53 -23 c119 -50 168 -91 261 -217 216
-290 434 -673 576 -1010 20 -49 41 -99 46 -110 32 -74 112 -306 157 -460 45
-149 132 -542 132 -593 l0 -22 -1757 2 -1758 3 -5 340 c-5 362 -5 360 -58 432
-32 43 -117 83 -177 83 -93 0 -182 -62 -220 -153 -13 -32 -15 -458 -15 -3947
0 -2783 -3 -3917 -11 -3932 -26 -49 -14 -48 -1004 -48 -990 0 -978 -1 -1004
48 -8 15 -11 1442 -11 4963 l0 4943 22 23 21 23 972 0 972 0 19 -21z m-2488
-327 c10 -7 12 -257 10 -1218 l-3 -1209 -685 -5 -685 -5 -45 -25 c-107 -60
-151 -213 -89 -315 26 -43 78 -90 119 -106 28 -11 168 -15 710 -19 l675 -5 0
-870 0 -870 -485 -5 c-433 -5 -490 -8 -535 -24 -252 -91 -423 -271 -484 -513
-34 -131 -25 -262 28 -424 6 -19 27 -86 47 -149 20 -63 50 -153 65 -199 22
-63 26 -88 18 -98 -9 -10 -70 -13 -291 -13 -169 0 -287 4 -298 10 -11 6 -22
26 -25 48 -4 20 -13 62 -20 92 -7 30 -21 87 -30 125 -127 526 -540 947 -1065
1086 -156 41 -186 42 -1100 48 l-885 6 3 60 c3 65 30 185 69 304 114 350 325
662 613 905 74 63 304 226 596 424 l91 62 660 0 c745 0 719 -2 797 75 59 59
82 138 63 212 -17 63 -54 115 -110 151 l-42 27 -582 3 -583 3 0 22 c1 127 158
721 249 945 11 26 40 101 66 167 89 226 273 580 418 806 68 106 206 298 245
342 68 74 178 133 277 147 70 10 2207 12 2223 2z m-4290 -1649 c105 -26 198
-94 249 -183 47 -82 54 -131 51 -370 l-3 -225 -538 -3 c-575 -2 -597 -1 -692
48 -59 30 -141 115 -172 179 -23 47 -28 72 -31 159 -4 96 -2 106 26 166 55
118 160 206 275 231 45 10 160 14 415 14 297 1 363 -2 420 -16z m12440 0 c116
-28 211 -104 269 -215 26 -49 28 -62 28 -168 0 -107 -2 -119 -29 -172 -35 -69
-99 -137 -163 -172 -98 -55 -115 -56 -700 -54 l-538 3 -3 225 c-3 243 4 287
55 377 27 47 95 113 144 140 86 46 134 51 512 52 302 1 368 -2 425 -16z
m-1393 -1286 c28 -19 122 -83 210 -145 88 -61 198 -137 244 -169 439 -303 727
-721 845 -1228 9 -38 18 -95 19 -125 l2 -55 -890 -6 c-922 -6 -934 -6 -1095
-48 -168 -44 -364 -138 -510 -244 -79 -58 -233 -211 -294 -292 -125 -168 -211
-347 -257 -535 -11 -47 -26 -110 -34 -140 -7 -30 -16 -72 -20 -92 -3 -22 -14
-42 -25 -48 -11 -6 -129 -10 -298 -10 -221 0 -282 3 -291 13 -8 10 -4 35 18
98 15 46 45 136 65 199 20 63 41 130 47 149 73 222 64 381 -31 578 -57 118
-187 249 -300 305 -156 76 -121 72 -675 78 l-500 5 -3 860 c-1 473 0 866 3
873 3 9 385 12 1862 12 l1858 0 50 -33z m-12215 -1326 c0 -5 -5 -22 -11 -38
-16 -42 -38 -153 -60 -298 -16 -111 -19 -186 -19 -511 0 -342 2 -392 20 -475
40 -192 106 -345 204 -474 182 -240 415 -390 707 -455 87 -20 136 -20 2347
-20 1743 0 2261 -3 2270 -12 19 -19 17 -442 -2 -457 -10 -8 -104 -11 -322 -11
-343 1 -383 -4 -498 -60 -83 -41 -180 -135 -223 -216 -28 -54 -58 -139 -132
-379 -71 -229 -94 -304 -108 -350 -9 -27 -21 -68 -28 -90 -80 -249 -80 -249
-79 -330 1 -63 6 -92 26 -137 36 -79 97 -141 177 -180 l66 -33 555 -3 c305 -1
561 -4 568 -7 17 -6 18 -435 0 -453 -14 -14 -1021 -17 -1183 -2 -183 16 -343
88 -466 210 -134 134 -205 277 -230 469 -11 79 -10 104 5 193 10 56 22 111 26
122 5 12 32 95 61 186 28 91 63 199 76 240 64 193 74 277 48 390 -30 130 -102
241 -210 323 -67 50 -113 73 -195 93 -83 20 -1465 20 -1600 0 -443 -68 -807
-307 -1051 -691 -109 -172 -188 -396 -209 -600 -12 -114 -12 -537 -1 -589 12
-50 57 -105 112 -136 l44 -25 1274 -3 c932 -2 1278 -5 1288 -14 8 -6 39 -49
69 -96 63 -97 218 -257 314 -324 126 -88 352 -188 424 -188 28 0 39 -12 30
-34 -8 -21 -174 -101 -264 -128 -73 -21 -91 -22 -855 -27 l-780 -6 -47 -23
c-110 -54 -160 -186 -113 -297 21 -49 47 -79 100 -114 l40 -26 305 -5 305 -5
3 -221 2 -220 -26 -25 -26 -24 -1118 0 -1118 0 -26 24 -26 25 2 220 3 221 385
5 385 5 46 27 c52 31 105 102 115 155 8 44 -1 111 -20 148 -24 47 -85 104
-125 117 -26 9 -204 14 -636 18 -585 6 -601 6 -658 28 -161 60 -263 133 -353
252 -64 84 -101 162 -125 260 -18 72 -19 164 -19 2024 0 2076 -1 2020 46 2216
73 299 225 576 438 798 47 48 76 65 76 43z m5468 -1333 l2 -468 -22 -5 c-13
-3 -201 -4 -418 -3 l-395 3 -17 35 c-10 19 -34 89 -54 155 -36 116 -108 343
-139 435 -22 67 -19 133 9 188 28 54 55 81 111 111 39 21 49 21 480 19 l440
-3 3 -467z m3927 451 c58 -31 85 -58 111 -114 28 -58 31 -120 9 -185 -31 -92
-103 -319 -139 -435 -20 -66 -44 -136 -54 -155 l-17 -35 -410 -3 c-226 -1
-420 0 -432 3 l-23 5 0 464 c0 254 3 466 7 469 3 4 209 7 457 7 440 0 452 -1
491 -21z m-8519 -4 c4 -8 0 -25 -8 -38 -28 -43 -77 -194 -87 -271 -26 -185 -7
-339 64 -514 26 -63 11 -68 -70 -27 -150 77 -251 177 -325 322 -57 114 -70
182 -70 373 l0 170 245 0 c210 0 246 -2 251 -15z m938 -1 c192 -49 336 -215
352 -406 19 -222 -100 -410 -311 -489 -81 -30 -218 -31 -295 -2 -94 36 -123
55 -185 117 -93 95 -135 196 -135 326 0 132 48 247 139 333 122 117 280 161
435 121z m10534 0 c172 -49 304 -182 341 -345 13 -56 13 -162 0 -218 -17 -75
-62 -153 -124 -217 -96 -97 -194 -138 -331 -137 -190 1 -342 100 -426 279 -31
65 -33 75 -33 184 0 112 1 117 36 190 20 41 57 98 83 127 112 124 301 181 454
137z m1212 -147 c0 -131 -4 -180 -20 -241 -44 -174 -152 -324 -302 -419 -73
-47 -146 -78 -154 -66 -3 6 3 33 15 62 64 162 81 287 63 459 -11 111 -54 260
-90 315 -32 51 -23 53 243 53 l245 0 0 -163z m-10831 -134 c95 -96 162 -196
216 -321 40 -92 91 -282 82 -306 -6 -14 -34 -16 -236 -16 -126 0 -236 3 -245
6 -22 8 -20 17 13 88 78 164 100 402 55 609 -11 50 25 31 115 -60z m8597 60
c-45 -211 -24 -443 55 -609 33 -71 35 -80 13 -88 -9 -3 -119 -6 -245 -6 -203
0 -230 2 -236 16 -6 17 15 115 49 221 47 149 136 293 253 411 87 86 122 104
111 55z m-8029 -2123 c59 -36 60 -29 -89 -485 -74 -223 -97 -338 -102 -497 -2
-58 -7 -111 -11 -117 -10 -17 -2091 -15 -2101 1 -10 15 -6 172 6 258 10 69 47
193 81 267 71 157 208 314 364 420 133 90 308 148 505 166 19 2 323 5 675 5
620 2 641 1 672 -18z m2162 6 c8 -9 10 -129 9 -422 l-3 -409 -440 0 -440 0 1
31 c1 17 16 76 33 130 18 54 41 131 53 169 12 39 33 108 48 155 15 47 37 119
49 160 65 214 37 200 397 200 226 0 284 -3 293 -14z m3627 -5 c32 -19 43 -43
85 -181 12 -41 34 -113 49 -160 15 -47 36 -116 48 -155 12 -38 35 -115 53
-169 17 -54 32 -113 33 -130 l1 -31 -455 0 -455 0 -3 414 c-2 325 0 416 10
423 7 4 146 8 308 8 271 0 298 -2 326 -19z m3039 -4 c396 -85 687 -355 794
-738 23 -83 43 -323 29 -351 -8 -17 -68 -18 -1053 -18 -787 0 -1046 3 -1051
12 -4 6 -8 57 -10 112 -3 154 -28 273 -102 501 -150 461 -148 449 -89 486 31
19 45 20 722 15 564 -3 703 -7 760 -19z m1373 -3083 l2 -220 -26 -25 -26 -24
-1118 0 -1118 0 -26 24 -26 24 0 217 c0 119 3 220 7 223 3 4 529 6 1167 5
l1161 -3 3 -221z"/>
</g>
</svg>
