<?xml version="1.0" standalone="no"?>
<!DOCTYPE svg PUBLIC "-//W3C//DTD SVG 20010904//EN"
 "http://www.w3.org/TR/2001/REC-SVG-20010904/DTD/svg10.dtd">
<svg version="1.0" xmlns="http://www.w3.org/2000/svg"
 width="256.000000pt" height="256.000000pt" viewBox="0 0 256.000000 256.000000"
 preserveAspectRatio="xMidYMid meet">
<metadata>
Created by potrace 1.16, written by Peter Selinger 2001-2019
</metadata>
<g transform="translate(0.000000,256.000000) scale(0.100000,-0.100000)"
fill="#cb2026" stroke="none">
<path d="M1600 2540 c-220 -59 -395 -203 -494 -404 -94 -191 -109 -386 -44
-585 l20 -63 -541 -542 -541 -541 0 -192 c0 -180 1 -193 19 -203 13 -6 143
-10 354 -10 299 0 336 2 348 17 10 11 15 54 17 144 l4 127 128 4 c170 4 164
-2 168 168 l4 128 127 4 c90 2 133 7 144 17 15 11 17 36 17 165 l0 151 78 78
78 78 90 -27 c123 -37 300 -40 418 -6 258 74 458 267 536 517 28 88 38 272 21
371 -46 265 -252 500 -516 590 -69 23 -100 28 -220 31 -117 3 -152 0 -215 -17z
m318 -116 c192 -39 368 -173 450 -345 131 -271 71 -574 -153 -770 -173 -151
-420 -200 -625 -124 -138 51 -128 54 -262 -83 l-118 -119 0 -131 0 -132 -130
0 c-174 0 -170 4 -170 -170 l0 -130 -130 0 c-174 0 -170 4 -170 -170 l0 -130
-197 0 -198 0 132 133 c72 72 136 142 142 154 25 49 -33 107 -82 82 -12 -6
-82 -70 -155 -142 l-132 -132 0 65 0 65 551 550 c542 542 550 551 546 585 -3
19 -17 69 -32 110 -37 101 -45 237 -20 342 48 199 181 363 362 446 131 60 252
75 391 46z"/>
<path d="M1890 2219 c-143 -28 -240 -178 -210 -323 15 -72 60 -140 116 -176
189 -120 427 8 427 230 0 178 -156 304 -333 269z m130 -140 c44 -25 80 -83 80
-129 0 -84 -86 -159 -169 -147 -142 19 -179 203 -55 274 49 28 96 29 144 2z"/>
<path d="M1264 1345 c-37 -17 -710 -692 -722 -725 -20 -53 25 -97 78 -78 14 5
184 167 378 361 332 333 352 355 352 389 0 52 -36 75 -86 53z"/>
</g>
</svg>
