<?xml version="1.0" standalone="no"?>
<!DOCTYPE svg PUBLIC "-//W3C//DTD SVG 20010904//EN"
 "http://www.w3.org/TR/2001/REC-SVG-20010904/DTD/svg10.dtd">
<svg version="1.0" xmlns="http://www.w3.org/2000/svg"
 width="512.000000pt" height="512.000000pt" viewBox="0 0 512.000000 512.000000"
 preserveAspectRatio="xMidYMid meet">
<metadata>
Created by potrace 1.16, written by Peter Selinger 2001-2019
</metadata>
<g transform="translate(0.000000,512.000000) scale(0.100000,-0.100000)"
fill="#cb2026" stroke="none">
<path d="M3110 5101 c-19 -11 -85 -70 -146 -133 -99 -101 -112 -119 -123 -165
-14 -58 -8 -102 19 -149 l18 -32 -37 -36 -37 -37 -45 20 c-53 25 -116 27 -167
6 -48 -21 -249 -218 -273 -270 -24 -52 -24 -119 2 -174 l20 -45 -284 -285
c-274 -276 -285 -288 -297 -339 -24 -105 -3 -152 139 -295 126 -129 156 -147
244 -147 55 0 76 6 156 45 101 49 130 54 154 27 16 -17 -10 -45 -491 -523
-527 -525 -536 -533 -669 -581 -51 -18 -83 -21 -258 -23 -178 -2 -211 -5 -296
-28 -322 -85 -575 -313 -683 -618 -47 -131 -60 -221 -53 -386 4 -110 10 -156
31 -227 99 -330 343 -573 672 -672 71 -21 117 -27 227 -31 165 -7 255 6 386
53 135 48 239 114 347 219 140 137 222 277 271 465 23 84 26 117 27 295 3 239
16 288 113 429 39 57 40 97 2 129 -37 30 -82 22 -121 -21 -48 -53 -92 -133
-124 -227 -26 -76 -28 -90 -30 -285 -2 -175 -5 -217 -24 -285 -81 -297 -310
-520 -610 -596 -113 -29 -317 -23 -425 11 -223 71 -397 218 -499 425 -59 118
-76 186 -83 326 -19 398 228 736 617 841 62 17 109 21 270 23 122 1 214 6 245
15 66 17 181 70 242 110 26 18 273 257 548 531 l500 499 188 -188 187 -187
-380 -380 c-258 -258 -381 -388 -385 -407 -11 -49 28 -97 80 -98 26 0 79 49
415 385 371 370 387 385 403 367 26 -28 21 -51 -30 -157 -39 -81 -46 -105 -46
-154 1 -38 8 -71 21 -97 25 -48 224 -245 272 -270 47 -24 143 -24 190 0 19 10
159 141 310 292 l276 275 44 -20 c54 -25 117 -27 167 -6 48 20 248 218 273
270 25 52 25 118 -1 174 l-20 45 37 37 36 37 35 -21 c46 -26 134 -28 183 -3
47 24 237 212 261 258 23 45 25 136 4 181 -8 18 -336 354 -729 747 -674 673
-717 714 -750 714 -50 0 -76 -27 -76 -78 0 -41 1 -42 705 -746 478 -478 705
-712 705 -726 0 -20 -187 -214 -206 -214 -12 0 -1764 1752 -1764 1764 0 19
194 206 214 206 11 0 46 -25 78 -57 49 -48 63 -57 94 -57 43 0 84 39 84 81 0
30 -114 153 -165 177 -45 22 -141 20 -185 -3z m640 -1356 l755 -755 -38 -37
-37 -38 -757 757 -757 757 34 36 c19 19 36 35 39 35 4 0 346 -340 761 -755z
m-193 -187 c480 -480 873 -879 873 -887 0 -18 -177 -199 -203 -207 -16 -5
-182 156 -893 867 -481 481 -874 881 -874 889 0 19 190 210 210 210 8 0 408
-393 887 -872z m-337 -343 l755 -755 -275 -275 c-163 -163 -283 -275 -294
-275 -22 0 -222 193 -229 221 -3 10 17 64 44 121 58 121 65 187 28 261 -29 57
-679 707 -736 736 -74 37 -140 30 -261 -28 -57 -27 -111 -47 -121 -44 -28 7
-221 207 -221 229 0 16 534 564 550 564 3 0 345 -340 760 -755z"/>
<path d="M2626 3489 c-20 -15 -26 -29 -26 -57 0 -35 18 -55 398 -435 379 -379
399 -397 434 -397 44 0 78 36 78 84 0 27 -45 76 -398 428 -352 353 -401 398
-428 398 -17 0 -43 -9 -58 -21z"/>
<path d="M875 1468 c-138 -26 -270 -129 -335 -262 -74 -151 -75 -298 -3 -446
148 -304 560 -369 797 -127 194 198 192 502 -3 698 -36 36 -90 78 -118 93
-100 50 -222 66 -338 44z m238 -177 c69 -30 139 -100 173 -174 72 -155 8 -348
-143 -429 -77 -42 -157 -53 -234 -34 -128 33 -221 124 -254 251 -56 212 124
425 345 411 36 -3 86 -14 113 -25z"/>
</g>
</svg>
