<?xml version="1.0" standalone="no"?>
<!DOCTYPE svg PUBLIC "-//W3C//DTD SVG 20010904//EN"
 "http://www.w3.org/TR/2001/REC-SVG-20010904/DTD/svg10.dtd">
<svg version="1.0" xmlns="http://www.w3.org/2000/svg"
 width="256.000000pt" height="256.000000pt" viewBox="0 0 256.000000 256.000000"
 preserveAspectRatio="xMidYMid meet">
<metadata>
Created by potrace 1.16, written by Peter Selinger 2001-2019
</metadata>
<g transform="translate(0.000000,256.000000) scale(0.100000,-0.100000)"
fill="#cb2026" stroke="none">
<path d="M1408 2128 c-47 -51 -165 -183 -263 -293 -98 -110 -181 -201 -184
-202 -3 -1 -107 117 -231 263 -137 161 -237 270 -257 279 -36 18 -100 20 -140
4 -37 -14 -83 -58 -83 -80 0 -10 112 -147 248 -306 l249 -288 -250 -33 c-163
-21 -259 -38 -275 -48 -45 -30 -52 -67 -52 -284 l0 -200 -29 0 c-16 0 -39 -9
-52 -19 -22 -18 -24 -28 -27 -132 -4 -131 6 -181 43 -197 18 -8 111 -12 295
-12 l269 0 25 -55 c29 -65 97 -133 163 -166 41 -21 62 -24 153 -24 95 0 110 3
158 28 67 35 124 94 158 163 l26 54 557 0 c333 0 562 4 571 10 13 8 15 110 18
800 2 539 -1 797 -8 810 -10 19 -24 20 -504 20 l-494 0 -84 -92z m1012 -588
l0 -600 -591 0 c-572 0 -592 1 -616 20 -100 78 -306 78 -406 0 -22 -18 -41
-20 -171 -20 l-146 0 0 61 c0 120 -49 172 -167 178 l-73 3 0 79 c0 71 2 80 23
92 18 12 224 41 581 83 57 7 19 -31 398 396 l273 307 448 0 447 1 0 -600z
m-1961 543 c49 -50 441 -511 441 -519 0 -12 -32 -44 -45 -44 -7 0 -124 129
-259 286 -181 210 -244 289 -234 295 27 17 69 9 97 -18z m-70 -1009 c15 -20
21 -41 21 -80 l0 -54 -80 0 -80 0 0 80 0 80 59 0 c52 0 62 -3 80 -26z m708
-147 c59 -22 117 -72 146 -125 75 -138 23 -298 -119 -368 -232 -113 -471 140
-347 368 46 85 134 136 233 136 30 0 69 -5 87 -11z m-413 -134 c-13 -38 -24
-83 -24 -100 l0 -33 -260 0 -260 0 0 100 0 100 283 0 284 0 -23 -67z m1736
-33 l0 -100 -529 0 -528 0 -7 54 c-3 30 -15 75 -26 100 l-19 46 554 0 555 0 0
-100z"/>
<path d="M1346 1786 c-115 -128 -213 -241 -218 -250 -5 -10 -5 -23 2 -36 11
-20 20 -20 563 -20 417 0 556 3 565 12 17 17 17 499 0 516 -9 9 -102 12 -357
12 l-346 0 -209 -234z m844 -36 l0 -190 -466 0 -465 0 23 29 c13 16 88 101
168 190 l145 161 298 0 297 0 0 -190z"/>
<path d="M941 860 c-146 -62 -169 -262 -39 -347 35 -24 52 -28 108 -28 56 0
73 4 108 28 113 74 113 250 1 324 -45 30 -134 41 -178 23z m127 -90 c70 -43
75 -131 11 -185 -86 -72 -218 25 -175 129 16 39 67 76 106 76 14 0 40 -9 58
-20z"/>
</g>
</svg>
