<?xml version="1.0" standalone="no"?>
<!DOCTYPE svg PUBLIC "-//W3C//DTD SVG 20010904//EN"
 "http://www.w3.org/TR/2001/REC-SVG-20010904/DTD/svg10.dtd">
<svg version="1.0" xmlns="http://www.w3.org/2000/svg"
 width="256.000000pt" height="256.000000pt" viewBox="0 0 256.000000 256.000000"
 preserveAspectRatio="xMidYMid meet">
<metadata>
Created by potrace 1.16, written by Peter Selinger 2001-2019
</metadata>
<g transform="translate(0.000000,256.000000) scale(0.100000,-0.100000)"
fill="#cb2026" stroke="none">
<path d="M1753 2542 c-90 -32 -161 -93 -194 -166 l-12 -26 -272 0 -271 0 -46
53 c-136 157 -387 177 -536 42 -51 -45 -102 -144 -102 -196 0 -60 23 -69 140
-60 100 9 110 6 110 -34 0 -40 -10 -43 -110 -35 -98 9 -122 4 -139 -29 -31
-57 71 -206 176 -259 175 -88 405 -26 499 134 l26 44 265 0 266 0 54 -60 c107
-117 251 -157 404 -110 63 19 81 30 134 83 94 94 129 208 73 238 -12 7 -55 8
-117 4 -94 -7 -98 -7 -104 14 -3 11 -3 30 0 41 5 18 13 19 116 17 110 -2 111
-2 126 24 35 62 -71 213 -186 267 -78 35 -221 42 -300 14z m242 -126 c28 -12
56 -31 64 -40 13 -16 10 -17 -40 -15 -30 1 -64 -1 -77 -5 -62 -20 -89 -178
-44 -263 29 -56 51 -66 123 -58 50 6 58 5 53 -8 -10 -26 -77 -66 -132 -78
-108 -23 -207 23 -277 129 -14 22 -36 43 -48 46 -39 10 -657 7 -677 -4 -10 -5
-24 -26 -30 -46 -16 -47 -73 -110 -124 -137 -60 -31 -165 -29 -229 3 -26 13
-54 31 -61 39 -13 14 -9 16 40 13 78 -5 97 2 122 47 45 79 38 188 -15 252 -27
31 -27 32 -101 26 l-74 -6 27 29 c97 101 278 90 368 -22 18 -23 42 -51 54 -64
l22 -24 339 0 c382 0 346 -8 391 83 57 113 205 160 326 103z"/>
<path d="M627 1676 c-78 -28 -93 -54 -196 -333 l-82 -223 -59 -56 c-103 -98
-101 -89 -98 -547 l3 -394 27 -36 c59 -76 76 -82 235 -82 l141 0 39 31 c55 44
83 104 83 181 l0 63 560 0 560 0 0 -63 c0 -77 28 -137 83 -181 l39 -31 142 0
c140 0 143 0 179 27 19 16 46 43 59 60 l23 33 3 400 c3 456 4 452 -78 540 -43
46 -54 70 -130 275 -88 241 -115 292 -170 324 -34 21 -49 21 -680 23 -522 2
-652 0 -683 -11z m1307 -128 c24 -22 38 -53 137 -321 l29 -78 -36 3 c-34 3
-38 7 -56 55 -26 70 -95 145 -166 180 -49 24 -69 28 -142 28 -73 0 -93 -4
-142 -28 -75 -37 -142 -112 -165 -183 l-17 -54 -442 0 -443 0 23 63 c108 290
120 319 144 337 24 19 44 20 638 20 l613 0 25 -22z m-130 -282 c40 -23 76 -63
89 -98 6 -17 -7 -18 -194 -18 l-200 0 23 41 c57 101 181 134 282 75z m390
-277 c20 -22 41 -51 46 -65 6 -14 10 -125 10 -248 l0 -223 -26 -24 -26 -24
-920 0 -920 0 -24 28 c-24 28 -24 31 -24 239 0 241 3 253 79 318 l46 40 861 0
862 0 36 -41z m-1713 -709 l119 0 0 -46 c0 -92 -27 -113 -146 -114 -85 0 -93
2 -118 26 -23 23 -26 35 -26 90 l0 64 26 -10 c14 -6 79 -10 145 -10z m1769
-50 c0 -53 -3 -64 -26 -85 -25 -23 -35 -25 -118 -25 -59 1 -97 5 -108 14 -23
17 -38 59 -38 106 l0 39 133 4 c72 1 138 4 145 5 8 1 12 -16 12 -58z"/>
<path d="M424 856 c-17 -13 -19 -27 -19 -166 0 -139 2 -153 19 -166 16 -11 62
-14 216 -14 178 0 198 2 213 18 14 16 17 43 17 164 0 128 -2 147 -18 161 -16
15 -46 17 -213 17 -153 0 -199 -3 -215 -14z m326 -166 l0 -60 -110 0 -110 0 0
60 0 60 110 0 110 0 0 -60z"/>
<path d="M1707 852 c-14 -16 -17 -43 -17 -164 0 -128 2 -147 18 -161 16 -15
46 -17 213 -17 153 0 199 3 215 14 17 13 19 27 19 166 0 139 -2 153 -19 166
-16 11 -62 14 -216 14 -178 0 -198 -2 -213 -18z m333 -162 l0 -60 -115 0 -115
0 0 60 0 60 115 0 115 0 0 -60z"/>
<path d="M1017 802 c-21 -23 -22 -66 -1 -86 13 -14 51 -16 264 -16 273 0 280
1 280 60 0 58 -7 60 -279 60 -227 0 -249 -2 -264 -18z"/>
<path d="M1016 664 c-22 -21 -20 -67 2 -87 16 -15 50 -17 265 -17 270 0 277 2
277 60 0 59 -7 60 -280 60 -213 0 -251 -2 -264 -16z"/>
</g>
</svg>
