<?xml version="1.0" standalone="no"?>
<!DOCTYPE svg PUBLIC "-//W3C//DTD SVG 20010904//EN"
 "http://www.w3.org/TR/2001/REC-SVG-20010904/DTD/svg10.dtd">
<svg version="1.0" xmlns="http://www.w3.org/2000/svg"
 width="256.000000pt" height="256.000000pt" viewBox="0 0 256.000000 256.000000"
 preserveAspectRatio="xMidYMid meet">
<metadata>
Created by potrace 1.16, written by Peter Selinger 2001-2019
</metadata>
<g transform="translate(0.000000,256.000000) scale(0.100000,-0.100000)"
fill="#cb2026" stroke="none">
<path d="M315 2546 c-37 -17 -80 -62 -94 -99 -8 -19 -11 -387 -11 -1168 0
-945 2 -1145 14 -1172 16 -39 61 -82 99 -96 19 -8 327 -11 964 -11 l936 0 43
25 c30 18 49 40 68 77 l26 52 0 1126 0 1126 -26 52 c-19 37 -38 59 -68 77
l-43 25 -939 0 c-762 -1 -945 -3 -969 -14z m1875 -156 c13 -20 13 -2200 0
-2220 -8 -13 -121 -15 -899 -18 -881 -2 -891 -2 -911 18 -20 20 -20 30 -20
1110 0 1080 0 1090 20 1110 20 20 30 20 911 18 778 -3 891 -5 899 -18z"/>
<path d="M871 2153 c-7 -3 -46 -50 -85 -104 -72 -96 -73 -97 -92 -79 -10 11
-33 22 -51 26 -27 5 -37 1 -63 -24 -44 -44 -39 -69 29 -155 60 -75 83 -89 131
-77 33 8 239 288 247 336 9 57 -56 101 -116 77z"/>
<path d="M1163 2035 c-44 -31 -37 -111 13 -134 17 -7 148 -11 423 -11 388 0
399 1 425 21 34 27 37 88 4 119 -21 19 -33 20 -433 20 -346 0 -414 -2 -432
-15z"/>
<path d="M871 1663 c-7 -3 -46 -50 -85 -104 -72 -96 -73 -97 -92 -79 -10 11
-33 22 -51 26 -27 5 -37 1 -63 -24 -44 -44 -39 -69 29 -155 60 -75 83 -89 131
-77 33 8 239 288 247 336 9 57 -56 101 -116 77z"/>
<path d="M1169 1530 c-9 -5 -22 -23 -29 -40 -16 -38 0 -82 36 -99 17 -7 148
-11 423 -11 388 0 399 1 425 21 37 29 37 89 0 118 -26 20 -37 21 -433 21 -236
0 -413 -5 -422 -10z"/>
<path d="M865 1166 c-11 -8 -49 -54 -84 -103 l-65 -90 -35 24 c-42 28 -75 25
-108 -13 -32 -35 -29 -65 13 -121 77 -102 108 -122 157 -104 34 13 237 292
244 336 10 63 -69 109 -122 71z"/>
<path d="M1173 1018 c-28 -13 -46 -58 -37 -92 14 -56 12 -56 459 -56 l412 0
21 23 c32 34 30 89 -4 116 -26 20 -37 21 -428 20 -259 0 -409 -4 -423 -11z"/>
<path d="M868 680 c-9 -6 -45 -49 -80 -97 -35 -48 -67 -91 -71 -97 -6 -8 -10
-7 -14 2 -8 21 -57 40 -86 35 -33 -6 -67 -47 -67 -79 0 -12 16 -44 36 -71 77
-102 108 -122 157 -104 37 14 247 306 247 343 0 57 -72 97 -122 68z"/>
<path d="M1173 508 c-28 -13 -46 -58 -37 -92 14 -56 12 -56 459 -56 400 0 412
1 433 20 33 31 30 92 -4 119 -26 20 -37 21 -428 20 -259 0 -409 -4 -423 -11z"/>
</g>
</svg>
