<?xml version="1.0" standalone="no"?>
<!DOCTYPE svg PUBLIC "-//W3C//DTD SVG 20010904//EN"
 "http://www.w3.org/TR/2001/REC-SVG-20010904/DTD/svg10.dtd">
<svg version="1.0" xmlns="http://www.w3.org/2000/svg"
 width="512.000000pt" height="512.000000pt" viewBox="0 0 512.000000 512.000000"
 preserveAspectRatio="xMidYMid meet">

<g transform="translate(0.000000,512.000000) scale(0.100000,-0.100000)"
fill="#cb2026" stroke="none">
<path d="M1600 5104 c-69 -18 -1565 -809 -1585 -838 -13 -17 -15 -87 -15 -433
l0 -412 23 -26 c42 -50 61 -43 443 159 193 102 357 188 366 191 13 5 16 -10
20 -107 5 -126 20 -173 71 -227 37 -39 120 -81 160 -81 l27 0 0 -93 0 -92 -50
-18 c-102 -36 -186 -150 -205 -279 -20 -136 84 -300 222 -350 l33 -12 0 -566
c0 -488 2 -574 16 -620 30 -101 91 -172 187 -215 57 -26 57 -26 57 -71 0 -57
33 -155 70 -209 45 -65 125 -132 188 -156 76 -30 209 -37 285 -15 81 23 171
88 220 157 23 33 46 58 53 55 6 -2 332 -90 725 -196 393 -105 721 -193 730
-196 12 -3 18 -22 21 -75 4 -53 14 -87 40 -140 l34 -69 -1373 0 -1374 0 -24
-25 c-46 -45 -24 -125 38 -140 12 -3 731 -4 1597 -3 1573 3 1575 3 1626 24 73
30 139 78 183 134 22 27 41 55 43 61 3 8 27 5 83 -11 128 -35 169 -40 230 -30
76 12 140 45 192 96 57 58 74 95 123 279 48 180 49 228 7 311 -32 62 -49 78
-172 155 -125 77 -411 271 -447 301 -14 13 -133 178 -264 368 -247 358 -297
421 -399 497 -110 83 -195 116 -570 218 -192 52 -392 104 -444 115 -192 42
-426 43 -654 5 -157 -27 -459 -105 -524 -136 -124 -59 -221 -149 -297 -274
l-36 -60 0 215 0 215 48 19 c109 45 201 176 205 292 2 50 -1 58 -26 80 -60 51
-129 17 -142 -70 -14 -93 -83 -156 -169 -156 -82 0 -145 48 -165 125 -26 104
41 196 155 212 30 4 57 15 71 29 22 22 23 30 23 169 l0 145 28 0 c43 0 124 43
161 85 64 73 65 80 71 409 l5 300 200 106 c238 127 288 167 342 278 37 74 38
79 38 187 0 105 -2 113 -34 179 -92 188 -293 283 -491 230z m229 -190 c86 -46
130 -122 131 -225 0 -63 -32 -138 -77 -181 -16 -15 -370 -207 -788 -428 -418
-221 -797 -422 -843 -447 l-82 -44 2 291 3 291 725 384 c399 211 734 386 745
389 49 11 135 -3 184 -30z m-461 -1130 l-3 -236 -28 -24 c-26 -22 -36 -24
-142 -24 -106 0 -116 2 -142 24 l-28 24 -3 149 -3 149 163 87 c90 48 169 87
176 87 11 0 13 -46 10 -236z m1328 -1419 c155 -28 822 -212 899 -250 82 -40
168 -105 217 -166 20 -24 143 -199 273 -387 232 -336 239 -345 319 -404 87
-65 391 -267 469 -313 48 -28 77 -67 77 -105 0 -25 1 -25 -85 0 -91 26 -133
26 -162 -2 -31 -29 -31 -87 0 -116 12 -11 58 -30 102 -42 44 -12 84 -25 88
-30 5 -4 1 -33 -8 -64 -17 -58 -59 -110 -102 -127 -38 -14 -112 -9 -198 14
l-80 22 -6 72 c-27 292 -341 466 -607 337 -59 -29 -165 -127 -177 -163 -3 -12
-13 -21 -21 -21 -15 0 -1463 388 -1474 395 -4 3 -9 35 -12 73 -8 115 -68 218
-170 294 -113 86 -289 102 -421 41 -74 -35 -153 -104 -183 -158 -21 -40 -24
-41 -64 -20 -41 21 -81 78 -87 123 -7 51 125 550 170 641 59 122 178 214 332
260 106 31 318 78 425 95 130 19 375 20 486 1z m-824 -1087 c51 -15 121 -77
147 -131 27 -56 28 -156 2 -212 -23 -50 -84 -109 -133 -130 -44 -18 -125 -20
-179 -3 -94 27 -169 134 -169 238 1 171 164 289 332 238z m2332 -636 c118 -64
162 -211 98 -333 -95 -182 -349 -182 -445 1 -25 49 -28 63 -25 126 3 58 9 80
33 120 32 51 112 109 164 117 50 9 126 -5 175 -31z"/>
<path d="M2315 2210 c-181 -21 -520 -104 -590 -144 -48 -29 -92 -76 -101 -110
-8 -35 13 -75 48 -91 52 -23 2226 -605 2262 -605 53 0 94 58 76 106 -20 51
-325 477 -374 521 -28 25 -77 58 -109 74 -58 30 -686 206 -835 235 -97 18
-277 25 -377 14z m359 -186 c38 -7 71 -15 73 -18 3 -2 -5 -37 -16 -78 -11 -40
-25 -92 -31 -115 -6 -24 -17 -43 -24 -43 -12 0 -544 141 -666 177 -54 16 -55
16 -25 24 73 21 279 61 356 69 101 10 238 4 333 -16z m497 -129 c250 -68 316
-94 367 -149 37 -39 183 -248 178 -254 -4 -3 -629 162 -812 214 l-52 15 32
119 c17 66 34 120 38 120 4 0 116 -29 249 -65z"/>
<path d="M2704 1386 c-55 -24 -64 -96 -18 -138 21 -18 343 -108 388 -108 63 0
100 90 56 137 -22 24 -40 30 -380 118 -8 2 -29 -2 -46 -9z"/>
<path d="M1732 1097 c-49 -52 -13 -137 57 -137 44 0 67 14 80 50 28 83 -78
150 -137 87z"/>
<path d="M4043 500 c-75 -31 -45 -160 37 -160 66 0 105 87 63 139 -21 24 -68
35 -100 21z"/>
</g>
</svg>
