<?xml version="1.0" standalone="no"?>
<!DOCTYPE svg PUBLIC "-//W3C//DTD SVG 20010904//EN"
 "http://www.w3.org/TR/2001/REC-SVG-20010904/DTD/svg10.dtd">
<svg version="1.0" xmlns="http://www.w3.org/2000/svg"
 width="512.000000pt" height="512.000000pt" viewBox="0 0 512.000000 512.000000"
 preserveAspectRatio="xMidYMid meet">
<metadata>
Created by potrace 1.16, written by Peter Selinger 2001-2019
</metadata>
<g transform="translate(0.000000,512.000000) scale(0.100000,-0.100000)"
fill="#cb2026" stroke="none">
<path d="M207 4376 c-89 -32 -147 -117 -147 -216 0 -75 25 -124 104 -207 l66
-70 0 -307 c0 -372 1 -376 101 -376 159 0 221 -199 89 -287 -25 -18 -47 -23
-94 -23 -104 0 -158 51 -171 161 -6 47 -12 63 -32 79 -33 26 -64 25 -97 -1
-24 -19 -26 -27 -26 -93 0 -121 62 -220 173 -278 58 -30 195 -37 266 -13 110
36 197 152 208 275 13 141 -85 288 -214 323 l-43 11 0 186 0 185 489 -489 489
-489 -48 -60 c-26 -33 -60 -81 -74 -107 -32 -58 -66 -187 -66 -247 l0 -43
-522 0 c-508 0 -523 -1 -565 -21 -23 -11 -53 -35 -65 -52 -23 -32 -23 -32 -25
-497 l-3 -465 23 -39 c13 -25 39 -48 66 -63 43 -22 52 -23 280 -23 l237 0 27
-63 c60 -137 202 -263 350 -309 101 -32 253 -32 354 0 148 46 277 160 346 304
l32 68 815 0 816 0 27 -59 c78 -169 226 -288 407 -327 259 -55 527 74 637 305
l38 80 306 1 c295 0 307 1 333 21 l26 20 0 608 0 607 -26 52 c-28 56 -63 90
-128 125 -37 20 -59 22 -253 27 l-212 5 -319 455 c-336 481 -355 503 -450 530
-23 6 -223 10 -523 10 -567 0 -559 1 -645 -84 -86 -86 -84 -73 -84 -688 l0
-528 -70 0 -70 0 0 38 c-1 112 -54 252 -134 353 -52 66 -171 149 -248 174 -50
16 -93 57 -793 756 -570 569 -750 743 -785 758 -52 24 -118 26 -173 7z m780
-818 l673 -673 -72 -22 -73 -22 -647 647 c-587 586 -648 650 -648 679 0 36 29
63 70 63 19 0 164 -140 697 -672z m2722 -142 c18 -10 123 -151 302 -408 152
-216 279 -399 283 -405 6 -10 -162 -13 -823 -13 l-831 0 0 370 c0 410 0 412
63 450 31 19 54 20 505 20 392 0 478 -2 501 -14z m-1845 -701 c174 -46 314
-219 316 -392 l0 -33 -420 0 -420 0 0 33 c1 93 51 206 126 281 108 108 254
148 398 111z m3032 -301 c46 -22 66 -64 72 -150 l4 -71 -83 -5 c-133 -9 -226
-64 -284 -169 -28 -50 -30 -61 -30 -159 0 -98 2 -109 30 -159 58 -105 151
-160 283 -169 l82 -5 0 -118 0 -119 -245 0 -245 0 0 38 c0 73 -22 157 -62 241
-168 351 -649 429 -927 150 -96 -96 -155 -222 -167 -357 l-7 -72 -338 0 -339
0 0 570 0 570 1111 0 c1008 0 1114 -2 1145 -16z m-2416 -704 l0 -420 -369 0
-368 0 -7 69 c-21 236 -179 435 -401 504 -98 31 -252 31 -350 0 -221 -69 -382
-271 -402 -505 l-6 -68 -207 0 c-180 0 -209 2 -214 16 -8 20 -8 788 0 808 6
14 118 16 1165 16 l1159 0 0 -420z m2490 150 l0 -170 -52 0 c-67 0 -128 28
-159 71 -19 28 -24 46 -24 99 0 53 5 71 24 99 31 43 92 71 159 71 l52 0 0
-170z m-3670 -156 c157 -61 262 -197 277 -359 16 -170 -82 -335 -242 -412
-250 -119 -541 36 -588 314 -35 202 101 411 305 468 66 19 186 14 248 -11z
m2747 -2 c159 -61 273 -224 273 -392 0 -128 -71 -264 -176 -339 -80 -57 -141
-76 -249 -76 -83 0 -96 3 -165 36 -222 107 -310 361 -198 570 55 103 165 191
276 219 56 14 180 5 239 -18z"/>
<path d="M2805 2265 c-16 -15 -25 -36 -25 -55 0 -19 9 -40 25 -55 23 -24 29
-25 155 -25 126 0 132 1 155 25 16 15 25 36 25 55 0 19 -9 40 -25 55 -23 24
-29 25 -155 25 -126 0 -132 -1 -155 -25z"/>
<path d="M1066 1574 c-65 -20 -146 -101 -169 -168 -63 -184 72 -376 263 -376
150 0 280 130 280 280 0 152 -132 282 -284 279 -23 0 -63 -7 -90 -15z m145
-159 c35 -19 69 -70 69 -105 0 -56 -65 -120 -122 -120 -13 0 -37 9 -55 20
-129 78 -26 274 108 205z"/>
<path d="M3806 1574 c-72 -23 -149 -103 -172 -179 -66 -228 148 -428 368 -345
58 21 123 81 154 140 26 49 26 191 0 240 -68 129 -209 187 -350 144z m178
-183 c26 -27 31 -39 31 -81 0 -40 -5 -54 -29 -79 -56 -58 -144 -48 -186 21
-24 40 -25 69 -5 109 39 74 130 88 189 30z"/>
</g>
</svg>
