<?xml version="1.0" standalone="no"?>
<!DOCTYPE svg PUBLIC "-//W3C//DTD SVG 20010904//EN"
 "http://www.w3.org/TR/2001/REC-SVG-20010904/DTD/svg10.dtd">
<svg version="1.0" xmlns="http://www.w3.org/2000/svg"
 width="512.000000pt" height="512.000000pt" viewBox="0 0 512.000000 512.000000"
 preserveAspectRatio="xMidYMid meet">

<g transform="translate(0.000000,512.000000) scale(0.100000,-0.100000)"
fill="#cb2026" stroke="none">
<path d="M3375 5108 c-45 -26 -44 -18 -45 -560 0 -542 3 -590 47 -699 60 -152
188 -293 327 -361 l46 -22 0 -68 0 -68 -255 0 -255 0 0 40 0 40 -85 0 -85 0 0
-58 0 -58 -151 -74 c-83 -41 -160 -86 -170 -99 -16 -20 -19 -41 -19 -127 0
-56 4 -114 10 -128 7 -20 45 -43 170 -106 l160 -80 0 -60 0 -60 84 0 85 0 3
43 3 42 238 3 c210 2 237 1 237 -13 0 -29 -89 -327 -105 -352 -19 -28 -72 -63
-97 -63 -16 0 -18 -11 -18 -86 l0 -87 45 6 c104 15 207 98 241 196 l19 51 145
0 145 0 76 -380 76 -380 -119 0 -118 0 0 -85 0 -85 135 0 c131 0 135 -1 140
-22 3 -13 21 -99 39 -193 43 -216 43 -215 187 -215 l99 0 0 -90 c0 -106 -14
-142 -61 -159 -21 -7 -169 -11 -445 -11 -476 0 -479 0 -577 -90 -74 -67 -109
-147 -109 -244 0 -139 67 -248 190 -308 l67 -33 722 -3 723 -3 0 86 0 85 -698
0 -698 0 -44 23 c-119 60 -127 208 -16 291 26 20 43 21 474 26 443 5 447 5
494 28 61 30 114 93 133 156 9 29 15 90 15 148 l0 98 100 0 c94 0 103 2 125
25 17 16 25 35 25 60 0 19 -54 359 -120 755 -66 396 -120 723 -120 728 0 5 64
39 142 77 78 37 152 78 165 91 22 22 23 30 23 174 0 152 -6 181 -39 207 -11 9
-74 12 -213 13 l-196 0 -37 109 c-20 60 -45 117 -56 127 -18 16 -41 19 -165
22 l-144 3 0 67 0 67 68 35 c96 49 225 181 274 280 78 158 78 159 78 751 0
290 -3 535 -6 544 -17 44 -28 45 -676 45 -442 -1 -619 -4 -633 -12z m1145
-243 l0 -85 -510 0 -510 0 0 85 0 85 510 0 510 0 0 -85z m0 -547 c0 -212 -4
-307 -14 -343 -41 -156 -142 -274 -297 -348 -53 -25 -99 -53 -103 -62 -3 -9
-6 -66 -6 -126 l0 -109 -85 0 -85 0 -1 93 c0 107 -14 156 -49 174 -14 7 -56
27 -95 45 -86 41 -178 129 -222 213 -57 110 -63 152 -63 469 l0 286 510 0 510
0 0 -292z m-21 -1270 c20 -59 44 -115 54 -125 15 -16 41 -18 207 -21 l190 -3
0 -57 0 -57 -155 -77 c-179 -90 -191 -102 -181 -183 l6 -55 -90 0 -90 0 0 -85
0 -85 105 0 104 0 6 -32 c3 -18 9 -54 14 -80 5 -26 6 -50 3 -53 -3 -3 -38 -5
-79 -5 l-73 0 0 -85 0 -85 94 0 93 0 12 -69 c17 -106 20 -101 -49 -101 l-60 0
0 -85 0 -84 77 -3 78 -3 12 -70 c17 -101 19 -95 -37 -95 l-50 0 0 -85 0 -85
64 0 c72 0 66 7 82 -95 3 -22 8 -48 11 -58 4 -16 -7 -17 -168 -15 l-173 3
-166 827 c-144 722 -168 830 -188 850 l-23 23 -444 3 -445 3 0 169 0 170 612
-2 611 -3 36 -107z m-1429 -63 l0 -115 -85 42 c-81 40 -85 44 -85 75 0 31 5
35 78 72 42 22 80 40 85 41 4 0 7 -52 7 -115z m966 -391 c6 -29 14 -68 18 -88
l7 -36 -101 0 c-68 0 -100 4 -100 11 0 13 40 150 47 162 3 4 30 7 61 5 l57 -3
11 -51z"/>
<path d="M3670 4355 l0 -85 85 0 85 0 0 85 0 85 -85 0 -85 0 0 -85z"/>
<path d="M3674 4053 c21 -152 166 -293 301 -293 l35 0 0 84 0 83 -41 7 c-55 9
-104 58 -121 120 l-12 46 -84 0 -85 0 7 -47z"/>
<path d="M1253 3996 c-23 -8 -57 -23 -76 -35 -83 -51 -107 -91 -416 -709
l-301 -601 -47 -6 c-166 -21 -264 -78 -343 -198 -73 -113 -71 -72 -68 -1232
l3 -1030 22 -40 c25 -47 74 -95 123 -121 32 -17 67 -19 425 -22 280 -2 402 0
433 9 60 17 116 60 149 116 l28 48 5 295 5 295 1023 3 1022 2 0 85 0 85 -1432
0 c-1419 0 -1433 1 -1478 21 -50 23 -105 70 -126 111 -8 15 -14 29 -14 33 0 3
686 5 1525 5 l1525 0 0 85 0 85 -1535 0 -1535 0 0 483 c0 321 4 495 11 522 17
60 64 121 117 152 l47 28 765 5 765 5 0 85 0 85 -612 3 -613 2 275 549 c151
302 288 565 304 584 17 18 48 39 69 45 29 9 283 12 951 12 l911 0 0 85 0 85
-932 -1 c-738 0 -942 -3 -975 -13z m-926 -3216 c10 0 13 -64 13 -305 l0 -305
-56 0 c-48 0 -59 4 -85 29 l-29 29 0 311 0 310 72 -34 c40 -19 78 -35 85 -35z
m353 -310 l0 -300 -85 0 -85 0 0 300 0 300 85 0 85 0 0 -300z m340 31 c0 -148
-3 -277 -6 -286 -10 -25 -59 -45 -114 -45 l-50 0 0 300 0 300 85 0 85 0 0
-269z"/>
<path d="M1710 3585 l0 -85 85 0 85 0 0 85 0 85 -85 0 -85 0 0 -85z"/>
<path d="M2047 3495 l-37 -75 250 -125 c137 -69 253 -125 258 -125 4 0 24 34
45 75 l37 75 -250 125 c-137 69 -253 125 -258 125 -4 0 -24 -34 -45 -75z"/>
<path d="M1450 3325 l0 -85 85 0 85 0 0 85 0 85 -85 0 -85 0 0 -85z"/>
<path d="M1620 2985 l0 -85 85 0 85 0 0 85 0 85 -85 0 -85 0 0 -85z"/>
<path d="M1960 2985 l0 -85 300 0 300 0 0 85 0 85 -300 0 -300 0 0 -85z"/>
<path d="M2257 2674 l-247 -124 36 -73 c20 -39 38 -73 39 -75 2 -2 118 54 258
124 l255 128 -36 73 c-20 40 -41 73 -47 72 -5 0 -121 -56 -258 -125z"/>
<path d="M502 2285 c-55 -24 -98 -63 -128 -117 l-29 -53 -3 -212 c-4 -251 5
-298 69 -368 73 -79 103 -85 438 -85 318 0 357 6 423 60 20 17 49 56 65 88
l28 57 0 225 c0 216 -1 227 -23 272 -29 58 -101 124 -151 138 -21 6 -168 10
-346 10 -245 -1 -317 -4 -343 -15z m662 -176 l26 -20 0 -210 c0 -195 -1 -210
-20 -229 -11 -11 -30 -22 -42 -25 -13 -3 -146 -5 -295 -3 -347 4 -317 -18
-321 226 -4 200 0 234 30 262 21 19 36 20 309 20 275 0 287 -1 313 -21z"/>
<path d="M1685 2276 c-60 -28 -97 -66 -124 -126 -19 -41 -21 -65 -21 -276 0
-229 0 -230 26 -283 31 -61 96 -114 161 -130 28 -7 293 -11 777 -11 l736 0 0
85 0 85 -731 0 c-536 0 -736 3 -752 12 -37 19 -46 40 -47 101 l0 57 765 0 765
0 0 85 0 85 -765 0 -765 0 0 60 c0 51 4 65 25 85 l24 25 741 0 740 0 0 85 0
85 -752 0 -753 0 -50 -24z"/>
</g>
</svg>
