<?xml version="1.0" standalone="no"?>
<!DOCTYPE svg PUBLIC "-//W3C//DTD SVG 20010904//EN"
 "http://www.w3.org/TR/2001/REC-SVG-20010904/DTD/svg10.dtd">
<svg version="1.0" xmlns="http://www.w3.org/2000/svg"
 width="512.000000pt" height="512.000000pt" viewBox="0 0 512.000000 512.000000"
 preserveAspectRatio="xMidYMid meet">
<metadata>
Created by potrace 1.16, written by Peter Selinger 2001-2019
</metadata>
<g transform="translate(0.000000,512.000000) scale(0.100000,-0.100000)"
fill="#cb2026" stroke="none">
<path d="M4505 4998 c-106 -12 -159 -40 -444 -243 -151 -107 -277 -195 -280
-195 -4 0 -33 24 -66 54 -79 70 -112 86 -180 86 -159 0 -259 -162 -187 -305 8
-16 62 -78 121 -138 l105 -107 -76 -77 -76 -76 -34 20 c-18 12 -80 45 -138 74
-97 49 -110 53 -175 53 -86 0 -145 -26 -204 -89 -76 -83 -90 -204 -34 -306 31
-58 65 -90 136 -125 l50 -26 -49 -43 -49 -43 -138 71 c-131 68 -141 71 -205
71 -161 -1 -275 -113 -274 -269 1 -109 45 -180 147 -240 l66 -38 -44 -44 -43
-44 -141 72 c-135 70 -144 73 -210 73 -111 0 -201 -55 -249 -150 -28 -57 -26
-184 3 -240 27 -50 85 -103 141 -128 23 -10 42 -22 42 -25 0 -4 -19 -26 -43
-49 l-43 -43 -141 73 c-136 69 -144 72 -210 71 -86 0 -149 -29 -203 -91 -50
-56 -75 -134 -67 -205 7 -56 6 -56 -69 16 -34 32 -47 38 -75 35 -31 -3 -41
-13 -103 -103 -104 -153 -119 -189 -115 -289 4 -73 8 -89 37 -137 l34 -53
-142 -141 -141 -140 -93 -199 -92 -200 -65 -16 c-132 -32 -243 -109 -318 -221
-114 -171 -113 -408 4 -583 151 -228 475 -296 720 -151 116 68 210 198 237
325 l12 58 205 93 206 92 141 139 141 139 48 -30 c26 -17 72 -35 102 -41 101
-21 174 4 338 116 147 101 148 94 -49 293 l-156 156 92 92 92 92 138 -72 c136
-71 140 -72 211 -71 83 1 130 19 186 69 74 67 106 206 68 297 -22 52 -80 112
-144 148 l-56 32 45 45 45 45 141 -73 c135 -70 143 -73 209 -73 162 0 273 112
273 273 0 103 -67 200 -167 245 -24 10 -43 22 -43 25 0 4 20 26 44 50 l44 44
34 -21 c18 -11 80 -44 138 -73 97 -49 110 -53 175 -53 125 0 227 74 261 190
38 132 -21 261 -150 326 -22 11 -43 22 -45 24 -3 3 15 24 39 49 l43 44 139
-72 c136 -70 141 -72 211 -71 116 1 202 56 247 156 11 26 21 67 22 91 l2 44
46 -14 c106 -33 231 32 260 135 25 91 1 161 -84 250 l-54 57 190 260 c104 143
203 287 219 320 85 178 45 391 -99 528 -107 101 -235 143 -387 125z m165 -140
c149 -45 258 -217 231 -365 -6 -31 -20 -74 -31 -94 -22 -43 -381 -539 -389
-539 -10 0 -606 599 -601 603 18 16 495 350 525 369 74 43 174 53 265 26z
m-589 -790 c294 -291 512 -513 516 -527 14 -54 -55 -114 -104 -92 -32 15
-1009 977 -1028 1013 -26 47 15 108 72 108 31 0 74 -39 544 -502z m-206 -209
l200 -202 -115 60 c-63 33 -182 95 -263 138 l-148 78 63 64 c34 35 63 63 63
63 0 0 90 -91 200 -201z m-221 -131 c292 -154 546 -289 564 -300 42 -26 62
-65 62 -122 0 -83 -88 -149 -167 -127 -37 11 -1110 576 -1135 598 -30 26 -50
82 -44 119 14 70 90 129 155 118 19 -3 274 -132 565 -286z m-479 -500 c568
-299 598 -318 611 -383 8 -45 -20 -106 -63 -135 -71 -49 -65 -51 -663 265
-300 158 -557 296 -571 306 -36 25 -53 70 -46 125 8 76 78 130 152 117 17 -3
278 -135 580 -295z m236 165 l259 -137 -42 -43 c-23 -24 -46 -43 -51 -43 -5 0
-125 62 -268 137 l-259 137 42 43 c23 24 46 43 51 43 5 0 126 -62 268 -137z
m-1261 -379 c154 -71 1070 -563 1099 -589 44 -41 54 -112 21 -163 -29 -47
-101 -78 -147 -64 -43 13 -1076 556 -1121 589 -90 67 -79 188 21 233 54 25 61
25 127 -6z m762 -111 l259 -136 -43 -44 c-23 -23 -45 -43 -49 -43 -4 0 -65 31
-136 68 -70 38 -186 99 -257 136 l-128 68 43 44 c24 24 45 44 47 44 2 0 121
-61 264 -137z m-768 -635 c281 -148 532 -282 559 -296 60 -32 87 -75 87 -137
0 -42 -5 -52 -38 -85 -55 -55 -95 -60 -174 -23 -136 64 -1074 566 -1095 585
-12 12 -28 37 -34 56 -29 89 62 192 155 175 15 -3 258 -127 540 -275z m242
161 c126 -67 242 -128 258 -136 l28 -15 -43 -44 c-27 -28 -49 -42 -59 -39 -8
3 -127 65 -263 137 l-249 130 43 44 c24 24 46 44 50 44 4 0 110 -54 235 -121z
m-656 -700 l532 -526 -80 -51 c-93 -60 -140 -71 -194 -45 -45 21 -871 830
-894 876 -28 54 -15 121 41 205 26 40 51 71 55 70 4 -2 247 -240 540 -529z
m194 191 l256 -135 -80 -80 -80 -80 -200 200 c-189 188 -198 200 -183 217 9
10 20 17 24 16 5 -2 123 -64 263 -138z m-489 -475 l310 -304 -112 -112 -111
-112 -316 308 -316 309 113 107 c61 60 114 108 117 108 3 0 145 -136 315 -304z
m-320 -317 c157 -155 282 -285 278 -289 -4 -4 -62 -32 -129 -61 l-120 -55 -18
64 c-48 167 -179 300 -347 353 -41 13 -75 24 -77 25 -5 4 112 245 120 245 4 0
136 -127 293 -282z m-370 -115 c137 -48 237 -164 265 -311 32 -162 -64 -338
-228 -419 -52 -26 -67 -28 -167 -28 -101 0 -115 2 -170 29 -157 77 -251 250
-225 414 20 120 106 239 213 294 91 46 217 55 312 21z"/>
<path d="M4530 4761 c-175 -36 -236 -249 -106 -369 111 -103 279 -73 348 62
31 60 23 161 -17 218 -48 67 -144 105 -225 89z m115 -164 c26 -36 19 -82 -16
-111 -49 -41 -106 -29 -134 30 -17 36 -10 68 21 95 38 33 101 26 129 -14z"/>
<path d="M492 884 c-167 -83 -204 -303 -72 -435 61 -61 126 -83 222 -77 82 6
145 40 195 106 41 54 57 111 50 187 -11 147 -120 244 -273 245 -56 0 -81 -5
-122 -26z m196 -124 c68 -42 91 -124 52 -188 -72 -119 -250 -82 -266 55 -14
110 118 192 214 133z"/>
</g>
</svg>
