<?xml version="1.0" standalone="no"?>
<!DOCTYPE svg PUBLIC "-//W3C//DTD SVG 20010904//EN"
 "http://www.w3.org/TR/2001/REC-SVG-20010904/DTD/svg10.dtd">
<svg version="1.0" xmlns="http://www.w3.org/2000/svg"
 width="512.000000pt" height="512.000000pt" viewBox="0 0 512.000000 512.000000"
 preserveAspectRatio="xMidYMid meet">

<g transform="translate(0.000000,512.000000) scale(0.100000,-0.100000)"
fill="#cb2026" stroke="none">
<path d="M3586 4950 c-65 -17 -155 -71 -198 -119 -22 -25 -55 -75 -72 -111
-28 -59 -31 -74 -31 -160 0 -86 3 -101 31 -161 18 -36 52 -87 76 -113 l45 -46
-45 -46 c-68 -72 -104 -157 -110 -265 l-5 -89 -54 0 c-65 0 -103 -29 -103 -80
0 -19 9 -40 25 -55 l24 -25 511 0 511 0 24 25 c33 32 33 78 0 110 -20 20 -34
25 -78 25 l-54 0 -5 89 c-6 108 -42 193 -110 265 l-45 46 44 45 c234 245 73
655 -265 671 -42 2 -94 -1 -116 -6z m168 -162 c86 -26 166 -136 166 -228 0
-124 -116 -240 -240 -240 -63 0 -114 23 -165 75 -78 77 -95 166 -51 261 53
113 171 167 290 132z m0 -640 c55 -16 138 -99 154 -154 7 -23 12 -67 12 -98
l0 -56 -240 0 -240 0 0 56 c0 87 18 133 75 189 70 71 145 90 239 63z"/>
<path d="M3600 4560 l0 -80 80 0 80 0 0 80 0 80 -80 0 -80 0 0 -80z"/>
<path d="M3641 3436 c-443 -75 -485 -84 -502 -105 -27 -32 -24 -77 6 -106 13
-14 32 -25 42 -25 10 0 241 37 513 82 439 73 498 85 517 105 49 48 11 134 -59
132 -18 -1 -251 -38 -517 -83z"/>
<path d="M3641 3116 c-443 -75 -485 -84 -502 -105 -27 -32 -24 -77 6 -106 13
-14 32 -25 42 -25 10 0 241 37 513 82 439 73 498 85 517 105 49 48 11 134 -59
132 -18 -1 -251 -38 -517 -83z"/>
<path d="M960 2867 c-49 -16 -133 -102 -148 -153 -9 -31 -12 -212 -12 -698 l0
-656 80 0 80 0 0 655 0 656 25 24 c22 23 32 25 120 25 l95 0 0 -240 0 -240 80
0 80 0 0 240 0 240 80 0 80 0 0 -1200 0 -1200 -80 0 -80 0 0 880 0 880 -80 0
-80 0 0 -880 0 -880 -95 0 c-88 0 -98 2 -120 25 l-25 24 0 251 0 250 -80 0
-80 0 0 -251 c0 -168 4 -265 12 -293 16 -55 99 -138 154 -154 30 -9 198 -12
636 -12 680 0 657 -2 731 80 24 26 49 66 55 88 8 27 12 154 12 416 l0 376 135
0 c131 0 137 1 160 25 21 20 25 34 25 80 l0 55 316 0 317 0 49 -46 c27 -25 79
-60 116 -77 61 -29 76 -32 163 -32 90 0 99 2 171 37 91 45 147 103 191 196 29
61 32 76 32 163 0 89 -2 99 -37 170 -20 40 -54 91 -75 112 l-39 37 43 45 c74
78 113 178 113 293 l0 62 55 0 c46 0 60 4 80 25 33 32 33 78 0 110 l-24 25
-511 0 -511 0 -24 -25 c-16 -15 -25 -36 -25 -55 0 -51 38 -80 103 -80 l54 0 5
-89 c6 -108 42 -193 110 -264 l44 -47 -41 -40 -41 -40 -317 0 -317 0 0 55 c0
46 -4 60 -25 80 -23 24 -29 25 -160 25 l-135 0 0 376 c0 262 -4 389 -12 416
-6 22 -31 62 -55 88 -74 83 -50 80 -737 79 -408 -1 -612 -5 -636 -12z m880
-942 l0 -795 80 0 80 0 0 795 0 795 95 0 c88 0 98 -2 120 -25 l25 -24 0 -1151
0 -1151 -25 -24 c-22 -23 -32 -25 -120 -25 l-95 0 0 320 0 320 -80 0 -80 0 0
-320 0 -320 -80 0 -80 0 0 1200 0 1200 80 0 80 0 0 -795z m2080 259 c0 -31 -5
-75 -12 -98 -16 -55 -99 -138 -154 -154 -94 -28 -169 -8 -239 63 -57 56 -75
102 -75 189 l0 56 240 0 240 0 0 -56z m-1360 -664 l0 -240 -80 0 -80 0 0 240
0 240 80 0 80 0 0 -240z m1194 228 c55 -16 138 -99 154 -154 28 -94 8 -169
-63 -239 -102 -103 -243 -101 -338 5 -68 76 -85 165 -46 250 27 60 64 98 124
126 56 26 107 30 169 12z m-469 -228 l0 -80 -282 0 -283 0 0 80 0 80 283 0
282 0 0 -80z"/>
<path d="M3600 1520 l0 -80 80 0 80 0 0 80 0 80 -80 0 -80 0 0 -80z"/>
<path d="M3641 2796 c-443 -75 -485 -84 -502 -105 -27 -32 -24 -77 6 -106 13
-14 32 -25 42 -25 10 0 241 37 513 82 439 73 498 85 517 105 49 48 11 134 -59
132 -18 -1 -251 -38 -517 -83z"/>
<path d="M800 1115 l0 -85 80 0 80 0 0 85 0 85 -80 0 -80 0 0 -85z"/>
</g>
</svg>
