<?xml version="1.0" standalone="no"?>
<!DOCTYPE svg PUBLIC "-//W3C//DTD SVG 20010904//EN"
 "http://www.w3.org/TR/2001/REC-SVG-20010904/DTD/svg10.dtd">
<svg version="1.0" xmlns="http://www.w3.org/2000/svg"
 width="512.000000pt" height="512.000000pt" viewBox="0 0 512.000000 512.000000"
 preserveAspectRatio="xMidYMid meet">

<g transform="translate(0.000000,512.000000) scale(0.100000,-0.100000)"
fill="#cb2026" stroke="none">
<path d="M2465 4374 c-709 -67 -1304 -125 -1322 -129 -38 -7 -88 -46 -108 -85
-11 -21 -95 -574 -95 -624 0 -5 -8 -2 -17 6 -28 25 -77 47 -129 58 -37 8 -98
6 -278 -10 -127 -12 -248 -26 -269 -31 -51 -13 -102 -61 -123 -114 -15 -41
-15 -55 -1 -193 17 -169 32 -209 97 -265 68 -58 105 -63 318 -43 101 9 186 15
188 13 2 -2 -19 -20 -46 -41 -28 -21 -53 -48 -56 -61 -4 -18 64 -799 81 -932
6 -40 5 -42 -28 -52 -45 -15 -97 -70 -106 -114 -5 -21 -1 -109 10 -222 15
-152 22 -193 40 -221 26 -43 85 -74 139 -74 l40 0 0 -302 c0 -176 4 -318 10
-340 18 -63 70 -129 130 -162 l55 -31 365 0 365 0 55 31 c60 33 112 99 130
162 6 22 10 182 10 395 0 214 4 357 9 357 27 0 1214 111 1706 160 110 11 201
20 203 20 1 0 2 -146 2 -324 l0 -324 -35 -6 c-43 -8 -94 -50 -111 -93 -19 -44
-19 -242 0 -287 8 -18 31 -46 52 -62 l37 -29 338 0 c325 0 339 1 365 21 64 47
69 63 69 214 l0 138 -31 39 c-21 26 -45 43 -77 53 l-47 15 0 198 0 197 120 0
120 0 0 -135 c0 -131 1 -137 25 -160 23 -24 31 -25 135 -25 104 0 112 1 135
25 33 32 33 78 0 110 -20 21 -34 25 -80 25 l-55 0 0 135 c0 131 -1 137 -25
160 -24 25 -27 25 -200 25 l-175 0 0 70 0 69 33 5 c17 3 103 12 189 20 166 16
201 27 237 72 38 48 40 82 21 279 -20 203 -30 232 -90 272 -27 19 -47 23 -106
23 -41 0 -74 4 -74 9 0 4 -20 221 -45 481 -50 527 -42 493 -130 538 -27 14
-45 26 -40 28 6 2 109 13 229 24 244 24 284 36 336 99 59 70 65 105 51 270
-14 167 -30 214 -86 257 -28 21 -51 29 -93 32 -78 5 -480 -35 -533 -53 -43
-16 -104 -55 -126 -83 -7 -9 -14 -14 -16 -11 -2 2 -45 128 -97 279 -51 151
-101 289 -112 307 -24 41 -91 73 -149 72 -24 -1 -624 -57 -1334 -125z m1508
-499 l155 -464 -31 -6 c-38 -6 -3003 -285 -3031 -285 -17 0 -18 6 -12 58 19
176 120 898 126 905 7 8 134 21 1365 137 358 34 778 74 935 89 157 16 297 29
312 30 26 1 28 -3 181 -464z m868 -90 c4 -22 10 -81 14 -131 6 -86 6 -92 -17
-118 -23 -27 -26 -28 -273 -51 -138 -14 -257 -25 -266 -25 -17 0 -59 116 -59
164 0 58 41 126 94 153 31 16 354 52 446 49 l55 -1 6 -40z m-4045 -354 c78
-35 109 -105 98 -217 -6 -54 -11 -67 -28 -74 -31 -13 -493 -53 -521 -46 -37 9
-52 50 -64 176 -9 90 -8 117 2 126 7 7 96 21 212 32 257 25 253 25 301 3z
m3457 -236 c45 -24 90 -50 99 -57 14 -11 23 -87 58 -456 23 -244 40 -445 39
-447 -2 -1 -251 -26 -554 -55 -688 -64 -2832 -267 -2942 -278 l-82 -8 -6 41
c-3 22 -21 211 -40 420 -19 209 -37 393 -38 409 -3 25 6 37 86 102 49 41 99
76 111 79 11 2 674 65 1471 140 798 75 1484 140 1525 144 163 18 182 15 273
-34z m466 -1242 c7 -76 13 -147 14 -158 2 -18 -10 -21 -198 -38 -110 -10 -383
-35 -606 -57 -484 -48 -469 -47 -470 -17 0 12 -6 81 -13 152 -8 72 -12 131
-11 133 2 2 259 28 572 57 312 30 577 56 588 58 11 2 41 5 66 6 l46 1 12 -137z
m-1431 -156 c8 -82 12 -150 10 -152 -2 -2 -250 -27 -552 -56 -401 -38 -550
-49 -555 -40 -8 13 -34 292 -27 298 7 8 1000 101 1056 99 l55 -1 13 -148z
m-1274 -122 c8 -82 13 -151 12 -152 -2 -2 -174 -19 -382 -38 -440 -41 -768
-72 -840 -81 l-50 -6 -12 128 c-18 190 -18 194 16 194 15 1 299 27 632 58 333
32 606 55 607 52 1 -3 9 -72 17 -155z m2226 -450 l0 -345 -120 0 -120 0 0 330
c0 182 1 330 3 331 1 1 54 7 117 14 63 6 116 13 118 14 1 0 2 -154 2 -344z
m-2482 -250 l-3 -355 -27 -26 c-19 -20 -39 -28 -77 -32 l-51 -5 0 381 0 381
48 4 c26 2 62 4 80 5 l33 2 -3 -355z m-318 -45 l0 -370 -80 0 -80 0 0 364 0
365 53 4 c28 2 64 4 80 5 l27 2 0 -370z m-320 -16 l0 -357 -51 5 c-38 4 -58
12 -77 32 l-27 26 -3 320 -3 319 53 4 c29 2 65 4 81 5 l27 2 0 -356z m3280
-274 l0 -80 -280 0 -280 0 0 80 0 80 280 0 280 0 0 -80z"/>
<path d="M3845 3059 c-104 -10 -206 -23 -227 -29 -41 -12 -94 -66 -105 -108
-9 -36 32 -474 48 -504 20 -39 61 -77 95 -88 24 -8 85 -6 251 10 120 11 232
25 249 30 17 6 45 26 64 45 26 26 34 45 38 83 4 44 -19 342 -34 446 -11 71
-96 139 -169 135 -11 -1 -105 -10 -210 -20z m239 -338 c10 -105 16 -194 13
-197 -8 -9 -381 -43 -388 -36 -8 9 -42 382 -36 388 5 5 366 42 382 39 6 -1 19
-88 29 -194z"/>
<path d="M2580 2910 c-272 -27 -510 -51 -528 -54 -71 -11 -131 -87 -132 -165
0 -46 116 -447 142 -489 11 -18 39 -42 61 -54 51 -26 -1 -29 1007 68 37 3 81
15 103 27 67 38 76 64 99 285 30 303 23 352 -62 410 -46 31 -99 29 -690 -28z
m610 -142 c0 -18 -7 -112 -17 -210 l-16 -176 -41 -6 c-79 -11 -917 -88 -921
-84 -9 8 -118 399 -113 404 7 6 970 101 1051 103 l57 1 0 -32z"/>
<path d="M1305 2819 c-104 -10 -205 -21 -223 -24 -44 -8 -109 -73 -117 -119
-10 -50 32 -471 50 -506 19 -37 68 -77 103 -85 45 -10 471 34 510 52 18 9 44
32 58 52 30 45 31 94 5 353 -21 201 -29 227 -84 265 -46 32 -90 33 -302 12z
m215 -151 c0 -7 7 -95 17 -195 9 -101 14 -186 10 -189 -8 -8 -380 -45 -386
-38 -6 6 -43 386 -38 390 2 2 89 12 193 23 104 10 192 19 197 20 4 0 7 -5 7
-11z"/>
</g>
</svg>
