<?xml version="1.0" standalone="no"?>
<!DOCTYPE svg PUBLIC "-//W3C//DTD SVG 20010904//EN"
 "http://www.w3.org/TR/2001/REC-SVG-20010904/DTD/svg10.dtd">
<svg version="1.0" xmlns="http://www.w3.org/2000/svg"
 width="512.000000pt" height="512.000000pt" viewBox="0 0 512.000000 512.000000"
 preserveAspectRatio="xMidYMid meet">
<metadata>
Created by potrace 1.16, written by Peter Selinger 2001-2019
</metadata>
<g transform="translate(0.000000,512.000000) scale(0.100000,-0.100000)"
fill="#cb2026" stroke="none">
<path d="M2255 5108 c-449 -50 -923 -247 -1288 -535 -103 -81 -316 -293 -402
-399 -234 -289 -407 -638 -495 -996 -57 -232 -65 -309 -65 -613 0 -311 9 -391
70 -631 86 -338 263 -689 491 -974 87 -109 285 -307 394 -394 392 -313 859
-507 1343 -557 163 -17 522 -6 672 20 544 96 987 320 1369 691 406 395 648
857 747 1425 30 172 38 539 15 725 -57 466 -244 916 -533 1283 -73 93 -327
347 -420 420 -364 287 -815 475 -1273 532 -137 17 -489 19 -625 3z m113 -232
c-52 -40 -58 -51 -58 -111 0 -36 5 -48 31 -69 21 -18 42 -26 69 -26 41 0 41 0
240 155 l105 82 80 -9 c91 -10 294 -50 375 -74 l55 -17 -55 -18 c-76 -26 -104
-59 -97 -118 7 -59 41 -91 99 -91 22 0 115 23 205 50 l165 51 96 -51 c116 -61
261 -157 357 -237 l70 -58 -67 -3 c-61 -3 -69 -6 -92 -33 -51 -61 -24 -149 52
-168 20 -5 102 -17 182 -26 80 -9 155 -20 166 -25 12 -5 55 -53 95 -107 75
-99 203 -303 195 -310 -2 -3 -22 5 -45 16 -60 31 -97 27 -137 -13 -44 -44 -47
-92 -6 -135 15 -16 92 -64 172 -107 80 -42 150 -81 157 -88 31 -29 105 -352
128 -561 l7 -60 -44 48 c-39 41 -49 47 -85 47 -79 0 -129 -73 -99 -143 8 -18
62 -92 119 -166 91 -116 105 -138 101 -165 -23 -185 -72 -427 -92 -460 -3 -5
-11 11 -18 35 -26 87 -106 121 -171 73 -52 -39 -51 -70 7 -263 l53 -173 -24
-51 c-56 -120 -244 -404 -305 -459 -18 -16 -19 -15 -15 28 4 57 -14 101 -50
119 -44 23 -85 19 -120 -13 -31 -27 -32 -31 -55 -211 -13 -101 -29 -190 -36
-198 -35 -43 -372 -273 -400 -273 -4 0 2 21 14 47 17 40 19 51 9 85 -14 47
-52 73 -103 72 -56 -2 -78 -28 -169 -201 l-80 -153 -97 -30 c-53 -17 -151 -42
-217 -55 -114 -23 -295 -48 -302 -41 -2 1 15 17 36 34 89 71 49 192 -63 192
-28 0 -59 -19 -183 -115 l-148 -115 -50 6 c-166 19 -453 81 -438 94 4 4 25 13
45 20 77 24 103 109 52 169 -37 44 -84 41 -276 -18 l-156 -48 -99 51 c-119 63
-248 147 -351 230 l-77 61 62 3 c50 2 66 8 87 29 44 44 36 130 -15 162 -11 6
-101 22 -199 35 -105 13 -185 28 -195 36 -45 37 -275 374 -275 402 0 5 18 -1
40 -12 21 -11 50 -20 64 -20 82 0 131 84 92 159 -11 21 -57 50 -180 115 l-166
87 -24 78 c-48 150 -86 335 -101 491 l-6 65 30 -41 c16 -22 42 -46 56 -52 83
-38 168 24 151 110 -4 21 -49 88 -120 179 l-114 145 9 79 c11 102 35 230 61
330 21 81 38 116 38 80 0 -11 9 -39 20 -63 22 -49 73 -77 121 -67 38 9 79 59
79 97 0 17 -23 108 -51 201 l-52 170 37 74 c67 136 232 380 295 437 l21 19 -6
-60 c-6 -56 -5 -62 22 -92 51 -57 128 -51 168 12 8 12 24 99 37 202 12 99 26
186 32 193 36 45 402 291 414 278 3 -2 -5 -22 -16 -45 -29 -56 -27 -102 5
-140 22 -27 32 -31 72 -31 29 0 55 7 68 18 12 9 59 87 104 172 45 85 87 160
94 167 34 36 441 126 595 132 l34 1 -45 -34z"/>
<path d="M2381 4080 c-344 -44 -672 -206 -916 -455 -449 -458 -561 -1149 -280
-1730 213 -441 604 -741 1088 -837 87 -17 149 -22 277 -22 300 -1 395 30 395
128 0 36 -6 51 -27 73 -31 31 -60 34 -180 19 l-68 -9 0 336 0 335 38 7 c20 4
64 16 98 27 l60 20 340 -238 c186 -130 353 -241 369 -247 51 -15 93 10 165 99
168 209 274 439 327 709 24 124 23 404 -1 535 -115 621 -591 1103 -1216 1230
-120 25 -352 34 -469 20z m288 -206 l31 -6 0 -389 c0 -276 3 -395 12 -414 7
-15 36 -39 72 -58 33 -18 86 -57 116 -87 100 -101 141 -209 139 -370 0 -52 2
-103 6 -112 4 -9 159 -123 345 -253 l339 -236 -31 -52 c-56 -96 -110 -167
-122 -160 -6 4 -151 104 -321 223 -171 119 -320 222 -332 228 -36 19 -81 14
-148 -18 -135 -64 -275 -63 -411 5 -121 59 -100 68 -494 -195 -326 -218 -346
-229 -362 -212 -31 31 -128 196 -121 203 5 4 164 111 354 237 318 211 348 233
359 267 7 21 10 56 7 80 -21 152 86 356 230 437 99 56 93 24 93 479 0 370 1
398 18 402 27 7 186 8 221 1z m-449 -373 l0 -330 -32 -22 c-18 -12 -56 -44
-85 -72 -34 -33 -56 -47 -65 -42 -7 5 -127 82 -266 173 l-252 164 62 70 c105
118 258 233 405 304 74 36 198 83 221 84 9 0 12 -72 12 -329z m769 304 c152
-51 287 -129 423 -241 75 -63 178 -173 178 -190 0 -5 -113 -83 -251 -172
l-250 -164 -48 45 c-26 24 -66 56 -89 71 l-42 26 0 325 c0 179 1 325 3 325 2
0 36 -11 76 -25z m-1317 -786 c145 -94 264 -173 266 -174 2 -2 -4 -24 -12 -49
-9 -26 -21 -89 -27 -141 l-12 -94 -293 -195 -294 -196 -14 53 c-31 109 -40
187 -40 342 1 170 17 277 65 415 25 75 85 210 93 210 3 0 123 -77 268 -171z
m2082 99 c43 -95 81 -212 103 -318 21 -102 24 -360 4 -460 -19 -99 -43 -180
-53 -180 -5 0 -133 86 -284 191 l-274 192 0 67 c0 37 -9 102 -21 146 -11 43
-22 85 -22 91 -2 11 485 340 506 342 5 1 23 -32 41 -71z m-1421 -1162 c40 -14
84 -27 100 -31 l27 -5 0 -335 0 -335 -34 0 c-52 0 -181 27 -271 56 -156 52
-327 146 -438 242 l-48 41 293 196 c161 107 295 195 296 195 2 0 36 -11 75
-24z"/>
<path d="M2533 2695 c-33 -14 -63 -59 -63 -95 0 -56 47 -99 107 -100 59 0 93
31 100 91 5 41 2 50 -23 77 -35 37 -78 46 -121 27z"/>
<path d="M3181 1396 c-87 -48 -55 -179 46 -193 39 -5 46 -2 78 30 48 48 49 95
1 143 -37 37 -81 44 -125 20z"/>
</g>
</svg>
