<?xml version="1.0" standalone="no"?>
<!DOCTYPE svg PUBLIC "-//W3C//DTD SVG 20010904//EN"
 "http://www.w3.org/TR/2001/REC-SVG-20010904/DTD/svg10.dtd">
<svg version="1.0" xmlns="http://www.w3.org/2000/svg"
 width="512.000000pt" height="512.000000pt" viewBox="0 0 512.000000 512.000000"
 preserveAspectRatio="xMidYMid meet">
<metadata>
Created by potrace 1.16, written by Peter Selinger 2001-2019
</metadata>
<g transform="translate(0.000000,512.000000) scale(0.100000,-0.100000)"
fill="#cb2026" stroke="none">
<path d="M3495 5105 c-250 -54 -467 -222 -580 -446 l-33 -65 -834 -620 c-458
-342 -842 -626 -853 -632 -11 -6 -68 -30 -127 -53 -277 -108 -565 -332 -741
-579 -80 -112 -195 -339 -236 -465 -136 -412 -106 -875 81 -1275 157 -336 465
-646 798 -804 139 -66 316 -121 465 -146 172 -29 463 -24 620 10 231 50 466
151 645 278 164 117 349 308 448 465 21 34 234 227 728 662 591 520 704 615
729 615 17 0 55 7 85 15 160 42 306 165 381 320 l44 90 3 150 c3 133 1 158
-18 215 -30 90 -70 153 -150 235 l-67 70 -178 482 -177 483 1 137 c1 116 -2
153 -23 234 -39 153 -102 266 -215 382 -168 174 -369 258 -615 256 -66 0 -148
-6 -181 -14z m340 -180 c33 -8 96 -33 140 -55 140 -69 236 -165 305 -305 54
-108 71 -180 71 -300 0 -490 -511 -817 -956 -610 -146 67 -253 173 -325 320
-94 193 -92 395 4 590 90 181 254 313 445 360 77 18 243 18 316 0z m-1012
-708 l5 -87 -480 -358 -479 -357 -129 0 c-71 0 -125 4 -121 8 23 23 1196 893
1198 888 1 -3 3 -45 6 -94z m76 -312 c20 -55 105 -177 168 -240 160 -160 344
-241 573 -252 161 -7 276 17 423 90 59 30 110 51 112 47 17 -27 124 -345 118
-347 -43 -15 -147 -91 -199 -146 -119 -125 -170 -267 -161 -442 6 -112 29
-192 81 -277 l33 -55 -303 -266 c-167 -147 -307 -267 -312 -267 -5 0 -12 44
-15 98 -11 200 -69 410 -171 617 -132 267 -318 483 -564 653 -110 76 -312 175
-447 218 l-115 37 377 283 c208 155 380 283 383 283 4 1 12 -15 19 -34z m1646
-370 c59 -159 108 -293 110 -296 2 -3 -17 -2 -43 2 -26 4 -66 8 -88 8 -30 1
-44 6 -49 19 -4 9 -40 109 -81 221 -70 190 -74 205 -59 225 8 11 32 45 52 74
20 29 40 49 44 45 4 -4 56 -138 114 -298z m-2575 -319 c481 -85 900 -398 1114
-831 244 -496 207 -1071 -100 -1530 -231 -346 -603 -585 -1019 -657 -155 -26
-429 -21 -568 11 -541 125 -962 502 -1132 1015 -132 397 -103 791 85 1171 224
454 681 772 1195 834 103 13 317 6 425 -13z m2705 -177 c227 -85 338 -347 237
-562 -131 -281 -488 -337 -695 -108 -109 120 -136 301 -68 446 95 205 321 301
526 224z m-456 -908 c15 -11 46 -27 69 -36 l41 -17 -482 -423 c-264 -233 -482
-423 -483 -422 -1 1 6 40 16 87 11 47 22 102 25 122 5 34 38 65 387 372 210
185 386 336 391 336 5 0 21 -9 36 -19z"/>
<path d="M3540 4766 c-238 -67 -397 -296 -377 -541 7 -83 42 -185 85 -248 35
-50 112 -124 163 -155 102 -62 262 -86 383 -58 187 44 344 198 385 376 18 76
13 210 -9 282 -50 164 -192 300 -355 343 -70 18 -212 18 -275 1z m257 -188
c80 -30 162 -112 192 -193 18 -48 22 -76 19 -135 -6 -128 -70 -225 -186 -282
-59 -29 -76 -33 -147 -32 -104 0 -172 31 -244 110 -162 177 -90 457 139 537
65 23 158 21 227 -5z"/>
<path d="M3622 4335 c-65 -55 -29 -155 55 -155 62 1 100 46 89 105 -8 40 -34
64 -78 71 -27 5 -40 1 -66 -21z"/>
<path d="M1585 2899 c-395 -42 -753 -286 -934 -639 -58 -113 -105 -254 -121
-368 -20 -132 -8 -365 23 -485 160 -606 751 -987 1367 -881 464 80 837 423
957 881 35 136 43 368 18 510 -44 247 -164 474 -341 646 -103 100 -176 152
-309 217 -136 68 -261 104 -416 120 -112 11 -129 11 -244 -1z m232 -180 c239
-26 451 -128 615 -295 94 -96 142 -163 198 -279 78 -160 95 -238 94 -440 0
-187 -12 -250 -74 -398 -92 -222 -303 -435 -527 -532 -151 -65 -228 -80 -413
-79 -135 1 -179 5 -241 22 -193 53 -333 134 -474 277 -113 114 -179 215 -231
353 -53 142 -67 233 -61 396 6 170 27 258 97 401 169 348 497 561 898 584 12
0 66 -4 119 -10z"/>
<path d="M1667 2469 c-26 -15 -46 -68 -40 -102 12 -63 102 -89 148 -42 55 54
18 155 -57 155 -18 0 -41 -5 -51 -11z"/>
<path d="M1169 2251 c-20 -20 -29 -39 -29 -61 0 -45 47 -90 95 -90 48 0 85 36
85 84 0 48 -8 65 -41 81 -43 23 -77 18 -110 -14z"/>
<path d="M2155 2268 c-33 -17 -45 -40 -45 -80 0 -113 159 -118 177 -6 5 32 1
41 -25 68 -32 32 -70 39 -107 18z"/>
<path d="M1615 2126 c-82 -20 -146 -56 -205 -115 -209 -210 -148 -563 119
-694 63 -31 71 -32 186 -32 116 0 123 1 186 32 212 104 302 357 204 570 -86
188 -290 288 -490 239z m171 -181 c179 -53 236 -281 103 -414 -48 -48 -103
-71 -174 -71 -230 0 -336 286 -162 436 41 35 109 62 158 63 14 1 48 -6 75 -14z"/>
<path d="M1000 1793 c-66 -26 -78 -117 -21 -160 9 -7 33 -13 54 -13 109 -1
120 157 12 174 -17 3 -37 3 -45 -1z"/>
<path d="M2370 1793 c-62 -23 -81 -103 -35 -148 27 -28 88 -34 116 -12 50 39
48 115 -4 147 -32 20 -50 23 -77 13z"/>
<path d="M1182 1303 c-24 -9 -44 -64 -37 -99 12 -68 106 -93 151 -40 52 60 15
147 -63 145 -21 0 -44 -3 -51 -6z"/>
<path d="M2135 1285 c-35 -34 -34 -93 0 -125 50 -47 138 -21 150 44 8 38 -14
90 -40 100 -37 14 -86 6 -110 -19z"/>
<path d="M1651 1086 c-25 -27 -31 -79 -12 -114 13 -24 70 -45 97 -36 65 23 88
108 41 152 -33 31 -96 30 -126 -2z"/>
<path d="M4458 2896 c-26 -7 -55 -19 -65 -26 -80 -61 -113 -115 -120 -200 -15
-157 102 -283 260 -282 75 1 119 17 172 63 53 47 85 119 85 194 0 174 -165
298 -332 251z m130 -202 c67 -75 -42 -171 -113 -99 -29 28 -32 61 -9 93 33 47
82 49 122 6z"/>
</g>
</svg>
