<?xml version="1.0" standalone="no"?>
<!DOCTYPE svg PUBLIC "-//W3C//DTD SVG 20010904//EN"
 "http://www.w3.org/TR/2001/REC-SVG-20010904/DTD/svg10.dtd">
<svg version="1.0" xmlns="http://www.w3.org/2000/svg"
 width="512.000000pt" height="512.000000pt" viewBox="0 0 512.000000 512.000000"
 preserveAspectRatio="xMidYMid meet">

<g transform="translate(0.000000,512.000000) scale(0.100000,-0.100000)"
fill="#cb2026" stroke="none">
<path d="M1385 3655 l-25 -24 0 -696 0 -695 -40 0 -40 0 0 455 0 456 -25 24
-24 25 -354 0 c-392 0 -421 -4 -499 -63 -23 -18 -55 -51 -70 -72 -16 -22 -73
-160 -128 -305 l-100 -265 0 -343 0 -343 25 -24 24 -25 231 0 c229 0 231 0
254 23 l24 24 4 -66 c19 -257 308 -388 513 -233 58 44 111 134 120 204 l7 48
79 0 79 0 0 40 0 40 40 0 40 0 0 -40 0 -40 79 0 78 0 6 -45 c26 -189 227 -318
409 -260 114 35 208 144 223 257 l7 48 79 0 79 0 0 40 0 40 640 0 640 0 0 -40
0 -40 79 0 78 0 6 -45 c26 -189 227 -318 409 -260 114 35 208 144 223 257 l7
48 79 0 79 0 0 40 0 40 135 0 c131 0 137 1 160 25 24 23 25 28 25 175 0 147
-1 152 -25 175 -13 14 -31 25 -40 25 -13 0 -15 75 -15 695 l0 696 -25 24 -24
25 -1751 0 -1751 0 -24 -25z m3415 -775 l0 -640 -1640 0 -1640 0 0 640 0 640
1640 0 1640 0 0 -640z m-3920 -8 l0 -167 -291 -58 c-160 -32 -293 -56 -295
-54 -5 5 108 313 130 355 18 34 54 68 86 81 14 5 103 10 198 10 l172 1 0 -168z
m240 -232 l0 -400 -217 0 -217 0 -103 -103 -103 -103 0 -57 0 -57 -120 0 -120
0 0 40 0 40 80 0 80 0 0 80 0 80 -80 0 -80 0 0 128 0 127 378 74 c320 64 380
78 399 98 22 22 23 27 23 238 l0 215 40 0 40 0 0 -400z m-260 -577 c-97 -34
-169 -106 -203 -203 l-16 -45 -1 75 0 74 57 58 57 58 76 0 75 -1 -45 -16z
m362 -40 l58 -57 -1 -81 c-1 -57 -3 -71 -8 -49 -13 51 -63 134 -100 165 -40
32 -91 59 -136 70 -21 5 -6 7 50 8 l79 1 58 -57z m319 31 c-12 -15 -21 -33
-21 -40 0 -10 -13 -14 -40 -14 -27 0 -40 4 -40 14 0 7 -9 25 -21 40 l-20 26
81 0 81 0 -20 -26z m359 9 c-97 -34 -169 -106 -203 -203 l-16 -45 -1 75 0 74
57 58 57 58 76 0 75 -1 -45 -16z m362 -40 l58 -57 -1 -81 c-1 -57 -3 -71 -8
-49 -13 51 -63 134 -100 165 -40 32 -91 59 -136 70 -21 5 -6 7 50 8 l79 1 58
-57z m1519 31 c-12 -15 -21 -33 -21 -40 0 -12 -106 -14 -640 -14 -534 0 -640
2 -640 14 0 7 -9 25 -21 40 l-20 26 681 0 681 0 -20 -26z m359 9 c-97 -34
-169 -106 -203 -203 l-16 -45 -1 75 0 74 57 58 57 58 76 0 75 -1 -45 -16z
m362 -40 l58 -57 -1 -81 c-1 -57 -3 -71 -8 -49 -13 51 -63 134 -100 165 -40
32 -91 59 -136 70 -21 5 -6 7 50 8 l79 1 58 -57z m378 17 l0 -40 -80 0 c-61 0
-80 3 -80 14 0 7 -9 25 -21 40 l-20 26 100 0 101 0 0 -40z m-3857 -134 c103
-43 128 -177 48 -257 -65 -65 -157 -65 -222 0 -124 123 13 325 174 257z m1040
0 c103 -43 128 -177 48 -257 -65 -65 -157 -65 -222 0 -124 123 13 325 174 257z
m2240 0 c103 -43 128 -177 48 -257 -65 -65 -157 -65 -222 0 -124 123 13 325
174 257z"/>
<path d="M1680 3360 l0 -80 120 0 120 0 0 80 0 80 -120 0 -120 0 0 -80z"/>
<path d="M4400 3360 l0 -80 120 0 120 0 0 80 0 80 -120 0 -120 0 0 -80z"/>
<path d="M720 2400 l0 -80 120 0 120 0 0 80 0 80 -120 0 -120 0 0 -80z"/>
</g>
</svg>
