<?xml version="1.0" standalone="no"?>
<!DOCTYPE svg PUBLIC "-//W3C//DTD SVG 20010904//EN"
 "http://www.w3.org/TR/2001/REC-SVG-20010904/DTD/svg10.dtd">
<svg version="1.0" xmlns="http://www.w3.org/2000/svg"
 width="512.000000pt" height="512.000000pt" viewBox="0 0 512.000000 512.000000"
 preserveAspectRatio="xMidYMid meet">
<metadata>
Created by potrace 1.16, written by Peter Selinger 2001-2019
</metadata>
<g transform="translate(0.000000,512.000000) scale(0.100000,-0.100000)"
fill="#cb2026" stroke="none">
<path d="M1287 3960 l-358 -199 -342 -76 c-391 -86 -404 -90 -417 -115 -13
-24 -13 -555 -1 -578 5 -9 82 -53 170 -97 89 -44 161 -83 161 -88 0 -26 58
-124 101 -171 99 -109 209 -156 360 -156 189 0 354 101 434 265 l27 55 1058 0
1058 0 27 -55 c33 -68 109 -153 175 -195 148 -95 372 -95 520 0 66 42 142 127
175 195 l27 55 229 0 c216 0 230 1 249 20 19 19 20 33 20 258 0 130 -4 242 -8
249 -19 30 -357 273 -386 278 -17 2 -267 21 -556 41 l-525 36 -240 239 -241
239 -679 0 -680 0 -358 -200z m713 -96 l0 -137 -82 6 c-46 4 -210 10 -366 13
l-282 7 222 123 223 124 143 0 142 0 0 -136z m1070 -20 l155 -156 -80 6 c-44
3 -264 10 -490 16 -225 6 -429 13 -452 16 l-43 5 0 135 0 134 378 0 377 0 155
-156z m-1490 -269 c228 -8 416 -15 418 -15 1 0 2 -135 2 -300 l0 -300 -280 0
-280 0 0 44 c0 101 -60 226 -148 308 -97 91 -194 128 -332 128 -49 0 -110 -7
-141 -16 -153 -45 -284 -178 -325 -331 -9 -37 -18 -69 -20 -71 -1 -2 -36 14
-78 35 l-76 37 0 178 c0 98 1 178 3 178 1 0 139 32 307 69 358 81 311 78 950
56z m1245 -40 c382 -11 693 -27 1115 -56 l585 -41 137 -102 137 -101 1 -137 0
-138 -160 0 -160 0 0 44 c0 175 -154 366 -339 420 -76 22 -214 21 -290 -3
-182 -57 -331 -244 -331 -418 l0 -43 -680 0 -680 0 0 299 0 300 68 -5 c37 -2
306 -11 597 -19z m-1740 -290 c68 -30 115 -73 151 -137 26 -48 29 -62 29 -148
0 -109 -17 -152 -85 -220 -61 -61 -112 -83 -206 -88 -72 -4 -89 -1 -136 20
-75 35 -122 79 -158 150 -26 52 -30 72 -30 138 0 66 4 86 30 138 77 154 250
216 405 147z m3040 0 c68 -30 115 -73 151 -137 26 -48 29 -62 29 -148 0 -109
-17 -152 -85 -220 -61 -61 -112 -83 -206 -88 -72 -4 -89 -1 -136 20 -75 35
-122 79 -158 150 -26 52 -30 72 -30 138 0 66 4 86 30 138 77 154 250 216 405
147z"/>
<path d="M2340 3340 c-13 -13 -20 -33 -20 -60 0 -27 7 -47 20 -60 18 -18 33
-20 180 -20 147 0 162 2 180 20 13 13 20 33 20 60 0 27 -7 47 -20 60 -18 18
-33 20 -180 20 -147 0 -162 -2 -180 -20z"/>
<path d="M872 3100 c-48 -30 -72 -75 -72 -140 0 -100 60 -160 160 -160 100 0
160 60 160 160 0 100 -60 160 -160 160 -37 0 -66 -6 -88 -20z"/>
<path d="M3912 3100 c-48 -30 -72 -75 -72 -140 0 -100 60 -160 160 -160 100 0
160 60 160 160 0 100 -60 160 -160 160 -37 0 -66 -6 -88 -20z"/>
<path d="M1340 2361 c-87 -28 -169 -99 -211 -181 -17 -33 -24 -67 -27 -130 -5
-109 19 -178 86 -250 26 -27 318 -263 650 -525 l604 -475 434 0 435 0 259 65
c143 36 262 65 265 65 3 0 5 -20 5 -45 0 -32 6 -51 20 -65 19 -19 33 -20 460
-20 427 0 441 1 460 20 20 20 20 33 20 700 0 667 0 680 -20 700 -19 19 -33 20
-460 20 -512 0 -480 7 -480 -100 l0 -60 -65 0 c-61 0 -73 5 -267 100 -225 111
-307 137 -458 147 -114 6 -245 -14 -347 -53 -63 -25 -82 -28 -273 -33 -190 -6
-209 -8 -254 -30 -27 -14 -67 -42 -88 -63 l-38 -38 -253 127 -252 127 -90 2
c-49 2 -101 0 -115 -5z m403 -288 l257 -127 0 -48 c0 -107 72 -218 175 -268
48 -24 61 -25 295 -31 l245 -5 187 -77 188 -77 156 0 c85 0 163 4 173 10 10 5
24 23 31 40 15 35 0 84 -31 100 -10 6 -74 10 -143 10 l-126 0 -188 77 -187 77
-245 5 c-223 5 -248 8 -280 27 -107 63 -107 205 0 268 31 19 58 22 240 27 188
6 211 8 270 31 133 52 276 59 424 22 39 -10 156 -60 268 -116 l199 -98 95 0
94 0 -2 -407 -3 -407 -290 -73 -290 -72 -368 -1 -369 0 -607 480 c-669 527
-649 508 -639 609 9 89 76 150 168 151 38 1 85 -19 303 -127z m2897 -553 l0
-560 -320 0 -320 0 0 560 0 560 320 0 320 0 0 -560z"/>
<path d="M4260 1900 c-13 -13 -20 -33 -20 -60 0 -53 27 -80 80 -80 53 0 80 27
80 80 0 27 -7 47 -20 60 -13 13 -33 20 -60 20 -27 0 -47 -7 -60 -20z"/>
</g>
</svg>
