<?xml version="1.0" standalone="no"?>
<!DOCTYPE svg PUBLIC "-//W3C//DTD SVG 20010904//EN"
 "http://www.w3.org/TR/2001/REC-SVG-20010904/DTD/svg10.dtd">
<svg version="1.0" xmlns="http://www.w3.org/2000/svg"
 width="2133.000000pt" height="2133.000000pt" viewBox="0 0 2133.000000 2133.000000"
 preserveAspectRatio="xMidYMid meet">

<g transform="translate(0.000000,2133.000000) scale(0.100000,-0.100000)"
fill="#cb2026" stroke="none">
<path d="M4170 17354 c-76 -50 -143 -118 -190 -190 l-40 -60 0 -2853 0 -2852
39 -57 c48 -70 128 -147 201 -196 l55 -36 2843 0 2843 0 62 42 c79 53 142 116
195 195 l42 62 0 2843 0 2843 -36 55 c-49 73 -126 153 -196 201 l-57 39 -2853
0 -2853 0 -55 -36z m5128 -3101 l-3 -2218 -2217 -3 -2218 -2 0 2220 0 2220
2220 0 2220 0 -2 -2217z"/>
<path d="M11346 17355 c-71 -49 -151 -130 -196 -201 l-40 -60 0 -2843 0 -2842
42 -62 c53 -79 116 -142 195 -195 l62 -42 2843 0 2843 0 55 36 c73 49 153 126
201 196 l39 57 0 2852 0 2853 -40 60 c-47 72 -114 140 -190 190 l-55 36 -2855
-1 -2855 0 -49 -34z m5124 -3105 l0 -2220 -2217 2 -2218 3 -3 2218 -2 2217
2220 0 2220 0 0 -2220z"/>
<path d="M4180 10184 c-73 -49 -153 -126 -201 -196 l-39 -57 0 -2853 0 -2853
36 -55 c50 -76 118 -143 190 -190 l60 -40 2853 0 2852 0 57 39 c70 48 147 128
196 201 l36 55 0 2843 0 2843 -42 62 c-53 79 -116 142 -195 195 l-62 42 -2843
0 -2843 0 -55 -36z m5118 -3106 l2 -2218 -2220 0 -2220 0 0 2220 0 2220 2218
-2 2217 -3 3 -2217z"/>
<path d="M11345 10177 c-78 -53 -141 -117 -193 -194 l-42 -62 0 -2843 0 -2843
36 -55 c49 -73 126 -153 196 -201 l57 -39 2853 0 2853 0 55 36 c76 50 143 118
190 190 l40 60 0 2853 0 2852 -39 57 c-48 70 -128 147 -201 196 l-55 36 -2845
-1 -2845 0 -60 -42z m5125 -3097 l0 -2220 -2220 0 -2220 0 0 2213 c0 1218 3
2217 7 2220 3 4 1002 7 2220 7 l2213 0 0 -2220z"/>
</g>
</svg>
