<?xml version="1.0" standalone="no"?>
<!DOCTYPE svg PUBLIC "-//W3C//DTD SVG 20010904//EN"
 "http://www.w3.org/TR/2001/REC-SVG-20010904/DTD/svg10.dtd">
<svg version="1.0" xmlns="http://www.w3.org/2000/svg"
 width="512.000000pt" height="512.000000pt" viewBox="0 0 512.000000 512.000000"
 preserveAspectRatio="xMidYMid meet">
<metadata>
Created by potrace 1.16, written by Peter Selinger 2001-2019
</metadata>
<g transform="translate(0.000000,512.000000) scale(0.100000,-0.100000)"
fill="#cb2026" stroke="none">
<path d="M2300 4264 c-25 -2 -108 -9 -185 -15 -772 -60 -1526 -352 -1995 -773
-94 -83 -120 -120 -120 -167 0 -39 630 -2366 652 -2407 18 -34 64 -55 107 -49
20 2 61 20 91 39 79 51 162 91 302 147 252 100 517 163 873 208 140 17 822 29
843 15 11 -7 1 -30 -45 -101 l-58 -91 -42 0 c-33 0 -50 -7 -75 -29 -29 -26
-33 -35 -33 -81 0 -46 4 -55 33 -81 l32 -29 248 0 c276 0 286 2 316 64 16 32
17 44 7 75 -18 61 -42 75 -132 80 -43 2 -79 5 -79 8 0 8 102 163 108 163 32 0
297 -49 407 -75 301 -73 538 -163 711 -270 77 -48 115 -55 162 -31 15 8 33 25
40 38 22 41 652 2368 652 2407 0 47 -26 84 -120 167 -459 412 -1159 689 -1940
770 -136 14 -661 26 -760 18z m665 -235 c666 -56 1285 -272 1736 -605 57 -42
122 -94 145 -116 l41 -39 -290 -1062 c-159 -584 -291 -1064 -293 -1066 -2 -2
-57 21 -121 52 -200 95 -555 200 -808 238 -44 6 -83 15 -87 18 -4 3 120 204
275 446 l283 440 92 3 c51 1 92 1 92 -2 0 -3 -45 -170 -100 -371 -55 -201
-100 -382 -100 -401 0 -28 8 -44 34 -70 45 -45 101 -48 146 -6 28 25 43 76
250 833 121 444 220 825 220 847 0 28 -7 49 -22 67 -26 29 -90 48 -122 35 -31
-12 -65 -47 -72 -74 -3 -12 -42 -159 -88 -327 l-82 -304 -182 -5 c-165 -5
-183 -7 -201 -25 -10 -11 -168 -253 -351 -538 l-333 -518 -166 8 c-226 11
-578 8 -736 -6 -458 -41 -860 -138 -1189 -287 -66 -29 -121 -53 -122 -51 -1 1
-132 481 -292 1066 l-289 1063 36 33 c127 115 323 246 513 345 608 314 1375
447 2183 379z"/>
<path d="M910 3402 c-31 -15 -48 -42 -152 -247 -98 -192 -117 -237 -117 -275
0 -25 5 -52 12 -60 41 -52 115 -65 161 -29 38 30 256 468 256 515 0 45 -25 83
-67 100 -42 18 -51 18 -93 -4z"/>
<path d="M1350 3409 c-13 -6 -33 -18 -44 -27 -10 -9 -117 -214 -237 -455 -160
-320 -219 -447 -219 -473 0 -42 23 -80 61 -100 38 -19 68 -18 106 6 28 17 65
84 252 457 120 241 222 452 225 469 10 47 -14 97 -57 117 -40 19 -52 20 -87 6z"/>
</g>
</svg>
